<?xml version="1.0" encoding="utf-8"?>
<!-- Generator: Adobe Illustrator 22.1.0, SVG Export Plug-In . SVG Version: 6.00 Build 0)  -->
<svg version="1.1" id="Layer_1" xmlns="http://www.w3.org/2000/svg" xmlns:xlink="http://www.w3.org/1999/xlink" x="0px" y="0px"
	 viewBox="0 0 163.7 163.7" style="enable-background:new 0 0 163.7 163.7;" xml:space="preserve">
<style type="text/css">
	.st0{fill:none;stroke:#FFFFFF;stroke-width:7.4148;stroke-miterlimit:10;}
	.st1{fill:#FFFFFF;}
</style>
<g>
	<rect x="24.3" y="24.3" class="st0" width="115" height="115"/>
</g>
<path class="st1" d="M42.3,56c3.9,0,7.8,0,11.8,0c0.3,0.4,0.5,0.7,0.8,1.1c0.3,0.4,0.5,0.9,0.7,1.4c0.5,1,0.9,1.9,1.4,2.9
	c1.2,2.4,2.4,4.8,3.7,7.1c0.6,1,1,2,1.5,3c0.5,1,1,2,1.6,3c1,1.9,2.1,3.8,2.9,5.8c1.2-2.3,2.4-4.6,3.5-6.9c1.2-2.3,2.3-4.6,3.5-6.9
	c1.2-2.3,2.5-4.5,3.6-6.8c0.3-0.6,0.6-1.3,0.9-1.9c0.3-0.6,0.7-1.1,1.1-1.6c8.6,0,17.1,0,25.5,0c0.4,0,0.8,0.1,1.3,0.2
	c0.4,0.1,0.8,0,1.2,0c0.4,0,0.8,0.1,1.2,0.2c0.4,0.1,0.9,0.2,1.3,0.3c0.9,0.3,1.7,0.7,2.5,1.1c0.9,0.5,1.6,1.1,2.4,1.6
	c0.9,0.5,1.4,1.4,2.1,2.1c1.1,1.1,1.7,2.5,2.3,4c0.2,0.4,0.2,0.8,0.3,1.2c0.1,0.4,0.4,0.7,0.5,1.1c0.1,0.4,0,0.7,0.1,1.1
	c0.1,0.2,0.2,0.3,0.2,0.4c0,0.2,0,0.4,0,0.6c0,1.5,0,2.9,0,4.4c0,1.4-0.3,2.9-0.8,4.2c-0.8,2.4-2,4.6-4,6.3
	c-1.3,1.1-2.7,2.1-4.5,2.7c3.4,6.8,6.7,13.4,10.1,20.2c-4.2,0-8.3,0-12.6,0c-0.5-0.8-1-1.5-1.4-2.3c-0.4-0.9-0.9-1.9-1.3-2.8
	c-0.9-1.9-1.8-3.7-2.7-5.6c-0.7-1.4-1.3-2.7-2-4.1c-0.6-1.3-1.2-2.7-1.7-4c-2.6,0-5.2,0-7.8,0c0,6.3,0,12.5,0,18.8
	c-1.2,0.2-7.7,0.3-11.3,0.1c-0.1-0.2-0.2-0.3-0.3-0.5c-0.1-0.2-0.1-0.4-0.1-0.7c0-0.6,0-1.1,0-1.7c0-1.1,0-2.1,0-3.2
	c0-2.2,0-4.3,0-6.5c0-4.3,0-8.5,0-12.8c0-2.4,0-4.8,0-7.2c-0.1,0-0.1,0-0.2,0c-0.8,1.6-1.5,3.3-2.4,4.9c-0.5,0.8-0.9,1.6-1.4,2.4
	c-0.4,0.8-0.9,1.7-1.4,2.5c-0.8,1.4-1.6,2.8-2.4,4.2c-0.7,1.3-1.3,2.7-2.2,3.9c-0.1,0.2-0.2,0.5-0.3,0.7c-0.1,0.3-0.3,0.5-0.4,0.8
	c-0.3,0.5-0.6,1.1-0.9,1.6c-0.6,1.1-1.3,2.3-1.9,3.4c-0.8-1-1.4-2.3-2-3.4c-0.7-1.3-1.4-2.5-2.1-3.8c-1.2-2.4-2.5-4.7-3.8-7.1
	c-2-3.4-3.6-7-5.4-10.5c-0.2-0.3-0.3-0.7-0.5-1.3c0,11.4,0,22.6,0,33.7c-0.2,0.2-0.3,0.3-0.4,0.4c-3.4,0-6.8,0-10.3,0
	C42.3,90.5,42.3,73.3,42.3,56z M91.8,66.1c0,4.4,0,8.7,0,13c2.9,0,5.8,0,8.6,0c1.4,0,2.8,0.1,4.2-0.1c1.2-0.2,2.2-0.8,3-1.7
	c0.9-1.2,0.9-2.8,1.1-4.2c0.1-0.9,0-1.8-0.2-2.8c-0.1-0.8-0.2-1.5-0.6-2.2c-0.7-1.1-1.9-2-3.3-2C100.5,66,96.2,66.1,91.8,66.1z"/>
</svg>
