<?xml version="1.0" encoding="utf-8"?>
<!-- Generator: Adobe Illustrator 22.0.1, SVG Export Plug-In . SVG Version: 6.00 Build 0)  -->
<svg version="1.1" id="Layer_1" xmlns="http://www.w3.org/2000/svg" xmlns:xlink="http://www.w3.org/1999/xlink" x="0px" y="0px"
	 viewBox="0 0 249.4 300.4" style="enable-background:new 0 0 249.4 300.4;" xml:space="preserve">
<style type="text/css">
	.st0{fill:#FFFFFF;}
	.st1{fill:#356244;}
	.st2{fill:#8E2B43;}
	.st3{fill:#213557;}
</style>
<rect y="-0.6" class="st0" width="250" height="300"/>
<g id="CWK9zY.tif">
	<g>
		<path class="st1" d="M41.8,22.5c5.5,0,11,0,16.8,0c-5.4,10.4-10.8,20.6-16.8,32.2c0-11.6,0-21.8,0-31.9
			C41.8,22.8,41.8,22.5,41.8,22.5z"/>
		<path class="st2" d="M41.8,22.5c0,0,0,0.3,0,0.3c-5.3,10-10.6,20-16.7,31.5c0-11.6,0-21.5,0-31.3c0-0.2,0-0.4,0.1-0.5
			C30.8,22.5,36.3,22.5,41.8,22.5z"/>
		<path class="st3" d="M25.3,22.5c-0.1,0.2-0.1,0.3-0.1,0.5C19.7,33.1,14.3,43.2,8.6,53.7c0-10.6,0-20.8,0-31.2
			C14.2,22.5,19.7,22.5,25.3,22.5z"/>
	</g>
</g>
</svg>
