<?xml version="1.0" encoding="utf-8"?>
<!-- Generator: Adobe Illustrator 22.0.1, SVG Export Plug-In . SVG Version: 6.00 Build 0)  -->
<svg version="1.1"
	 id="svg2985" inkscape:version="0.48.5 r10040" sodipodi:docname="NBC-News-Radio-Logo-Stacked.png" xmlns:cc="http://creativecommons.org/ns#" xmlns:dc="http://purl.org/dc/elements/1.1/" xmlns:inkscape="http://www.inkscape.org/namespaces/inkscape" xmlns:rdf="http://www.w3.org/1999/02/22-rdf-syntax-ns#" xmlns:sodipodi="http://sodipodi.sourceforge.net/DTD/sodipodi-0.dtd" xmlns:svg="http://www.w3.org/2000/svg"
	 xmlns="http://www.w3.org/2000/svg" xmlns:xlink="http://www.w3.org/1999/xlink" x="0px" y="0px" viewBox="0 0 1026.5 598.9"
	 style="enable-background:new 0 0 1026.5 598.9;" xml:space="preserve">
<style type="text/css">
	.st0{fill:#FFFFFF;}
</style>
<sodipodi:namedview  bordercolor="#666666" borderopacity="1" fit-margin-bottom="0" fit-margin-left="0" fit-margin-right="0" fit-margin-top="0" gridtolerance="10" guidetolerance="10" id="namedview2987" inkscape:current-layer="svg2985" inkscape:cx="-1000.2538" inkscape:cy="161.35517" inkscape:pageopacity="0" inkscape:pageshadow="2" inkscape:window-height="706" inkscape:window-maximized="1" inkscape:window-width="1366" inkscape:window-x="-8" inkscape:window-y="-8" inkscape:zoom="0.42314995" objecttolerance="10" pagecolor="#ffffff" showgrid="false">
	</sodipodi:namedview>
<path d="M540.9,188.4c2.2,0,4.2,0,6.3,0c22,0,44.1,0,66.1-0.1c1.2,0,2,0.4,2.7,1.3c23.9,29.8,47.8,59.6,71.7,89.4
	c0.4,0.5,0.8,1,1.4,1.8c0-31,0-61.6,0-92.3c24.7,0,49.4,0,74.1,0c0,74,0,148,0,222.1c-0.6,0-1.1,0-1.6,0c-23.7,0-47.4,0-71.1,0
	c-1.1,0-1.7-0.4-2.4-1.2c-23.6-29.6-47.3-59.1-71-88.7c-0.6-0.8-1.3-1.5-2.2-2.5c0,31,0,61.6,0,92.3c-24.8,0-49.4,0-74.1,0
	C540.9,336.5,540.9,262.6,540.9,188.4z"/>
<path d="M522.4,429c-86.4,0-172.7,0-259.1,0c0-86.3,0-172.6,0-259c86.4,0,172.7,0,259.1,0C522.4,256.3,522.4,342.6,522.4,429z
	 M500.5,242.2c-23.6-42.2-74-67-125.2-55.7c-53.8,11.8-92.5,60.1-90.9,116c1.6,57.5,43.7,102.2,96.3,111
	c51.9,8.7,98.4-18.1,119.9-56.7c-21.4-12.2-42.7-24.4-64.1-36.6c-12.6,23.1-44.9,28.1-64.6,9.9c-17.5-16.2-18-43.5-0.9-60.3
	c8.4-8.3,18.7-12.2,30.5-11.8c15.4,0.5,26.7,8.1,34.9,20.8C457.8,266.6,479.1,254.4,500.5,242.2z"/>
<path class="st0" d="M500.5,242.2c-21.4,12.2-42.8,24.4-64.1,36.6c-8.2-12.7-19.5-20.3-34.9-20.8c-11.8-0.4-22.1,3.5-30.5,11.8
	c-17.1,16.8-16.6,44.1,0.9,60.3c19.7,18.2,52,13.2,64.6-9.9c21.4,12.2,42.7,24.4,64.1,36.6c-21.5,38.6-68,65.4-119.9,56.7
	c-52.6-8.8-94.7-53.5-96.3-111c-1.5-55.9,37.2-104.2,90.9-116C426.5,175.3,476.9,200,500.5,242.2z"/>
</svg>
