<?xml version="1.0" encoding="utf-8"?>
<!-- Generator: Adobe Illustrator 22.0.1, SVG Export Plug-In . SVG Version: 6.00 Build 0)  -->
<svg version="1.1" id="Layer_1" xmlns="http://www.w3.org/2000/svg" xmlns:xlink="http://www.w3.org/1999/xlink" x="0px" y="0px"
	 viewBox="0 0 325 325" style="enable-background:new 0 0 325 325;" xml:space="preserve">
<style type="text/css">
	.st0{fill:url(#SVGID_1_);}
	.st1{fill:#FBEDED;}
	.st2{fill:url(#SVGID_2_);}
	.st3{fill:#D14240;}
	.st4{fill:#D24240;}
	.st5{fill:#D3413F;}
</style>
<linearGradient id="SVGID_1_" gradientUnits="userSpaceOnUse" x1="89.9155" y1="497.6326" x2="219.3733" y2="721.8599" gradientTransform="matrix(1 0 0 1 0 -464.6)">
	<stop  offset="0" style="stop-color:#F69B94"/>
	<stop  offset="5.734908e-03" style="stop-color:#F3938C"/>
	<stop  offset="2.750307e-02" style="stop-color:#E77872"/>
	<stop  offset="5.132608e-02" style="stop-color:#DF635D"/>
	<stop  offset="7.793310e-02" style="stop-color:#D9544F"/>
	<stop  offset="0.1096" style="stop-color:#D54C47"/>
	<stop  offset="0.1591" style="stop-color:#D44944"/>
	<stop  offset="0.323" style="stop-color:#D34340"/>
	<stop  offset="0.4729" style="stop-color:#D3413F"/>
	<stop  offset="0.6322" style="stop-color:#D0403E"/>
	<stop  offset="0.7579" style="stop-color:#C53D3B"/>
	<stop  offset="0.8721" style="stop-color:#B53837"/>
	<stop  offset="0.979" style="stop-color:#9E3131"/>
	<stop  offset="1" style="stop-color:#99302F"/>
</linearGradient>
<path class="st0" d="M11.3,172.3c0-4.7,0-9.5,0-14.2c0.1-0.9,0.3-1.7,0.3-2.6c0.4-7,1.4-14,2.8-20.9c2.8-13.6,7.5-26.6,13.9-39
	C36,80.8,46,67.7,58.1,56.2c11.3-10.8,24.1-19.6,38.2-26.3c11.4-5.5,23.4-9.5,35.8-11.9c6.5-1.3,13.1-2.1,19.8-2.5
	c0.8,0,1.6-0.2,2.3-0.3c4.7,0,9.4,0,14,0c0.1,0.1,0.3,0.1,0.4,0.2c6.4,0.3,12.8,1,19.1,2.2c14,2.5,27.3,6.9,40,13.2
	c16.7,8.3,31.3,19.2,43.9,32.9c9.9,10.7,18,22.6,24.5,35.8c4.2,8.5,7.5,17.3,10,26.5c2.5,9.1,4,18.3,4.8,27.7
	c0.6,8.3,0.6,16.5-0.1,24.8c-0.6,7-1.7,14-3.3,20.9c-0.6,2.7-1.4,5.4-2.1,8.2c-1.6-0.2-3.1-0.4-4.6-0.5c-6.2-0.5-12.3-0.2-18.4,0.5
	c-8.8,1-17.4,2.7-26,4.7c-11.8,2.8-23.6,5.6-35.5,8.3c-14.1,3.2-28.4,5.6-42.8,7c-8,0.8-16.1,1.4-24.1,1.7c-7.1,0.3-14.1,0.1-21.2,0
	c-7.5-0.1-14.9-0.8-22.4-1.7c-9.4-1.2-18.6-2.8-27.8-5.1c-16-3.9-31.4-9.5-46.1-16.8c-7.5-3.7-14.8-7.9-21.9-12.4
	c-0.6-0.3-0.8-0.7-0.9-1.4c-1-5.7-1.7-11.5-2.1-17.3C11.5,173.8,11.4,173.1,11.3,172.3z M139.9,189.9c0.1,0.1,0.1,0.1,0.2,0.2
	c0,0,0,0,0.1-0.1c-0.1-0.1-0.1-0.1-0.2-0.2c-0.4-0.4-0.7-1-1.1-1.3c-1.9-1.7-3.8-3.4-5.8-4.9c-3.4-2.6-6.9-4.9-10.8-6.6
	c-6.9-2.9-14-3.2-21.3-2.6c-6.4,0.6-12.7,1.9-18.9,3.4c-7.2,1.7-14.5,3.4-21.8,5c-4.2,0.9-8.4,1.2-12.7,0.4c-5.6-1-9.6-3.9-11.3-9.5
	c-1-3.1-1-6.3-0.5-9.5c0.9-5.7,2.8-11,5.3-16.1c5.5-11,12.8-20.6,21.8-29c3.5-3.2,7.1-6.1,11.5-8c1.8-0.8,3.7-1.5,5.7-1.2
	c1.7,0.2,2.6,1.5,2.3,3.1c-0.1,0.6-0.4,0.9-1.1,0.9c-3.1,0.1-5.8,3.4-5.6,6.4c0.1,2,1.5,3,3.4,2.4c0.3-0.1,0.6-0.2,0.8-0.4
	c3.3-2.5,5.3-5.8,5.5-9.9c0.1-3.1-2.5-6.1-5.6-6.4c-1.8-0.2-3.6-0.1-5.4,0.2c-4.9,0.8-9.3,2.8-13.5,5.3c-8.7,5.2-16,12-22.4,19.8
	c-5.2,6.4-9.5,13.5-12.2,21.3c-2.1,6.2-3.2,12.5-2.4,19c0.5,3.8,1.9,7.3,4.5,10.2c3.8,4.3,8.8,6.1,14.4,6.3
	c5.2,0.3,10.2-0.8,15.2-1.9c5.9-1.4,11.8-2.9,17.7-4.1c5.8-1.2,11.6-1.9,17.6-1.3c4.1,0.4,7.9,1.6,11.1,4.3c1.5,1.3,2.8,2.9,4.2,4.4
	c-0.2,0-0.1,0-0.1,0c0.1-0.2,0.3-0.3,0.4-0.5c2.5-3,5.6-4.7,9.5-5c5.6-0.3,10.9,0.7,16,3C136.4,187.8,138.1,188.9,139.9,189.9z
	 M121.1,161.9C121.1,161.9,121.1,162,121.1,161.9c0,0.6,0,1.2,0.1,1.9c0.1,2.6,1.6,4.1,4.2,4c1.2-0.1,2.5-0.5,3.6-1
	c3.2-1.5,5.7-3.9,8.2-6.4c3.7-3.7,7-7.8,10.1-12c0.2-0.3,0.4-0.6,0.7-1.1c-0.8,0-1.4,0-2,0c-0.7-0.1-1.2,0.2-1.7,0.8
	c-2.8,3.1-5.5,6.3-8.4,9.3c-0.9,0.9-2.1,1.5-3.2,2.1c-0.9,0.4-1.5-0.1-1.2-1.1c0.2-0.9,0.6-1.8,1-2.5c5-8.4,10-16.7,15-25
	c0.7-1.2,1.4-2.4,2.2-3.8c-2.4,0-4.6,0.1-6.8,0c-1.2,0-2.1,0.1-2.6,1.3c0,0-0.1,0-0.2,0.1c-2-2.6-4.5-2.8-7.4-1.7
	c-2.7,1-4.9,2.6-7,4.4c-4.7,4-8.5,8.7-12.1,13.6c-3.2,4.3-6.5,8.5-10.5,12.2c-2,1.9-4.1,3.7-6.7,4.6c-3,1.1-5.4-0.6-5.3-3.8
	c0-1.1,0.2-2.2,0.5-3.3c2.6-7.8,6.8-14.6,12.8-20.2c1.4-1.3,3-2.3,4.5-3.4c0.8-0.6,1.8-0.8,2.8-0.5c1.1,0.3,1.7,1.7,1.1,2.6
	c-0.1,0.1-0.3,0.2-0.4,0.2c-3.2,0.2-4.7,2.2-5.6,4.9c-0.6,1.7,0.4,3.3,2.1,3.3c0.8,0,1.8-0.4,2.4-0.9c2.4-2,3.8-4.6,4.4-7.7
	c0.6-3.4-1.2-6-4.5-6.5c-1.1-0.2-2.3-0.2-3.5,0c-2.9,0.5-5.3,2-7.5,3.8c-2.6,2.2-5.1,4.5-7.6,6.7c-2.1,1.9-4.3,3.6-6.9,4.5
	c-0.5,0.2-1,0.2-1.6,0.4c0.2-0.5,0.3-0.8,0.5-1.1c1.2-2.8,2.2-5.7,2.1-8.8c-0.1-3.8-2.4-6-6.2-5.8c-2.6,0.1-5,1.2-7.1,2.6
	c-8.7,5.8-15.1,13.7-19.4,23.2c-1.4,3.1-2.2,6.3-2,9.8c0.2,3.3,2.3,5.8,5.3,6.3c2,0.3,3.8-0.4,5.6-1.4c4.1-2.2,7.4-5.3,10.5-8.6
	c3.3-3.5,5.7-7.6,8.2-11.6c0.6-0.9,1.1-1.5,2.2-1.6c0.9-0.1,1.7-0.4,2.7-0.6c-0.8,1.5-1.5,2.8-2.2,4.2c-1.8,3.5-3.2,7.1-3.3,11.1
	c0,2.6,0.6,4.9,2.6,6.7c2.6,2.2,5.5,2.4,8.6,1.5c3.6-1.1,6.5-3.2,9.4-5.5c1.8-1.5,3.4-3,5.2-4.6c-0.1,0.3-0.1,0.6-0.2,0.8
	c-0.3,1.4-0.6,2.8-0.7,4.3c-0.2,2.9,1.1,4.9,3.5,5.3c0.8,0.1,1.7,0.1,2.6,0c2.4-0.4,4.5-1.6,6.4-3.1
	C119.1,163.7,120.1,162.8,121.1,161.9z M219.2,166.1c-0.9,2.6-1.8,5.1-2.5,7.7c-0.9,3-1.6,6.1-1.3,9.4c0.2,2,1,3.7,2.9,4.5
	c2.1,0.9,4.1,0.6,6.1-0.5c2.8-1.6,5-3.8,7.1-6.1c0.3-0.3,0.5-0.6,0.9-1c0,1.3-0.1,2.5,0,3.6c0.3,2.9,2.4,4.7,5.3,4.5
	c1.1-0.1,2.2-0.4,3.1-0.9c1.8-1.1,3.5-2.3,5.2-3.6c0.7-0.5,1.3-1.2,2.1-1.9c0,1-0.1,1.9,0,2.8c0.2,2.5,2,4,4.5,3.6
	c0.8-0.1,1.7-0.4,2.5-0.7c2.3-0.9,4.2-2.4,6.1-4.1c5.3-4.6,9.5-10.2,13.4-16c0.1-0.1,0.1-0.3,0.2-0.5c-0.7,0-1.3,0.1-1.9,0
	c-0.7-0.1-1.1,0.2-1.5,0.8c-2.4,3.6-5,7.1-8.2,10c-1.1,1-2.4,1.7-3.7,2.4c-0.8,0.4-1.3,0-1.1-0.9c0.2-0.9,0.5-1.8,1-2.5
	c5.6-9.6,11.3-19.1,16.9-28.7c0.1-0.2,0.2-0.3,0.3-0.6c-2.5,0-4.9,0-7.3,0c-0.9,0-1.5,0.2-1.9,1c-0.2,0.4-0.4,0.7-0.7,1.1
	c-1.4-2-3.1-3.3-5.6-2.9c-1.1,0.2-2.3,0.5-3.4,0.9c-3.3,1.3-5.9,3.7-8.4,6.1c-4.4,4.3-7.8,9.3-11.3,14.3c-2.2,3.1-4.3,6.2-6.6,9.2
	c-1,1.2-2.3,2.3-3.6,3.2c-1.2,0.8-2.5,0.2-2.6-1.3c-0.1-1.3,0-2.6,0.3-3.9c0.9-4.1,2.6-8,4.4-11.9c0.4-0.8,0.8-1.4,1.6-1.8
	c0.7-0.4,1.4-0.9,2.1-1.5c11-7.9,20.3-17.5,28.7-28c0.7-0.9,1.4-1.9,2.2-2.9c-1,0.1-1.8,0.1-2.6,0.3c-0.3,0.1-0.7,0.2-0.9,0.5
	c-4.5,5.8-9.5,11.2-14.8,16.3c-3.8,3.6-7.6,7.2-12,10.2c-0.2,0.2-0.5,0.3-0.9,0.6c0.2-0.5,0.3-0.7,0.4-0.9
	c5.9-11.1,12.5-21.7,20.6-31.3c3.7-4.4,7.7-8.7,12.2-12.3c1.1-0.9,2.3-1.6,3.6-2.2c1-0.5,1.7,0,1.4,1.2c-0.3,1.3-0.8,2.6-1.3,3.9
	c-0.4,1.1-1,2.2-1.6,3.3c0.3-0.1,0.6-0.1,0.8-0.2c2.6-0.6,2.6-0.6,3.5-3c0.7-1.8,1.4-3.7,1.3-5.7c0-1.4-0.6-2.2-2-2.6
	s-2.9-0.2-4.3,0.2c-3,1-5.6,2.7-8,4.6c-9,7.1-16.6,15.5-23.5,24.6c-5.8,7.7-10.5,16.1-14.8,24.7c-0.8,1.5-1.7,2.3-3.3,2.5
	c-0.7,0.1-1.4,0.2-2.3,0.4c0.6-1.5,1.2-2.7,1.7-4c1.1-2.7,1.9-5.5,1.8-8.4c-0.1-3.1-2-5.1-5.2-5.1c-1.9,0-3.6,0.6-5.2,1.4
	c-4,2-7.4,5-10.4,8.2c-4.7,5-8.7,10.5-11.2,16.9c-1.2,3.2-2.1,6.6-1.8,10.1c0.4,3.5,3,5.6,6.5,5.1c1.1-0.2,2.3-0.5,3.3-1.1
	c5.5-2.9,9.9-7.1,13.6-12c1.9-2.5,3.4-5.3,5.1-7.9c0.2-0.3,0.5-0.6,0.8-0.7C216.4,166.3,217.9,166.2,219.2,166.1z M250.7,117.2
	c-0.1-0.1-0.2-0.2-0.2-0.2c-3.9-2.2-7.8-4.5-11.7-6.7c-3-1.7-6.2-3.2-9.6-3.8c-4.9-0.9-9.8-0.3-14.5,1.4c-0.9,0.3-1.7,0.5-2.4-0.3
	c-0.3-0.4-0.9-0.5-1.4-0.7c-2.1-0.8-4.3-0.8-6.5-0.6c-3.1,0.4-6,1.5-8.9,2.8c-8.7,4-16.2,9.8-22.9,16.5
	c-6.4,6.4-11.9,13.6-16.6,21.4c-3.5,5.7-6.4,11.7-8,18.2c-1.1,4.5-1.5,9.1-0.2,13.7c1.6,5.7,5.9,9.2,11.7,9.3
	c4.1,0.1,7.8-1.2,11.3-3.4c8.7-5.4,14.7-13.2,18.4-22.6c1.2-3,1.9-6,1.9-9.3c-0.1-4.8-3.4-7.3-8-6.1c-4.5,1.2-8.1,3.8-11,7.4
	c-3.4,4.3-5.3,9.3-6.6,14.5c-0.3,1.1-0.4,2.3-0.6,3.4c0.1,0,0.2,0.1,0.3,0.1c0.3-0.3,0.6-0.7,0.9-1c2.7-2.6,5.5-4.9,8.9-6.5
	c0.9-0.4,1.3-0.9,1.5-1.8c0.9-3.5,2.3-6.8,4.8-9.5c1.2-1.3,2.6-2.3,4.4-2.6c1.1-0.2,2.1,0.3,2.3,1.4c0.2,0.9,0.4,1.9,0.2,2.8
	c-0.4,2-0.8,4-1.5,6c-2.3,6.4-6.4,11.6-11.4,16.1c-2,1.9-4.3,3.5-7,4.3c-3.6,1-8.2,0-9.4-5.4c-0.4-2-0.4-4-0.1-6
	c0.9-4.9,2.4-9.7,4.5-14.3c4.1-8.7,9.4-16.7,15.5-24.1c5.7-6.9,12-13,19.5-17.9c2.5-1.6,5-3.1,7.9-3.9c1.3-0.3,2.6-0.5,4.1,0
	c-1.6,1.2-3.1,2.2-4.6,3.3c-4.4,3.3-8.3,7.1-11.1,11.9c-1.7,2.9-3.2,5.8-3.5,9.2c-0.3,3.2,1.7,5.3,4.9,5.1c2-0.1,3.7-0.9,5.3-1.9
	c3.1-2,5.5-4.7,7.5-7.7c3.8-5.5,6.9-11.3,6.2-18.4c0.5-0.1,0.9-0.2,1.4-0.3c3-0.5,5.8,0.3,8.5,1.4c4.4,1.9,8.3,4.7,12.3,7.2
	c2.3,1.5,4.7,2.9,7,4.3C246.5,121.6,248.6,119.4,250.7,117.2z M292.6,106.2c-0.1,0-0.2,0-0.2,0.1c-0.2,0.2-0.4,0.3-0.5,0.5
	c-3.3,3.2-6.9,6.1-10.9,8.3c-6.1,3.4-12.5,5.8-19.7,5.3c-0.3,0-0.6,0.2-0.8,0.3c-1.4,1.5-2.9,3.1-4.3,4.7c-0.6,0.6-1.1,1.3-1.7,2.1
	c0.4,0.1,0.6,0.1,0.9,0.2c5.7,0.9,11.3,0.1,16.5-2.3c8.8-3.9,15.5-10.2,20.3-18.5C292.5,106.7,292.5,106.5,292.6,106.2z
	 M163.9,127.1c-2.6,0-5,0-7.4,0c-0.5,0-0.8,0.2-1.1,0.6c-1.2,2.1-2.5,4.1-3.8,6.2c-0.1,0.2-0.2,0.4-0.3,0.7c2.6,0,5.1,0,7.6,0
	c0.2,0,0.5-0.1,0.6-0.3C160.9,131.9,162.4,129.6,163.9,127.1z"/>
<path class="st1" d="M291.6,187.4c0-2.1,0-4.1,0-6.1c1,0,2-0.1,2.9,0c0.6,0.1,1.3,0.6,1.7,1.1c0.8,1,0.7,3.2-0.2,4.1
	c-0.4,0.4-1,0.8-1.5,0.8C293.5,187.5,292.6,187.4,291.6,187.4z M292.5,186.6c1.1-0.1,2.2,0.4,2.9-0.8c0.5-0.9,0.5-2.4-0.1-3.2
	c-0.8-1-1.8-0.6-2.8-0.6C292.5,183.5,292.5,185,292.5,186.6z"/>
<linearGradient id="SVGID_2_" gradientUnits="userSpaceOnUse" x1="130.8129" y1="636.7559" x2="210.4242" y2="774.6465" gradientTransform="matrix(1 0 0 1 0 -464.6)">
	<stop  offset="0" style="stop-color:#D3413F"/>
	<stop  offset="0.4198" style="stop-color:#D1403E"/>
	<stop  offset="0.6236" style="stop-color:#C93E3C"/>
	<stop  offset="0.7808" style="stop-color:#BC3A39"/>
	<stop  offset="0.9134" style="stop-color:#AA3534"/>
	<stop  offset="1" style="stop-color:#99302F"/>
</linearGradient>
<path class="st2" d="M27,232.1c2.1,0.6,4.1,1.3,6.1,1.8c8.2,2.3,16.6,4,25.1,5.1c7,0.9,14,1.4,21,1.7c8.6,0.3,17.2,0.2,25.8-0.5
	c8.9-0.8,17.9-1.6,26.7-2.8c10.4-1.4,20.8-3.2,31.2-4.9c10.7-1.8,21.5-3.8,32.2-5.7c7.5-1.3,14.9-2.6,22.4-3.6
	c8.7-1.2,17.3-2.3,26-3.1c6.6-0.6,13.3-0.9,20-1c8.2-0.1,16.4,0.4,24.5,1.8c3.6,0.6,7.2,1.6,10.8,2.4c0.2,0,0.4,0.1,0.5,0.2
	c-17.2,42.7-61.2,84.5-122,90.8C106.6,321.8,50.7,280.6,27,232.1z"/>
<path class="st3" d="M243.1,177.6c0.3-0.8,0.6-2.3,1.3-3.7c3.6-7.7,8.3-14.6,14.5-20.4c0.9-0.8,1.9-1.5,2.9-2.1
	c0.6-0.3,1.4-0.4,2.1-0.4c0.9,0,1.4,0.9,0.9,1.6c-4.7,8-9.2,16.1-14.8,23.5c-0.8,1-1.7,1.9-2.6,2.8c-0.5,0.5-1.1,0.8-1.7,1.1
	C244.1,180.6,243.1,179.8,243.1,177.6z"/>
<path class="st4" d="M212.1,166.1c-1.7,2.5-3.3,5-5.1,7.3c-1.5,1.9-3.4,3.5-5.2,5.2c-0.6,0.5-1.4,0.9-2.2,1.2
	c-1.9,0.8-3.7-0.4-3.6-2.4c0.1-1.5,0.4-3.1,0.9-4.5c1.3-3.8,3.5-7.2,5.8-10.4c0.6-0.9,1.3-1.7,2-2.7
	C206.4,162.7,208.9,164.6,212.1,166.1z"/>
<path class="st3" d="M217.1,154c-0.3,1.3-0.5,2.7-1,4c-0.6,1.6-1.5,3.2-2.2,4.7c-0.3,0.5-0.6,0.7-1.2,0.5c-2.6-1-4.4-2.7-4.8-5.5
	c-0.1-0.5,0-1,0.1-1.5c0.4-2.5,3.3-5.4,5.8-5.8c1.6-0.3,2.7,0.4,3.1,2C216.9,152.9,216.9,153.4,217.1,154L217.1,154z"/>
<path class="st3" d="M116.2,157.4c0.3-0.8,0.6-2.2,1.2-3.5c2.1-4.8,5.1-9.1,8.3-13.2c2-2.5,3.9-5,6.1-7.3c1-1.1,2.5-2,3.8-2.8
	c0.4-0.3,1.1-0.3,1.6-0.3c0.9,0,1.4,0.9,1,1.6c-4.1,6.8-8.1,13.6-12.4,20.3c-1.4,2.3-3.3,4.2-5.1,6.2c-0.5,0.6-1.3,1-2,1.3
	C117.3,160.3,116.3,159.6,116.2,157.4z"/>
<path class="st4" d="M71.3,139c1.7,3.3,4.6,4.6,7.8,5.7c-0.4,0.6-0.7,1.2-1,1.7c-2.3,3.7-4.8,7.4-8.1,10.4c-1.2,1.1-2.5,2.2-4.2,2.7
	s-3-0.4-3.3-2.2c-0.2-1.6,0.2-3.2,0.7-4.7c1.3-3.8,3.4-7.1,5.7-10.3C69.8,141.2,70.5,140.2,71.3,139z"/>
<path class="st3" d="M74.3,136.6c0.1-0.5,0.2-1,0.4-1.5c1-2.5,2.8-4.1,5.3-4.9c1.6-0.5,2.7,0.2,3.2,1.7c0.6,1.9,0.1,3.7-0.5,5.5
	c-0.5,1.4-1.1,2.7-1.7,4c-0.1,0.2-0.5,0.5-0.7,0.6c-2.3,0.2-5.4-2.2-5.9-4.4C74.4,137.3,74.3,137,74.3,136.6z"/>
<path class="st5" d="M121.1,161.9l0.1-0.1C121.2,161.9,121.1,161.9,121.1,161.9C121.1,162,121.1,161.9,121.1,161.9z"/>
<path class="st4" d="M212.2,112.2c0.3,2.1-0.1,4.1-0.6,6c-2,6.9-5.9,12.5-11.7,16.8c-0.9,0.7-2,1.2-3.1,1.6
	c-1.9,0.6-3.3-0.6-3.1-2.7c0.2-2,1-3.8,2-5.5c3.8-6.5,8.8-11.9,15.5-15.7C211.4,112.6,211.7,112.4,212.2,112.2z"/>
</svg>
