<?xml version="1.0" encoding="utf-8"?>
<!-- Generator: Adobe Illustrator 22.0.1, SVG Export Plug-In . SVG Version: 6.00 Build 0)  -->
<svg version="1.1" id="Layer_1" xmlns="http://www.w3.org/2000/svg" xmlns:xlink="http://www.w3.org/1999/xlink" x="0px" y="0px"
	 viewBox="0 0 700 800" style="enable-background:new 0 0 700 800;" xml:space="preserve">
<style type="text/css">
	.st0{fill:#E5863C;}
	.st1{fill:#050504;}
	.st2{fill:#FEFEFE;}
</style>
<g>
	<path class="st0" d="M21.2,326.8c0.5-0.2,1-0.6,1.5-0.6c138.4,0,276.7,0,415.1,0c79.6,0,159.2,0,238.8,0c0.8,0,1.6,0,2.4,0
		c1.1,0,1.5,0.3,1.4,1.5c0,0.8-0.1,1.7-0.1,2.5c0,47.9,0,95.8,0,143.8c0,0.4,0,0.7,0,1.1c0,0.7-0.3,1.2-1.2,1.1c-0.4,0-0.7,0-1.1,0
		c-217.5,0-435,0-652.5,0c-0.9,0-1.7,0-2.6,0.1c-0.7,0.1-1.3-0.1-1.7-0.8c0-0.4,0-0.9,0-1.3c0.1-0.4,0.2-0.8,0.2-1.2
		c0-33.3,0-66.6,0-99.9c0-14.5,0-28.9,0-43.4c0-0.6-0.1-1.3-0.1-1.9C21.2,327.4,21.2,327.1,21.2,326.8z M352,464.8
		c104.7,0,209.5,0,314.2,0c1.9,0,1.9,0,1.9-1.8c0-40.5,0-81,0-121.5c0-0.7,0-1.5,0-2.2c0-0.8-0.4-1.2-1.2-1.1c-0.7,0-1.3,0-2,0
		c-209,0-418,0-627,0c-0.5,0-1,0-1.5,0c-0.8,0.1-1.3,0.5-1.3,1.4c0,0.3,0,0.7,0,1c0,40.6,0,81.3,0,121.9c0,0.3,0,0.6,0,0.9
		c0,0.9,0.5,1.3,1.4,1.4c0.4,0,0.9,0,1.3,0C142.6,464.8,247.3,464.8,352,464.8z"/>
	<path class="st1" d="M352,464.8c-104.7,0-209.4,0-314.1,0c-0.4,0-0.9,0-1.3,0c-0.9-0.1-1.4-0.5-1.4-1.4c0-0.3,0-0.6,0-0.9
		c0-40.6,0-81.3,0-121.9c0-0.3,0-0.7,0-1c0-0.8,0.5-1.3,1.3-1.4c0.5-0.1,1,0,1.5,0c209,0,418,0,627,0c0.7,0,1.3,0,2,0
		c0.8,0,1.2,0.4,1.2,1.1c0,0.7,0,1.5,0,2.2c0,40.5,0,81,0,121.5c0,1.8,0,1.8-1.9,1.8C561.4,464.8,456.7,464.8,352,464.8z
		 M622.5,398.1c0.1,0,0.2,0,0.4,0c0.1,0.6,0.2,1.2,0.3,1.8c0.6,3.2,1.3,6.4,1.9,9.6c0.1,0.7,0,1.4,0.2,2.1c0.3,1.3,0.8,2.6,1.1,3.9
		c0.8,4.2,1.5,8.4,2.3,12.6c0.4,2.1,0.7,4.2,1.1,6.3c0.4,2.1,0.7,4.1,1.1,6.2c0.4,2,0.9,4,1.2,6.1c0.1,0.9,0.4,1.1,1.2,1.1
		c4.5,0,9.1,0,13.6,0c3,0,2.5,0.2,2.5-2.5c0-22.4,0-44.7,0-67.1c0-7.6,0-15.3,0-22.9c0-1.8,0-1.8-1.8-1.8c-3.8,0-7.6,0.1-11.4,0.1
		c-1,0-1.3,0.4-1.3,1.2c0,0.7,0,1.4,0,2.1c0.2,8.2,0.4,16.4,0.6,24.5c0.1,4.1,0,8.3,0,12.4c0,0.4-0.1,0.8-0.2,1.4
		c-0.2-0.4-0.3-0.5-0.3-0.6c-0.4-2.4-0.8-4.8-1.3-7.2c-0.4-2.1-1-4.1-1.4-6.2c-0.8-3.4-1.5-6.9-2.2-10.3c-0.5-2.4-1-4.8-1.5-7.2
		c-0.6-2.9-1.2-5.8-1.7-8.7c-0.2-1.1-0.6-1.5-1.7-1.5c-3.3,0.1-6.5,0.1-9.8,0.1c-2.2,0-4.4,0-6.6,0c-0.8,0-1.1,0.2-1,1
		c0.1,0.7,0,1.3,0,2c0,30,0,60,0,90c0,0.9,0.2,1.2,1.1,1.2c4.2,0,8.4,0,12.6,0c1.1,0,1.4-0.4,1.4-1.5c0-4.9,0.1-9.8,0.1-14.7
		c0-10.1,0-20.2-0.1-30.3C622.5,400.2,622.5,399.2,622.5,398.1z M144.4,449.2c0.6,0.1,1,0.1,1.5,0.1c4.5,0,8.9,0,13.4,0
		c1.4,0,1.5-0.1,1.5-1.4c0-10.8,0-21.6,0-32.3c0-0.4-0.1-0.9-0.1-1.3c-0.2-1.1,0.1-1.6,1.2-1.6c2.2-0.1,4.4,0.4,6.3,1.5
		c0.5,0.3,1,0.9,1.2,1.4c0.4,1.4,0.8,2.9,0.8,4.4c0.1,2.2,0,4.3-0.1,6.5c0,6.1,0,12.2,0,18.3c0,1-0.2,2.1,0.8,2.8
		c1.5,1,3,1.8,4.9,1.8c2.6-0.1,5.2,0,7.7,0c1.6,0,1.6,0,1.6-1.5c0-10.6,0.1-21.1,0-31.7c0-5.2-1.4-9.9-5.5-13.6
		c-0.5-0.5-1.4-1-1.4-1.6c0-0.6,0.8-1.1,1.3-1.7c3.7-4.3,5.4-9.4,5.7-15c0.1-2,0-4.1,0-6.1c0-1.5,0-3.1-0.2-4.6
		c-0.2-1.9-0.8-3.8-1-5.7c-0.5-4-2.3-7.3-4.9-10.1c-2.4-2.7-5.8-3.8-9.5-3.8c-7.4,0-14.9,0-22.3,0c-2.1,0-2.1,0-2.1,2.1
		c0,24.3,0,48.6,0,72.9c0,3.1,0,6.2,0,9.3c0,2.5,0,5.1-0.1,7.6C144.9,447,144.6,448,144.4,449.2z M329.4,401.6c0,15.4,0,30.8,0,46.2
		c0,1.6,0,1.6,1.7,1.6c6.4,0,12.8,0.1,19.2,0c2.1,0,4.2-0.3,6.2-0.9c6.5-1.9,10.5-8.2,11.1-14.1c0.3-2.9,0.2-5.7,0.2-8.6
		c0-10.7,0-21.3,0-32c0-3.8-0.1-7.5-0.1-11.3c0.1-5.1,0.2-10.2-0.6-15.3c-0.4-2.8-0.8-5.5-2.5-7.9c-2.1-3-5-4.9-8.6-5.1
		c-8.1-0.3-16.3-0.1-24.5-0.1c-2.2,0-2.1,0-2.1,2.1C329.4,371.3,329.4,386.4,329.4,401.6z M69.6,449.2c0-3.5,0-6.8,0-10.1
		c0-8.5,0-17,0-25.5c0-0.9-0.1-1.8-0.1-2.8c0-0.6,0.2-1,0.9-1c2.7,0,5.3,0,8,0c0.9,0,1.3,0.5,1.2,1.3c-0.1,0.8-0.1,1.7-0.1,2.5
		c0,11.1,0,22.1,0.1,33.2c0,0.4,0,0.9,0,1.3c-0.1,0.9,0.3,1.1,1.1,1.1c3.9,0,7.9,0,11.8,0c1.4,0,1.5-0.2,1.5-1.5
		c0-30.9,0-61.8,0-92.7c0-0.9-0.3-1.1-1.2-1.1c-3.7,0-7.4,0-11.1,0c-2.1,0-2.1,0-2.1,2.1c0,11.2,0,22.4,0,33.7c0,0.7-0.2,1-1,1
		c-2.4,0-4.9,0-7.3,0c-2,0-2.3-0.3-2.3-2.2c0-11,0-21.9,0-32.9c0-1.6,0-1.6-1.7-1.6c-3.5,0-7,0-10.4,0c-2.3,0-2.3,0-2.3,2.2
		c0,30.2,0,60.5,0,90.7c0,0.3,0,0.6,0,0.9c-0.1,1.5-0.1,1.5,1.4,1.5c4,0,8.1,0,12.1,0C68.5,449.4,68.9,449.3,69.6,449.2z
		 M563.1,402.1c0,2.5,0,5.1,0,7.6c0,7.8,0,15.6,0.1,23.5c0,3.6,0.9,7.1,2.9,10.1c2.8,4.1,6.9,6.4,11.7,7.3c4,0.7,7.8,0.7,11.6-1
		c2.6-1.2,4.7-2.8,6.7-4.6c3.4-3,5.2-6.8,5.7-11.2c0.2-2,0.1-4.1,0.1-6.1c0-12,0-23.9,0-35.9c0-2.5-0.1-4.9-0.1-7.4
		c0.1-7.3,0.6-14.6-1.3-21.8c-1-3.8-3.1-6.9-6.6-9.1c-2.6-1.6-5.6-2.3-8.7-2.6c-1.4-0.1-2.9-0.1-4.3,0c-0.9,0-1.9,0.2-2.8,0.4
		c-2.3,0.6-4.9,0.8-6.9,1.9c-4.8,2.7-7.4,7.2-8,12.6c-0.3,2.4-0.3,4.9-0.3,7.4C563.1,382.8,563.1,392.5,563.1,402.1z M475.4,401.2
		c0,15.4,0,30.8,0,46.2c0,1.1,0.3,1.4,1.5,1.4c5.5-0.1,11,0,16.5,0c3.1,0,6.2-0.2,9.2-0.8c6.2-1.3,11.3-6.3,11.2-13.3
		c-0.2-22.2-0.1-44.4-0.1-66.6c0-1.9-0.2-3.8-1-5.6c-2-4.6-5.4-7.7-10.4-8.7c-2.1-0.4-4.4-0.3-6.6-0.3c-6.1,0-12.3,0-18.4,0.1
		c-1.9,0-1.9,0-1.9,1.8C475.4,370.6,475.4,385.9,475.4,401.2z M533.1,420.4C533.2,420.4,533.2,420.4,533.1,420.4
		c0.1-2.1,0.1-4.2,0.1-6.3c0-1.4-0.1-1.4-1.5-1.4c-3.6,0-7.1,0-10.7,0c-2.8,0-2.6-0.1-2.4,2.4c0,0.3,0,0.7,0,1c0,2.5-0.1,5,0,7.5
		c0.1,1.8,0.6,3.6,0.6,5.5c0.2,4.1,0.7,8.1,2.1,12c0.9,2.6,2.2,4.9,4.6,6.5c2.1,1.4,4.6,2,7.1,2.5c5.3,1.1,10.5,0.5,15.3-1.7
		c5.9-2.7,8.4-8.1,9.4-14.1c0.4-2.2,0.2-4.4,0.3-6.6c0.2-5,0.2-9.9-0.7-14.8c-0.9-4.7-2.8-8.9-6.6-12.1c-3.5-2.9-7.2-5.6-10.9-8.2
		c-2.8-2-4.7-4.7-5.7-7.9c-1.3-4.3-1.3-8.7-0.8-13.1c0.1-1.4,0.6-2.7,2.1-3.2c1.7-0.6,3.7-0.8,4.9,0.7c1,1.1,1.8,2.8,2,4.3
		c0.6,4.1,0.7,8.3,0.6,12.4c0,1.4,0.1,1.5,1.4,1.5c3.9,0,7.7,0,11.6,0c1.3,0,1.5-0.2,1.5-1.5c0-6,0-11.9,0-17.9
		c0-3.1-0.7-6.1-2.4-8.7c-2.3-3.6-5.7-6-9.9-6.6c-3.4-0.5-6.8-0.4-10.3-0.3c-5.5,0.1-9.5,3-12.6,7.2c-1.9,2.6-2.6,5.7-3.1,8.8
		c-0.6,4.1-0.9,8.2-0.8,12.4c0.1,3.6,0.5,7.2,1.2,10.8c0.7,3.5,2.6,6.2,4.9,8.7c3.4,3.6,7.4,6.2,11.6,8.7c4.3,2.5,6.6,6.3,7.1,11.1
		c0.3,2.9,0.2,5.8,0.1,8.7c0,1.4-0.2,2.9-0.7,4.3c-0.5,1.3-1.2,2.7-2.8,3c-0.8,0.1-1.6,0-2.3,0c-1.7-0.1-3.4-1.2-3.8-2.8
		c-0.4-1.7-0.6-3.4-0.7-5.1C533,425.2,533.1,422.8,533.1,420.4z M140.8,449.4c0-1.1,0-2,0-2.9c-0.2-2.4-0.4-4.9-0.6-7.3
		c0-0.2-0.2-0.4-0.2-0.6c-0.2-0.5-0.4-1-0.5-1.5c-0.2-2.6-0.4-5.2-0.5-7.8c-0.1-1.6-0.3-3.3-0.5-4.9c-0.2-1.9-0.8-3.8-0.5-5.8
		c0-0.3-0.2-0.6-0.3-0.9c-0.1-0.4-0.3-0.9-0.3-1.3c-0.1-3.4-0.4-6.7-1.2-10c-0.1-0.2,0-0.5-0.1-0.8c-0.1-2.3-0.1-4.6-0.5-6.8
		c-0.4-2.6-0.4-5.3-1.1-7.9c-0.6-2.3-0.4-4.8-0.6-7.2c-0.1-1.9-0.3-3.9-0.5-5.8c0-0.1,0-0.3-0.1-0.4c-0.7-0.7-0.5-1.6-0.5-2.5
		c0-0.6-0.1-1.1-0.2-1.7c-0.1-0.7-0.3-1.4-0.4-2c-0.3-2.4-0.5-4.9-0.7-7.3c-0.3-2.5-0.7-5-0.9-7.5c-0.2-2-0.3-2.2-2.3-2.2
		c-6.2,0-12.5-0.1-18.7-0.1c-1.6,0-2.1,0.5-1.9,2.1c0.2,1.2,0.2,2.4-0.3,3.6c-0.2,0.3-0.1,0.8-0.1,1.2c0,1.1,0.1,2.2,0,3.3
		c-0.1,0.9-0.5,1.7-0.5,2.5c-0.2,2.4-0.4,4.7-0.5,7.1c-0.2,2.3-0.3,4.5-0.5,6.8c0,0.2-0.1,0.4-0.2,0.6c-0.2,0.9-0.4,1.8-0.5,2.7
		c-0.1,1-0.2,2.1-0.3,3.1c0,0.4-0.2,0.7-0.2,1.1c-0.2,3.1-0.4,6.2-0.6,9.3c0,0.1,0,0.2-0.1,0.3c-0.7,1-0.5,2-0.4,3.1
		c0,0.6-0.1,1.2-0.2,1.8c-0.1,0.8-0.2,1.6-0.3,2.4c-0.1,0.8,0.1,1.6-0.1,2.3c-0.7,2.3-0.4,4.6-1,6.9c-0.5,1.7-0.2,3.7-0.5,5.5
		c-0.5,2.9-0.4,5.8-0.6,8.8c0,0.1,0,0.2-0.1,0.3c-0.9,0.9-0.5,2-0.5,3.1c0,0.8-0.2,1.7-0.3,2.5c-0.1,0.6-0.2,1.3-0.2,1.9
		c-0.1,0.7,0,1.5-0.1,2.2c-0.3,3.3-0.6,6.6-1,9.9c-0.1,0.9,0.3,1.1,1.1,1.1c3.6,0,7.3,0,10.9,0c1.7,0,2-0.3,1.8-2c0-0.3,0-0.7,0-1
		c0.6-2.7,0.3-5.5,1.2-8.1c0.1-0.2,0-0.5,0-0.8c0.1-1,0.2-2.1,0.3-3.1c0.2-2,0.5-4.1,0.7-6.1c0-0.1,0-0.3,0-0.4
		c-0.1-1.1,0.4-1.6,1.5-1.5c2.2,0.1,4.3,0.2,6.5,0.2c1.1,0,1.7,0.4,1.9,1.4c0.4,1.9,0.9,3.8,1.1,5.7c0.3,2.7,0.5,5.5,1,8.2
		c0.4,2.1,0.5,4.3,0.6,6.5c0,0.9,0.3,1.2,1.2,1.2c3.5,0,7,0,10.6,0C139.7,449.4,140.3,449.4,140.8,449.4z M381.2,353.6
		c-0.4,3.7-0.3,7.2-1.4,10.7c0,0.1,0,0.2,0,0.3c-0.2,2.3-0.3,4.6-0.5,6.9c-0.1,1.2-0.3,2.4-0.5,3.6c-0.1,0.5,0,1.1-0.1,1.6
		c-0.1,0.8-0.3,1.7-0.4,2.5c0,0.4,0,0.7,0,1.1c-0.4,2.5-0.8,5-1.2,7.5c-0.4,2.6-0.8,5.1-1.2,7.7c-0.4,3.5-0.8,7-1.2,10.5
		c0,0.3-0.1,0.6-0.2,0.9c-0.3,1.6-0.6,3.2-0.8,4.8c-0.3,2.5-0.5,5-0.8,7.5c-0.3,2.4-0.7,4.9-1,7.3c-0.3,2.2-0.2,4.4-0.6,6.6
		c-0.7,3.9-0.5,7.9-1.5,11.7c-0.2,0.9,0.1,1.8,0,2.8c-0.1,1,0.3,1.2,1.2,1.2c2.4,0,4.9,0,7.3,0c1.3,0,2.6,0,3.9,0
		c1.3,0,1.6-0.3,1.5-1.6c0-0.4,0-0.9,0.1-1.3c0.3-2.3,0.8-4.5,1-6.8c0.3-2.2,0.4-4.4,0.6-6.6c0.2-1.9,0.3-3.7,0.5-5.6
		c0.1-0.7,0.5-1.1,1.2-1.1c2.9,0,5.8,0,8.7,0c0.7,0,1.1,0.3,1,1.1c0,0.8,0,1.6,0.2,2.4c0.5,3.5,1.4,6.9,1.5,10.5
		c0,0.1,0.1,0.3,0.1,0.4c0.5,2.5,1.1,4.9,1.5,7.4c0.2,0.8,0.5,1.1,1.3,1.1c3.6,0,7.2,0,10.8,0c1.1,0,1.5-0.3,1.4-1.4
		c-0.3-2.8-0.6-5.6-1.1-8.4c-0.3-1.6-0.4-3.3-0.6-5c-0.7-4-0.9-8.2-1.5-12.2c-0.7-4.7-0.9-9.4-2-14c-0.1-0.3,0-0.6,0-0.9
		c0-0.6,0-1.3-0.1-1.9c-0.1-0.8-0.3-1.6-0.4-2.4c-0.1-0.8-0.1-1.7-0.2-2.5c-0.3-2.1-0.8-4.2-1-6.3c-0.4-2.9-0.7-5.9-1-8.9
		c-0.4-3.8-0.9-7.6-1.3-11.4c-0.5-4-0.9-8.1-1.3-12.1c0-0.2-0.1-0.4-0.1-0.6c-0.2-0.8-0.4-1.5-0.5-2.3c-0.2-0.9-0.3-1.8-0.4-2.7
		c0-0.3-0.2-0.6-0.2-0.9c-0.1-1.5,0-1.5-1.6-1.5c-5.9,0-11.9,0-17.8,0C382.1,353.5,381.6,353.5,381.2,353.6z M424.9,353.6
		c-0.3,0-0.5-0.1-0.6-0.1c-4.5,0-9-0.1-13.4-0.1c-0.7,0-1.2,0.4-0.9,1.2c0.2,0.8,0.4,1.6,0.5,2.4c0.2,1.4,0.5,2.8,0.7,4.2
		c0.2,1.8,0.4,3.6,0.7,5.4c0.3,2,0.6,4,0.9,6c0.1,0.7,0.1,1.5,0.2,2.2c0.3,2.2,0.6,4.3,0.9,6.5c0.2,2,0.4,4,0.7,6
		c0,0.1,0.1,0.2,0.1,0.3c0.1,0.8,0.3,1.5,0.4,2.3c0.1,0.4,0,0.9,0.1,1.3c0.4,2.2,0.9,4.4,1.2,6.7c0.3,2,0.4,4.1,0.7,6.1
		c0.5,3.3,1,6.6,1.5,9.9c0.4,2.8,0.8,5.6,1.1,8.4c0.3,2.8,0.6,5.7,1,8.5c0.3,2.2,0.5,4.4,0.9,6.6c0.3,1.7,0.1,3.5,0.7,5.2
		c0.4,1.2,0.4,2.5,0.6,3.8c0.1,0.4,0.1,0.9,0.1,1.3c-0.2,1,0.3,1.2,1.2,1.2c4.3,0,8.7,0,13,0c0.7,0,1.2-0.2,1.3-0.9
		c0.2-1,0.5-2,0.7-3c0.4-2.2,0.7-4.3,1-6.5c0.2-1.2,0.2-2.3,0.4-3.5c0.2-1.6,0.6-3.2,0.8-4.8c0.3-2.5,0.6-4.9,0.9-7.4
		c0.2-1.7,0.6-3.4,0.8-5.1c0.2-1.4,0.3-2.8,0.5-4.2c0.2-1.6,0.2-3.2,0.6-4.8c0.5-2,0.3-4.1,0.9-6.1c0.6-1.8,0.4-3.7,0.6-5.6
		c0.5-3.2,1-6.4,1.5-9.7c0-0.3,0.1-0.6,0.1-0.9c0.3-2.2,0.5-4.4,0.8-6.5c0.5-3.4,1.2-6.8,1.6-10.2c0.4-3,0.6-6,0.9-9
		c0.2-2,0.6-4.1,1-6.1c0.2-1-0.2-1.2-1.1-1.2c-3,0-6.1,0.1-9.1,0.1c-1.1,0-2.2,0-3.3-0.1c-0.7,0-1.1,0.2-1,1c0,0.8-0.1,1.6-0.2,2.4
		c-0.5,3.4-1,6.8-1.4,10.3c-0.3,2.4-0.5,4.9-0.9,7.3c-0.2,1.9-0.5,3.7-0.8,5.6c0,0.1,0,0.1,0,0.2c-0.2,2.3-0.3,4.6-0.8,6.8
		c-0.4,2-0.3,4.1-0.8,6.1c-0.7,2.9-0.7,6-1,9c-0.2,1.6-0.5,3.1-0.8,4.7c-0.3-0.3-0.5-0.6-0.5-0.9c0.1-1.4,0.2-2.8-0.5-4.1
		c-0.1-0.3-0.1-0.6-0.1-1c-0.2-2.2-0.2-4.4-0.5-6.6c-0.3-2.8-0.8-5.6-1.1-8.5c-0.1-0.9,0.1-1.9-0.1-2.9c-0.4-2.8-1-5.5-1.1-8.2
		c-0.1-2,0.2-3.9-0.5-5.8c-0.1-0.2,0-0.5,0-0.8c-0.1-1.2-0.2-2.3-0.3-3.5c-0.1-1.1-0.2-2.2-0.3-3.3c0-0.7,0-1.4-0.1-2.1
		c-0.1-0.9-0.4-1.8-0.4-2.7C424.8,355.8,424.9,354.8,424.9,353.6z M253.9,449.3c0-4.8,0-9.4,0-14c0-1.8,0-1.8-1.8-1.8
		c-3.8,0-7.6,0-11.3,0c-0.9,0-1.3-0.2-1.3-1.2c0-7.6,0-15.1,0-22.7c0-1,0.3-1.3,1.3-1.3c3.9,0,7.8,0,11.7,0c1.1,0,1.5-0.3,1.5-1.4
		c-0.1-4.7,0-9.5,0-14.2c0-1.4,0-1.5-1.5-1.5c-3.7,0-7.5,0.1-11.2,0.1c-1.6,0-1.7,0-1.7-1.6c0-6.3,0-12.5,0-18.8
		c0-1.5,0.1-1.5,1.6-1.5c3.9,0,7.7,0,11.6,0c1,0,1.3-0.3,1.3-1.3c-0.1-4.2-0.1-8.5,0-12.7c0-1.1-0.3-1.4-1.4-1.4
		c-9.1,0-18.1,0-27.2,0c-1.5,0-1.5,0-1.5,1.5c0,30.8,0,61.7,0,92.5c0,1.2,0.4,1.4,1.5,1.4c9.1,0,18.2,0,27.3,0
		C253,449.4,253.4,449.3,253.9,449.3z M277.6,384.5c-0.1,0-0.2,0.1-0.4,0.1c-0.7-2.9-1.5-5.8-2.2-8.7c-0.4-1.9-0.7-3.9-1.1-5.8
		c-0.3-1.4-0.8-2.8-1.1-4.2c-0.6-3.3-1.1-6.7-1.7-10.1c-0.3-1.7-0.7-1.9-2.4-1.8c-3.9,0-7.9,0-11.8,0c-0.3,0-0.7-0.1-0.9,0
		c-0.2,0.1-0.5,0.5-0.4,0.8c0.8,3.5,1.7,6.9,2.5,10.3c1.1,4.4,2.1,8.8,3.2,13.2c1.3,5,2.6,9.9,4,14.9c0.9,3.3,1.8,6.6,2.7,10
		c0.6,2.1,1.1,4.1,1.6,6.2c0.6,2.6,0.2,5.2,0.2,7.8c0,7.5,0.1,15.1,0.1,22.6c0,2.5-0.1,5-0.1,7.5c0,0.8,0.1,1.5,1.2,1.5
		c4.2,0,8.3,0,12.5,0c0.7,0,1-0.2,1-1c0-11.3,0-22.7,0-34c0-3.3,0.7-6.5,1.6-9.6c1.2-4.3,2.4-8.7,3.6-13c1-3.8,2.1-7.6,3.1-11.3
		c0.8-3,1.7-5.9,2.5-8.9c0.4-1.7,0.6-3.5,1-5.3c0.8-3.5,1.7-6.9,2.6-10.3c0.3-1.1,0.1-1.3-1.1-1.3c-4,0-8.1,0-12.1,0
		c-0.8,0-1.2,0.2-1.4,1c-0.7,3.1-1.6,6.1-2.2,9.2c-0.8,3.6-1.3,7.2-2.1,10.8C279.2,378.2,278.3,381.3,277.6,384.5z M190.5,401.6
		c0,15.3,0,30.6,0,45.9c0,1.7,0.2,1.8,1.9,1.8c9.1,0,18.1,0,27.2,0c0.8,0,1.1-0.2,1.1-1.1c0-4.6,0-9.2,0-13.7c0-0.9-0.3-1.2-1.2-1.1
		c-2.1,0-4.2,0-6.3,0c-2,0-4,0-5.9,0c-0.6,0-1.2,0-1.2-0.8c0-1.2,0-2.4,0-3.5c0-19.1,0.1-38.2,0.1-57.3c0-5.5-0.1-10.9,0-16.4
		c0-1-0.3-1.3-1.3-1.3c-4.2,0-8.4,0-12.6,0c-1.7,0-1.7,0-1.7,1.7C190.5,371,190.5,386.3,190.5,401.6z M468.6,353.5
		c-4.3,0-8.5,0-12.6,0c-1.8,0-1.8,0-1.8,1.7c0,15.1,0,30.2,0,45.3c0,15.6,0,31.2,0,46.8c0,1.1,0.3,1.4,1.4,1.4c3.8-0.1,7.6,0,11.3,0
		c1.6,0,1.8-0.2,1.8-1.8c0-30.7,0-61.4,0-92C468.7,354.5,468.7,354.1,468.6,353.5z M309.6,408.3c3.9,0,7.9,0,11.8,0
		c1.5,0,1.9-0.4,1.9-1.8c0-3,0-6,0-9.1c0-0.8-0.2-1.2-1.2-1.2c-3,0-6,0-9-0.1c-5.2,0-10.3,0-15.5,0c-0.9,0-1.1,0.4-1.1,1.2
		c0,3.2,0,6.4,0,9.6c0,0.9,0.3,1.3,1.3,1.3C301.8,408.3,305.7,408.3,309.6,408.3z"/>
	<path class="st2" d="M622.5,398.1c0,1,0,2.1,0,3.1c0,10.1,0.1,20.2,0.1,30.3c0,4.9-0.1,9.8-0.1,14.7c0,1-0.3,1.5-1.4,1.5
		c-4.2,0-8.4,0-12.6,0c-0.9,0-1.1-0.3-1.1-1.2c0-30,0-60,0-90c0-0.7,0-1.3,0-2c-0.1-0.8,0.3-1,1-1c2.2,0,4.4,0,6.6,0
		c3.3,0,6.5,0,9.8-0.1c1.1,0,1.5,0.4,1.7,1.5c0.5,2.9,1.1,5.8,1.7,8.7c0.5,2.4,1,4.8,1.5,7.2c0.7,3.4,1.4,6.9,2.2,10.3
		c0.5,2.1,1,4.1,1.4,6.2c0.5,2.4,0.8,4.8,1.3,7.2c0,0.1,0.1,0.2,0.3,0.6c0.1-0.7,0.2-1.1,0.2-1.4c0-4.1,0.1-8.3,0-12.4
		c-0.2-8.2-0.4-16.4-0.6-24.5c0-0.7,0-1.4,0-2.1c0-0.8,0.3-1.2,1.3-1.2c3.8,0,7.6,0,11.4-0.1c1.8,0,1.8,0,1.8,1.8
		c0,7.6,0,15.3,0,22.9c0,22.4,0,44.7,0,67.1c0,2.7,0.5,2.5-2.5,2.5c-4.5,0-9.1,0-13.6,0c-0.8,0-1.1-0.2-1.2-1.1
		c-0.3-2-0.8-4-1.2-6.1c-0.4-2.1-0.7-4.1-1.1-6.2c-0.4-2.1-0.7-4.2-1.1-6.3c-0.7-4.2-1.5-8.4-2.3-12.6c-0.3-1.3-0.8-2.6-1.1-3.9
		c-0.2-0.7,0-1.4-0.2-2.1c-0.6-3.2-1.3-6.4-1.9-9.6c-0.1-0.6-0.2-1.2-0.3-1.8C622.8,398.1,622.7,398.1,622.5,398.1z"/>
	<path class="st2" d="M144.4,449.2c0.2-1.2,0.5-2.3,0.6-3.3c0.1-2.5,0.1-5.1,0.1-7.6c0-3.1,0-6.2,0-9.3c0-24.3,0-48.6,0-72.9
		c0-2.1,0-2.1,2.1-2.1c7.4,0,14.9,0,22.3,0c3.6,0,7,1.1,9.5,3.8c2.6,2.9,4.5,6.2,4.9,10.1c0.2,1.9,0.8,3.8,1,5.7
		c0.2,1.5,0.2,3.1,0.2,4.6c0,2,0.1,4.1,0,6.1c-0.3,5.6-2,10.6-5.7,15c-0.5,0.6-1.3,1.2-1.3,1.7c0,0.5,0.9,1.1,1.4,1.6
		c4.1,3.7,5.4,8.4,5.5,13.6c0.1,10.6,0,21.1,0,31.7c0,1.5,0,1.5-1.6,1.5c-2.6,0-5.2-0.1-7.7,0c-1.9,0.1-3.5-0.7-4.9-1.8
		c-1-0.7-0.8-1.9-0.8-2.8c0-6.1,0-12.2,0-18.3c0-2.2,0.2-4.4,0.1-6.5c-0.1-1.5-0.4-3-0.8-4.4c-0.2-0.5-0.7-1.1-1.2-1.4
		c-1.9-1.1-4.1-1.6-6.3-1.5c-1.1,0.1-1.4,0.5-1.2,1.6c0.1,0.4,0.1,0.9,0.1,1.3c0,10.8,0,21.6,0,32.3c0,1.3-0.1,1.4-1.5,1.4
		c-4.5,0-8.9,0-13.4,0C145.4,449.4,145,449.3,144.4,449.2z M160,381.6c0,3.8,0,7.5,0,11.3c0,1.4,0.2,1.6,1.6,1.7c1.3,0,2.6,0,3.9,0
		c2.1,0,3.4-1.3,3.4-3.4c0-0.5,0-1,0.1-1.5c0.8-5.2,0.7-10.5,0.4-15.8c-0.1-2.1-2.1-4.9-5.4-4.6c-0.8,0.1-1.7,0-2.6,0
		c-1.2-0.1-1.4,0.1-1.4,1.3C160,374.3,160,377.9,160,381.6z"/>
	<path class="st2" d="M329.4,401.6c0-15.1,0-30.3,0-45.4c0-2.1,0-2.1,2.1-2.1c8.2,0,16.3-0.2,24.5,0.1c3.6,0.1,6.5,2.1,8.6,5.1
		c1.7,2.4,2,5.1,2.5,7.9c0.8,5.1,0.7,10.2,0.6,15.3c-0.1,3.8,0.1,7.5,0.1,11.3c0,10.7,0,21.3,0,32c0,2.9,0.1,5.8-0.2,8.6
		c-0.6,6-4.5,12.2-11.1,14.1c-2,0.6-4.1,0.9-6.2,0.9c-6.4,0.1-12.8,0-19.2,0c-1.7,0-1.7,0-1.7-1.6
		C329.4,432.3,329.4,416.9,329.4,401.6z M352.7,401.4C352.7,401.4,352.7,401.4,352.7,401.4c0-9.4,0-18.8,0-28.2
		c0-1.5-0.4-2.8-1.6-3.7c-1.4-1-3-1.1-4.7-1.2c-2.2-0.1-2.6,0.3-2.6,2.4c0,9.7,0,19.3,0,29c0,3.7,0.4,7.3,0.5,11
		c0.1,6.1,0.1,12.2,0.1,18.3c0,1-0.1,2.1-0.1,3.1c0,1,0.3,1.7,1.6,1.5c0.6-0.1,1.3,0,2,0.1c2.7,0.5,5-2.1,4.9-4.5
		C352.7,419.8,352.7,410.6,352.7,401.4z"/>
	<path class="st2" d="M69.6,449.2c-0.7,0.1-1.1,0.1-1.5,0.1c-4,0-8.1,0-12.1,0c-1.5,0-1.5,0-1.4-1.5c0-0.3,0-0.6,0-0.9
		c0-30.2,0-60.5,0-90.7c0-2.2,0-2.2,2.3-2.2c3.5,0,7,0,10.4,0c1.7,0,1.7,0,1.7,1.6c0,11,0,21.9,0,32.9c0,2,0.3,2.2,2.3,2.2
		c2.4,0,4.9,0,7.3,0c0.7,0,1-0.2,1-1c0-11.2,0-22.4,0-33.7c0-2.1,0-2.1,2.1-2.1c3.7,0,7.4,0,11.1,0c0.9,0,1.2,0.2,1.2,1.1
		c0,30.9,0,61.8,0,92.7c0,1.3-0.1,1.5-1.5,1.5c-3.9,0-7.9,0-11.8,0c-0.8,0-1.2-0.3-1.1-1.1c0.1-0.4,0-0.9,0-1.3
		c0-11.1-0.1-22.1-0.1-33.2c0-0.8,0-1.7,0.1-2.5c0.1-0.9-0.3-1.3-1.2-1.3c-2.7,0-5.3,0-8,0c-0.7,0-0.9,0.4-0.9,1
		c0,0.9,0.1,1.8,0.1,2.8c0,8.5,0,17,0,25.5C69.6,442.5,69.6,445.8,69.6,449.2z"/>
	<path class="st2" d="M563.1,402.1c0-9.6,0-19.3,0-28.9c0-2.5,0.1-4.9,0.3-7.4c0.6-5.4,3.2-9.8,8-12.6c2-1.1,4.6-1.3,6.9-1.9
		c0.9-0.2,1.9-0.4,2.8-0.4c1.4-0.1,2.9-0.1,4.3,0c3.1,0.3,6,1,8.7,2.6c3.4,2.1,5.6,5.2,6.6,9.1c1.8,7.2,1.4,14.5,1.3,21.8
		c0,2.5,0.1,4.9,0.1,7.4c0,12,0,23.9,0,35.9c0,2,0.1,4.1-0.1,6.1c-0.5,4.4-2.2,8.3-5.7,11.2c-2.1,1.8-4.1,3.5-6.7,4.6
		c-3.8,1.7-7.7,1.8-11.6,1c-4.8-0.9-9-3.1-11.7-7.3c-2.1-3-2.9-6.5-2.9-10.1c-0.1-7.8-0.1-15.6-0.1-23.5
		C563.1,407.2,563.1,404.6,563.1,402.1z M587,401.1c0-9.7,0-19.5,0-29.2c0-2.4-1.5-4.4-3.7-5c-2.9-0.9-6.4,1.3-6.4,5.1
		c0,18.9,0,37.9,0,56.8c0,2.6,1.1,4.6,3.2,6.1c2.1,1.4,5.1,0.9,6-1.2c0.5-1.1,0.8-2.4,0.9-3.6C587.1,420.4,587,410.7,587,401.1z"/>
	<path class="st2" d="M475.4,401.2c0-15.3,0-30.6,0-45.9c0-1.8,0-1.8,1.9-1.8c6.1,0,12.3-0.1,18.4-0.1c2.2,0,4.5-0.1,6.6,0.3
		c5,1,8.4,4.1,10.4,8.7c0.8,1.8,1,3.6,1,5.6c0,22.2-0.1,44.4,0.1,66.6c0.1,7-5,11.9-11.2,13.3c-3.1,0.7-6.1,0.9-9.2,0.8
		c-5.5,0-11,0-16.5,0c-1.1,0-1.5-0.3-1.5-1.4C475.4,432,475.4,416.6,475.4,401.2z M490.9,400.8C490.9,400.8,490.9,400.8,490.9,400.8
		c0,10.3,0,20.7,0,31c0,1.6,0.1,1.8,1.8,1.8c1.6,0,3.2-0.1,4.9-0.5c1.4-0.3,2.1-1.1,2.6-2.2c0.3-0.6,0.4-1.3,0.4-1.9
		c0-17.3,0-34.5,0-51.8c0-0.5,0-1,0.1-1.5c0.3-3.4-1-5.8-4-6.9c-1.2-0.5-2.7-0.3-4.1-0.3c-1.5,0-1.5,0-1.5,1.5
		C490.9,380.1,490.9,390.4,490.9,400.8z"/>
	<path class="st2" d="M533.1,420.4c0,2.4-0.1,4.9,0,7.3c0.1,1.7,0.3,3.5,0.7,5.1c0.4,1.7,2,2.8,3.8,2.8c0.8,0,1.6,0.1,2.3,0
		c1.6-0.3,2.4-1.7,2.8-3c0.5-1.4,0.7-2.9,0.7-4.3c0.1-2.9,0.2-5.8-0.1-8.7c-0.5-4.8-2.7-8.6-7.1-11.1c-4.2-2.4-8.3-5.1-11.6-8.7
		c-2.4-2.5-4.2-5.3-4.9-8.7c-0.8-3.6-1.2-7.1-1.2-10.8c-0.1-4.2,0.2-8.3,0.8-12.4c0.5-3.1,1.2-6.2,3.1-8.8c3.1-4.3,7.1-7.2,12.6-7.2
		c3.4,0,6.9-0.2,10.3,0.3c4.2,0.6,7.6,3,9.9,6.6c1.7,2.6,2.3,5.6,2.4,8.7c0.1,6,0,11.9,0,17.9c0,1.3-0.2,1.5-1.5,1.5
		c-3.9,0-7.7,0-11.6,0c-1.3,0-1.4-0.1-1.4-1.5c0-4.1,0-8.3-0.6-12.4c-0.2-1.5-1-3.1-2-4.3c-1.3-1.4-3.2-1.2-4.9-0.7
		c-1.5,0.5-2,1.8-2.1,3.2c-0.4,4.4-0.5,8.8,0.8,13.1c1,3.3,2.9,5.9,5.7,7.9c3.7,2.7,7.4,5.3,10.9,8.2c3.7,3.1,5.7,7.3,6.6,12.1
		c0.9,4.9,1,9.9,0.7,14.8c-0.1,2.2,0.1,4.5-0.3,6.6c-1.1,6-3.5,11.3-9.4,14.1c-4.8,2.2-10,2.8-15.3,1.7c-2.5-0.5-4.9-1.1-7.1-2.5
		c-2.4-1.6-3.6-3.9-4.6-6.5c-1.4-3.9-1.9-7.9-2.1-12c-0.1-1.8-0.6-3.6-0.6-5.5c-0.1-2.5,0-5,0-7.5c0-0.3,0-0.7,0-1
		c-0.2-2.5-0.4-2.4,2.4-2.4c3.6,0,7.1,0,10.7,0c1.4,0,1.5,0.1,1.5,1.4C533.2,416.2,533.2,418.3,533.1,420.4
		C533.2,420.4,533.2,420.4,533.1,420.4z"/>
	<path class="st2" d="M140.8,449.4c-0.4,0-1.1,0-1.8,0c-3.5,0-7,0-10.6,0c-0.9,0-1.2-0.3-1.2-1.2c-0.1-2.2-0.2-4.4-0.6-6.5
		c-0.5-2.7-0.7-5.4-1-8.2c-0.2-1.9-0.7-3.8-1.1-5.7c-0.2-0.9-0.8-1.4-1.9-1.4c-2.2,0-4.3-0.1-6.5-0.2c-1.2,0-1.6,0.4-1.5,1.5
		c0,0.1,0,0.3,0,0.4c-0.2,2-0.5,4.1-0.7,6.1c-0.1,1-0.2,2.1-0.3,3.1c0,0.3,0.1,0.5,0,0.8c-1,2.6-0.6,5.5-1.2,8.1
		c-0.1,0.3-0.1,0.7,0,1c0.1,1.7-0.1,2-1.8,2c-3.6,0-7.3,0-10.9,0c-0.8,0-1.2-0.2-1.1-1.1c0.3-3.3,0.7-6.6,1-9.9
		c0.1-0.7,0-1.5,0.1-2.2c0.1-0.6,0.2-1.3,0.2-1.9c0.1-0.8,0.2-1.7,0.3-2.5c0-1-0.3-2.2,0.5-3.1c0.1-0.1,0.1-0.2,0.1-0.3
		c0.2-2.9,0.1-5.9,0.6-8.8c0.3-1.9,0-3.8,0.5-5.5c0.6-2.3,0.4-4.7,1-6.9c0.2-0.7,0.1-1.5,0.1-2.3c0.1-0.8,0.2-1.6,0.3-2.4
		c0.1-0.6,0.3-1.2,0.2-1.8c0-1.1-0.3-2.1,0.4-3.1c0.1-0.1,0.1-0.2,0.1-0.3c0.2-3.1,0.4-6.2,0.6-9.3c0-0.4,0.1-0.7,0.2-1.1
		c0.1-1,0.2-2.1,0.3-3.1c0.1-0.9,0.3-1.8,0.5-2.7c0-0.2,0.1-0.4,0.2-0.6c0.2-2.3,0.3-4.5,0.5-6.8c0.2-2.4,0.3-4.7,0.5-7.1
		c0.1-0.9,0.5-1.7,0.5-2.5c0.1-1.1,0-2.2,0-3.3c0-0.4,0-0.8,0.1-1.2c0.5-1.2,0.5-2.3,0.3-3.6c-0.2-1.6,0.3-2.1,1.9-2.1
		c6.2,0.1,12.5,0.1,18.7,0.1c2,0,2.2,0.2,2.3,2.2c0.2,2.5,0.6,5,0.9,7.5c0.3,2.4,0.5,4.9,0.7,7.3c0.1,0.7,0.3,1.4,0.4,2
		c0.1,0.6,0.2,1.1,0.2,1.7c0,0.9-0.3,1.8,0.5,2.5c0.1,0.1,0.1,0.3,0.1,0.4c0.2,1.9,0.3,3.9,0.5,5.8c0.2,2.4,0,4.9,0.6,7.2
		c0.6,2.6,0.6,5.3,1.1,7.9c0.4,2.2,0.3,4.6,0.5,6.8c0,0.3,0,0.5,0.1,0.8c0.8,3.3,1.1,6.6,1.2,10c0,0.4,0.2,0.9,0.3,1.3
		c0.1,0.3,0.3,0.6,0.3,0.9c-0.3,2,0.3,3.9,0.5,5.8c0.2,1.6,0.4,3.3,0.5,4.9c0.2,2.6,0.3,5.2,0.5,7.8c0,0.5,0.3,1,0.5,1.5
		c0.1,0.2,0.2,0.4,0.2,0.6c0.2,2.4,0.4,4.9,0.6,7.3C140.8,447.4,140.8,448.3,140.8,449.4z M118.9,375.1c-0.1,0-0.2,0-0.4,0
		c0,0.3-0.1,0.6-0.1,0.9c-0.1,2.6,0.4,5.3-0.6,7.9c-0.1,0.3,0,0.7,0,1.1c-0.1,3.1-0.2,6.2-0.3,9.3c-0.1,2.4-0.2,4.8-0.3,7.2
		c-0.1,1.5-0.1,3-0.4,4.5c-0.3,1.9-0.4,1.9,1.6,1.8c0.9,0,1.8,0,2.7,0c0.4,0,0.7-0.1,1.3-0.1C121.6,396.7,120.5,385.9,118.9,375.1z"
		/>
	<path class="st2" d="M381.2,353.6c0.5,0,0.9-0.1,1.4-0.1c5.9,0,11.9,0,17.8,0c1.6,0,1.6,0,1.6,1.5c0,0.3,0.1,0.6,0.2,0.9
		c0.1,0.9,0.2,1.8,0.4,2.7c0.1,0.8,0.3,1.5,0.5,2.3c0,0.2,0.1,0.4,0.1,0.6c0.5,4,0.9,8.1,1.3,12.1c0.4,3.8,0.9,7.6,1.3,11.4
		c0.3,3,0.6,5.9,1,8.9c0.3,2.1,0.7,4.2,1,6.3c0.1,0.8,0.1,1.7,0.2,2.5c0.1,0.8,0.3,1.6,0.4,2.4c0.1,0.6,0.1,1.3,0.1,1.9
		c0,0.3-0.1,0.6,0,0.9c1.1,4.6,1.3,9.3,2,14c0.6,4.1,0.8,8.2,1.5,12.2c0.3,1.7,0.3,3.3,0.6,5c0.5,2.8,0.8,5.6,1.1,8.4
		c0.1,1.1-0.4,1.4-1.4,1.4c-3.6,0-7.2,0-10.8,0c-0.8,0-1.2-0.2-1.3-1.1c-0.4-2.5-1-5-1.5-7.4c0-0.1-0.1-0.3-0.1-0.4
		c-0.1-3.5-1-7-1.5-10.5c-0.1-0.8-0.2-1.6-0.2-2.4c0-0.8-0.3-1.1-1-1.1c-2.9,0-5.8,0-8.7,0c-0.7,0-1.1,0.4-1.2,1.1
		c-0.2,1.9-0.4,3.7-0.5,5.6c-0.2,2.2-0.3,4.4-0.6,6.6c-0.3,2.3-0.7,4.5-1,6.8c-0.1,0.4-0.1,0.9-0.1,1.3c0,1.2-0.2,1.5-1.5,1.6
		c-1.3,0-2.6,0-3.9,0c-2.4,0-4.9,0-7.3,0c-0.9,0-1.3-0.3-1.2-1.2c0.1-0.9-0.2-1.9,0-2.8c1-3.8,0.8-7.8,1.5-11.7
		c0.4-2.2,0.4-4.4,0.6-6.6c0.3-2.4,0.7-4.9,1-7.3c0.3-2.5,0.5-5,0.8-7.5c0.2-1.6,0.5-3.2,0.8-4.8c0-0.3,0.1-0.6,0.2-0.9
		c0.4-3.5,0.7-7,1.2-10.5c0.3-2.6,0.8-5.2,1.2-7.7c0.4-2.5,0.8-5,1.2-7.5c0.1-0.4,0-0.7,0-1.1c0.1-0.8,0.3-1.7,0.4-2.5
		c0.1-0.5,0-1.1,0.1-1.6c0.2-1.2,0.4-2.4,0.5-3.6c0.2-2.3,0.3-4.6,0.5-6.9c0-0.1,0-0.2,0-0.3C380.8,360.8,380.8,357.2,381.2,353.6z
		 M391.4,375.1c-0.1,0-0.2,0-0.3,0c0,0.7,0.1,1.3,0,2c-0.6,4.6-1.3,9.2-1.3,13.9c0,0.1,0,0.2,0,0.3c-0.3,2.7-0.6,5.3-0.9,8
		c-0.1,1.2-0.1,2.4-0.2,3.6c-0.2,1.5-0.5,3.1-0.7,4.9c2,0,3.5,0,5.1,0c1,0,1.3-0.2,1.2-1.2c-0.3-4-0.5-8-0.7-12
		c-0.2-2.8-0.3-5.6-0.4-8.4c0-0.2-0.1-0.4-0.1-0.5c-0.2-1.2-0.4-2.5-0.6-3.7C392.1,379.7,391.8,377.4,391.4,375.1z"/>
	<path class="st2" d="M424.9,353.6c0,1.1-0.1,2.1,0,3.1c0.1,0.9,0.3,1.8,0.4,2.7c0.1,0.7,0.1,1.4,0.1,2.1c0.1,1.1,0.2,2.2,0.3,3.3
		c0.1,1.2,0.2,2.3,0.3,3.5c0,0.3-0.1,0.5,0,0.8c0.6,1.9,0.4,3.9,0.5,5.8c0.1,2.8,0.8,5.5,1.1,8.2c0.1,0.9,0,1.9,0.1,2.9
		c0.3,2.8,0.8,5.6,1.1,8.5c0.2,2.2,0.3,4.4,0.5,6.6c0,0.3-0.1,0.7,0.1,1c0.7,1.3,0.6,2.7,0.5,4.1c0,0.3,0.1,0.6,0.5,0.9
		c0.3-1.6,0.6-3.1,0.8-4.7c0.4-3,0.3-6.1,1-9c0.5-2,0.4-4.1,0.8-6.1c0.5-2.2,0.5-4.6,0.8-6.8c0-0.1,0-0.1,0-0.2
		c0.3-1.9,0.6-3.7,0.8-5.6c0.3-2.4,0.5-4.9,0.9-7.3c0.4-3.4,1-6.8,1.4-10.3c0.1-0.8,0.2-1.6,0.2-2.4c0-0.8,0.3-1,1-1
		c1.1,0,2.2,0.1,3.3,0.1c3,0,6.1,0,9.1-0.1c0.9,0,1.3,0.2,1.1,1.2c-0.4,2-0.7,4-1,6.1c-0.4,3-0.5,6-0.9,9c-0.5,3.4-1.1,6.8-1.6,10.2
		c-0.3,2.2-0.5,4.3-0.8,6.5c0,0.3,0,0.6-0.1,0.9c-0.5,3.2-1.1,6.4-1.5,9.7c-0.3,1.9-0.1,3.8-0.6,5.6c-0.6,2-0.4,4.1-0.9,6.1
		c-0.4,1.5-0.4,3.2-0.6,4.8c-0.2,1.4-0.3,2.8-0.5,4.2c-0.2,1.7-0.6,3.4-0.8,5.1c-0.3,2.5-0.6,4.9-0.9,7.4c-0.2,1.6-0.6,3.2-0.8,4.8
		c-0.2,1.2-0.3,2.3-0.4,3.5c-0.3,2.2-0.6,4.3-1,6.5c-0.2,1-0.4,2-0.7,3c-0.2,0.7-0.6,0.9-1.3,0.9c-4.3,0-8.7,0-13,0
		c-0.9,0-1.3-0.3-1.2-1.2c0.1-0.4,0-0.9-0.1-1.3c-0.2-1.3-0.1-2.6-0.6-3.8c-0.6-1.7-0.4-3.5-0.7-5.2c-0.4-2.2-0.6-4.4-0.9-6.6
		c-0.3-2.8-0.6-5.7-1-8.5c-0.3-2.8-0.7-5.6-1.1-8.4c-0.5-3.3-1.1-6.6-1.5-9.9c-0.3-2-0.4-4.1-0.7-6.1c-0.3-2.2-0.8-4.4-1.2-6.7
		c-0.1-0.4-0.1-0.9-0.1-1.3c-0.1-0.8-0.3-1.5-0.4-2.3c0-0.1-0.1-0.2-0.1-0.3c-0.2-2-0.4-4-0.7-6c-0.3-2.2-0.6-4.3-0.9-6.5
		c-0.1-0.7-0.1-1.5-0.2-2.2c-0.3-2-0.6-4-0.9-6c-0.2-1.8-0.4-3.6-0.7-5.4c-0.2-1.4-0.4-2.8-0.7-4.2c-0.1-0.8-0.3-1.6-0.5-2.4
		c-0.2-0.8,0.2-1.2,0.9-1.2c4.5,0,9,0.1,13.4,0.1C424.4,353.5,424.6,353.6,424.9,353.6z"/>
	<path class="st2" d="M253.9,449.3c-0.5,0-0.9,0.1-1.3,0.1c-9.1,0-18.2,0-27.3,0c-1.1,0-1.5-0.2-1.5-1.4c0-30.8,0-61.7,0-92.5
		c0-1.5,0-1.5,1.5-1.5c9.1,0,18.1,0,27.2,0c1.1,0,1.4,0.3,1.4,1.4c-0.1,4.2-0.1,8.5,0,12.7c0,1-0.3,1.3-1.3,1.3c-3.9,0-7.7,0-11.6,0
		c-1.5,0-1.6,0.1-1.6,1.5c0,6.3,0,12.5,0,18.8c0,1.6,0,1.6,1.7,1.6c3.7,0,7.5-0.1,11.2-0.1c1.5,0,1.5,0,1.5,1.5c0,4.7,0,9.5,0,14.2
		c0,1.1-0.4,1.4-1.5,1.4c-3.9-0.1-7.8,0-11.7,0c-1,0-1.3,0.3-1.3,1.3c0,7.6,0,15.1,0,22.7c0,1,0.4,1.2,1.3,1.2c3.8,0,7.6,0,11.3,0
		c1.8,0,1.8,0,1.8,1.8C253.9,439.9,253.9,444.5,253.9,449.3z"/>
	<path class="st2" d="M277.6,384.5c0.8-3.2,1.6-6.3,2.3-9.5c0.8-3.6,1.3-7.2,2.1-10.8c0.7-3.1,1.5-6.1,2.2-9.2c0.2-0.8,0.6-1,1.4-1
		c4,0,8.1,0,12.1,0c1.2,0,1.3,0.2,1.1,1.3c-0.8,3.4-1.8,6.9-2.6,10.3c-0.4,1.7-0.6,3.6-1,5.3c-0.7,3-1.6,5.9-2.5,8.9
		c-1,3.8-2.1,7.6-3.1,11.3c-1.2,4.3-2.4,8.7-3.6,13c-0.9,3.1-1.6,6.3-1.6,9.6c0,11.3,0,22.7,0,34c0,0.7-0.3,1-1,1
		c-4.2,0-8.3,0-12.5,0c-1.1,0-1.2-0.7-1.2-1.5c0-2.5,0.1-5,0.1-7.5c0-7.5-0.1-15.1-0.1-22.6c0-2.6,0.4-5.2-0.2-7.8
		c-0.5-2.1-1-4.1-1.6-6.2c-0.9-3.3-1.8-6.6-2.7-10c-1.3-5-2.7-9.9-4-14.9c-1.1-4.4-2.1-8.8-3.2-13.2c-0.8-3.5-1.7-6.9-2.5-10.3
		c-0.1-0.2,0.2-0.6,0.4-0.8c0.2-0.1,0.6,0,0.9,0c3.9,0,7.9,0,11.8,0c1.7,0,2.1,0.2,2.4,1.8c0.6,3.3,1.1,6.7,1.7,10.1
		c0.3,1.4,0.8,2.8,1.1,4.2c0.4,1.9,0.7,3.9,1.1,5.8c0.7,2.9,1.4,5.8,2.2,8.7C277.3,384.6,277.4,384.5,277.6,384.5z"/>
	<path class="st2" d="M190.5,401.6c0-15.3,0-30.6,0-45.8c0-1.7,0-1.7,1.7-1.7c4.2,0,8.4,0,12.6,0c1,0,1.3,0.3,1.3,1.3
		c0,5.5,0.1,10.9,0,16.4c0,19.1,0,38.2-0.1,57.3c0,1.2,0,2.4,0,3.5c0,0.8,0.6,0.8,1.2,0.8c2,0,4,0,5.9,0c2.1,0,4.2,0,6.3,0
		c0.8,0,1.2,0.2,1.2,1.1c0,4.6,0,9.2,0,13.7c0,0.9-0.3,1.1-1.1,1.1c-9.1,0-18.1,0-27.2,0c-1.7,0-1.9-0.2-1.9-1.8
		C190.5,432.2,190.5,416.9,190.5,401.6z"/>
	<path class="st2" d="M468.6,353.5c0,0.6,0.1,1,0.1,1.4c0,30.7,0,61.4,0,92c0,1.6-0.2,1.8-1.8,1.8c-3.8,0-7.6,0-11.3,0
		c-1.1,0-1.4-0.3-1.4-1.4c0-15.6,0-31.2,0-46.8c0-15.1,0-30.2,0-45.3c0-1.7,0-1.7,1.8-1.7C460.2,353.5,464.3,353.5,468.6,353.5z"/>
	<path class="st2" d="M309.6,408.3c-3.9,0-7.9,0-11.8,0c-1,0-1.3-0.4-1.3-1.3c0-3.2,0.1-6.4,0-9.6c0-0.8,0.2-1.2,1.1-1.2
		c5.2,0,10.3,0,15.5,0c3,0,6,0.1,9,0.1c0.9,0,1.2,0.3,1.2,1.2c0,3,0,6,0,9.1c0,1.4-0.4,1.8-1.9,1.8
		C317.5,408.3,313.6,408.3,309.6,408.3z"/>
	<path class="st1" d="M160,381.6c0-3.7,0-7.3,0-11c0-1.2,0.2-1.4,1.4-1.3c0.8,0,1.7,0.1,2.6,0c3.3-0.3,5.3,2.5,5.4,4.6
		c0.3,5.3,0.4,10.5-0.4,15.8c-0.1,0.5-0.1,1-0.1,1.5c-0.1,2.1-1.3,3.4-3.4,3.4c-1.3,0-2.6,0-3.9,0c-1.4,0-1.6-0.3-1.6-1.7
		C160,389.1,160,385.3,160,381.6z"/>
	<path class="st1" d="M352.7,401.4c0,9.2-0.1,18.5,0.1,27.7c0,2.4-2.2,5-4.9,4.5c-0.7-0.1-1.4-0.2-2-0.1c-1.3,0.2-1.6-0.5-1.6-1.5
		c0-1,0.1-2.1,0.1-3.1c0-6.1,0-12.2-0.1-18.3c-0.1-3.7-0.5-7.3-0.5-11c-0.1-9.7,0-19.3,0-29c0-2.2,0.4-2.6,2.6-2.4
		c1.6,0.1,3.3,0.2,4.7,1.2c1.2,0.9,1.6,2.2,1.6,3.7C352.7,382.6,352.7,392,352.7,401.4C352.7,401.4,352.7,401.4,352.7,401.4z"/>
	<path class="st1" d="M587,401.1c0,9.6,0,19.3,0,28.9c0,1.2-0.4,2.5-0.9,3.6c-1,2.1-4,2.7-6,1.2c-2.1-1.5-3.2-3.5-3.2-6.1
		c0-18.9,0-37.9,0-56.8c0-3.8,3.5-6,6.4-5.1c2.2,0.7,3.7,2.7,3.7,5C587,381.6,587,391.3,587,401.1z"/>
	<path class="st1" d="M490.9,400.8c0-10.3,0-20.7,0-31c0-1.4,0-1.5,1.5-1.5c1.4,0,2.9-0.2,4.1,0.3c3.1,1.2,4.3,3.5,4,6.9
		c0,0.5-0.1,1-0.1,1.5c0,17.3,0,34.5,0,51.8c0,0.6-0.1,1.3-0.4,1.9c-0.5,1.1-1.2,1.9-2.6,2.2c-1.6,0.4-3.2,0.5-4.9,0.5
		c-1.6,0-1.8-0.1-1.8-1.8C490.8,421.4,490.8,411.1,490.9,400.8C490.9,400.8,490.9,400.8,490.9,400.8z"/>
	<path class="st1" d="M118.9,375.1c1.6,10.8,2.7,21.6,3.5,32.6c-0.5,0.1-0.9,0.1-1.3,0.1c-0.9,0-1.8-0.1-2.7,0
		c-2,0.1-1.9,0.1-1.6-1.8c0.2-1.5,0.3-3,0.4-4.5c0.1-2.4,0.2-4.8,0.3-7.2c0.1-3.1,0.2-6.2,0.3-9.3c0-0.4-0.1-0.8,0-1.1
		c1-2.6,0.5-5.3,0.6-7.9c0-0.3,0.1-0.6,0.1-0.9C118.6,375.1,118.8,375.1,118.9,375.1z"/>
	<path class="st1" d="M391.4,375.1c0.4,2.3,0.7,4.6,1.1,6.9c0.2,1.2,0.4,2.5,0.6,3.7c0,0.2,0.1,0.4,0.1,0.5c0.1,2.8,0.3,5.6,0.4,8.4
		c0.2,4,0.4,8,0.7,12c0.1,1-0.3,1.3-1.2,1.2c-1.6-0.1-3.2,0-5.1,0c0.3-1.8,0.6-3.3,0.7-4.9c0.1-1.2,0.1-2.4,0.2-3.6
		c0.3-2.7,0.6-5.3,0.9-8c0-0.1,0-0.2,0-0.3c0-4.7,0.7-9.3,1.3-13.9c0.1-0.7,0-1.3,0-2C391.2,375.1,391.3,375.1,391.4,375.1z"/>
</g>
</svg>
