<?xml version="1.0" encoding="utf-8"?>
<!-- Generator: Adobe Illustrator 22.0.1, SVG Export Plug-In . SVG Version: 6.00 Build 0)  -->
<svg version="1.1"
	 id="svg2985" inkscape:version="0.48.5 r10040" sodipodi:docname="NBC-News-Radio-Logo-Stacked.png" xmlns:cc="http://creativecommons.org/ns#" xmlns:dc="http://purl.org/dc/elements/1.1/" xmlns:inkscape="http://www.inkscape.org/namespaces/inkscape" xmlns:rdf="http://www.w3.org/1999/02/22-rdf-syntax-ns#" xmlns:sodipodi="http://sodipodi.sourceforge.net/DTD/sodipodi-0.dtd" xmlns:svg="http://www.w3.org/2000/svg"
	 xmlns="http://www.w3.org/2000/svg" xmlns:xlink="http://www.w3.org/1999/xlink" x="0px" y="0px" viewBox="0 0 625 625"
	 style="enable-background:new 0 0 625 625;" xml:space="preserve">
<style type="text/css">
	.st0{fill:#2961A5;}
	.st1{fill:#FEFEFE;}
	.st2{fill:none;stroke:#2961A5;stroke-width:10;stroke-miterlimit:10;}
</style>
<sodipodi:namedview  bordercolor="#666666" borderopacity="1" fit-margin-bottom="0" fit-margin-left="0" fit-margin-right="0" fit-margin-top="0" gridtolerance="10" guidetolerance="10" id="namedview2987" inkscape:current-layer="svg2985" inkscape:cx="-1000.2538" inkscape:cy="161.35517" inkscape:pageopacity="0" inkscape:pageshadow="2" inkscape:window-height="706" inkscape:window-maximized="1" inkscape:window-width="1366" inkscape:window-x="-8" inkscape:window-y="-8" inkscape:zoom="0.42314995" objecttolerance="10" pagecolor="#ffffff" showgrid="false">
	</sodipodi:namedview>
<g id="_x36_IzCcq.tif">
	<g>
		<path class="st0" d="M312.4,34.3c49.2,0.1,95.3,12.3,137.9,36.9c34.3,19.9,63,46,86,78.3c5.8,8.2,11.1,16.8,16.1,25.6
			c12,20.6,20.6,42.7,26.5,65.9c1.4,5.6,2.5,11.3,3.6,17c0.8,3.9,1.6,7.9,2.1,11.9c0.8,6.2,1.6,12.3,2.1,18.5
			c0.5,6.3,0.7,12.6,0.7,19c0,6.3-0.1,12.7-0.5,19c-0.7,11.9-2.2,23.8-4.5,35.5c-4.2,21.1-10.5,41.5-19.5,61.1
			c-11,23.9-25,45.9-42.2,65.8c-17.2,19.9-36.9,37.1-59,51.3c-20.6,13.3-42.5,23.7-65.8,31.1c-11.5,3.7-23.2,6.6-35.1,8.6
			c-8.3,1.4-16.6,2.4-24.9,3.2c-8.2,0.7-16.4,1.1-24.5,1c-8.3-0.1-16.7-0.6-25-1.3c-17-1.3-33.6-4.7-49.9-9.4
			c-19-5.4-37.2-12.9-54.6-22.3c-18.5-10-35.6-22-51.3-35.9c-20.6-18.2-38.1-39.1-52.5-62.6c-14-22.8-24.5-47.1-31.1-73
			c-2.2-8.7-4.2-17.5-5.6-26.4c-2.7-16.5-3.9-33.1-3.4-49.8c0.2-7.3,0.8-14.6,1.4-22c0.7-9.6,2.3-19.2,4.3-28.6
			c5.7-26.5,14.9-51.7,27.9-75.5c21.6-39.2,50.9-71.2,88-96.2c29.6-20,62-33.6,97-40.9C274.8,36.2,293.5,34.3,312.4,34.3z
			 M236.2,357.1c3.3,4.6,6.8,9.1,11,12.9c17.1,15.4,37.4,22.7,60.1,24.1c7.9,0.5,15.9,0.1,23.8-0.9c9.4-1.1,18.6-3.3,27.1-7.6
			c10.7-5.4,18.2-13.5,21.5-25.2c2.1-7.4,2.4-14.9,1.3-22.4c-1.4-10-5.6-18.5-13.5-25c-4.9-4-10.5-6.8-16.4-8.9
			c-11.8-4.1-24.1-5.5-36.4-7c-8-1-16-2.1-24-3.4c-4.4-0.7-8.8-2.2-12.1-5.4c-2.5-2.5-3.2-5.6-2.4-8.9c1.2-4.8,5.2-6.8,9.5-8.1
			c2.8-0.8,5.8-1.2,8.7-1.5c2.6-0.3,5.2-0.6,7.8-0.6c3,0,6,0.3,9,0.6c2.2,0.2,4.5,0.3,6.7,0.6c3.6,0.6,7.2,1.4,10.9,2.1
			c5.8,1,11.4,2.9,16.8,5.1c4.8,1.9,9.5,4.2,13.2,7.9c0.9-0.8,1.7-1.5,2.5-2.4c4.5-5,8.9-9.9,13.4-14.9c2.4-2.6,2.4-2.6,0.2-5.4
			c-0.4-0.6-0.9-1.1-1.3-1.6c-6.1-6.5-13.6-10.7-21.8-13.8c-12-4.5-24.5-6.3-37.2-6.6c-9.3-0.3-18.5,0.3-27.6,2
			c-6.7,1.2-13.2,3-19.3,5.8c-7.8,3.6-14.7,8.4-19.3,15.9c-3.4,5.4-5.3,11.3-5.8,17.7c-0.3,4,0,8.1,0.9,12
			c1.7,7.3,5.2,13.6,10.7,18.7c7.4,7,16.5,10.7,26.2,13.4c11.2,3.1,22.8,3.9,34.3,5.2c6.4,0.8,12.8,1.8,19.1,3
			c3.8,0.8,7.4,2.4,10.2,5.4c4.1,4.5,3.7,11-1,14.9c-1.1,0.9-2.4,1.8-3.6,2.4c-8.6,4.3-17.8,5.8-27.3,5.6c-8.1-0.2-15.8-2-23.3-5
			c-10.5-4.1-19.7-10.1-26.9-18.8c-1-1.2-2-2.5-3.1-3.9C251,342.5,243.6,349.8,236.2,357.1z M534.7,388.4c0-48.5,0-96.7,0-145
			c-10,0-19.9,0-30,0c0,30,0,59.9,0,90c-0.4-0.4-0.6-0.6-0.7-0.8c-12-13.9-23.9-27.8-35.9-41.6c-6.3-7.3-12.6-14.6-18.9-21.9
			c-3.9-4.5-7.7-8.9-11.6-13.4c-3.2-3.7-6.4-7.3-9.4-11c-0.9-1.1-1.8-1.4-3.2-1.4c-9.3,0-18.5,0-27.8,0c-0.6,0-1.2,0-1.7,0
			c0,48.5,0,96.7,0,145c9.9,0,19.6,0,29.5,0c0-32.9,0-65.8,0-98.8c0.6,0.7,1,1.2,1.4,1.7c18.5,22.6,37.1,45.3,55.6,67.9
			c4.4,5.3,8.7,10.8,13,16.1c3.4,4.2,6.9,8.3,10.4,12.4c0.4,0.5,1.3,0.8,1.9,0.8c7.5,0.1,15,0,22.5,0
			C531.4,388.4,533,388.4,534.7,388.4z M197,242.8c0,18.3,0,36.4,0,54.6c-25.1,0-50.1,0-75.3,0c0-18.4,0-36.8,0-55.1
			c-10.2,0-20.3,0-30.4,0c0,48.7,0,97.3,0,146c10.2,0,20.2,0,30.5,0c0-20.2,0-40.2,0-60.3c25.1,0,50.1,0,75.2,0
			c0,20.2,0,40.2,0,60.3c9.8,0,19.5,0,29.3,0c0-48.5,0-97,0-145.5C216.6,242.8,206.9,242.8,197,242.8z"/>
		<path class="st1" d="M236.2,357.1c7.5-7.4,14.8-14.6,22.2-22c1.1,1.4,2,2.7,3.1,3.9c7.3,8.7,16.5,14.7,26.9,18.8
			c7.5,2.9,15.3,4.8,23.3,5c9.5,0.2,18.7-1.2,27.3-5.6c1.3-0.7,2.5-1.5,3.6-2.4c4.7-3.9,5.1-10.4,1-14.9c-2.7-3-6.3-4.6-10.2-5.4
			c-6.3-1.2-12.7-2.3-19.1-3c-11.5-1.3-23.1-2.1-34.3-5.2c-9.6-2.7-18.7-6.5-26.2-13.4c-5.5-5.1-9-11.4-10.7-18.7
			c-0.9-4-1.2-8-0.9-12c0.5-6.3,2.4-12.2,5.8-17.7c4.7-7.5,11.5-12.3,19.3-15.9c6.2-2.8,12.7-4.6,19.3-5.8c9.1-1.7,18.3-2.3,27.6-2
			c12.7,0.4,25.2,2.2,37.2,6.6c8.2,3.1,15.8,7.3,21.8,13.8c0.5,0.5,0.9,1.1,1.3,1.6c2.2,2.8,2.2,2.8-0.2,5.4
			c-4.5,5-8.9,9.9-13.4,14.9c-0.7,0.8-1.6,1.5-2.5,2.4c-3.7-3.7-8.3-6-13.2-7.9c-5.4-2.2-11-4-16.8-5.1c-3.6-0.7-7.2-1.5-10.9-2.1
			c-2.2-0.4-4.4-0.5-6.7-0.6c-3-0.2-6-0.5-9-0.6c-2.6,0-5.2,0.2-7.8,0.6c-2.9,0.4-5.9,0.7-8.7,1.5c-4.3,1.2-8.3,3.2-9.5,8.1
			c-0.9,3.3-0.2,6.4,2.4,8.9c3.4,3.3,7.7,4.7,12.1,5.4c8,1.3,16,2.4,24,3.4c12.3,1.5,24.6,2.9,36.4,7c6,2.1,11.5,4.9,16.4,8.9
			c7.9,6.5,12.1,15,13.5,25c1,7.5,0.7,15-1.3,22.4c-3.3,11.7-10.8,19.8-21.5,25.2c-8.5,4.3-17.7,6.4-27.1,7.6
			c-7.9,1-15.8,1.3-23.8,0.9c-22.7-1.3-43-8.6-60.1-24.1C243,366.2,239.5,361.8,236.2,357.1z"/>
		<path class="st1" d="M534.7,388.4c-1.7,0-3.3,0-4.9,0c-7.5,0-15,0-22.5,0c-0.6,0-1.5-0.3-1.9-0.8c-3.5-4.1-7-8.2-10.4-12.4
			c-4.4-5.3-8.7-10.7-13-16.1c-18.5-22.6-37.1-45.3-55.6-67.9c-0.4-0.5-0.8-1-1.4-1.7c0,33.1,0,65.9,0,98.8c-9.9,0-19.6,0-29.5,0
			c0-48.2,0-96.5,0-145c0.6,0,1.2,0,1.7,0c9.3,0,18.5,0,27.8,0c1.4,0,2.3,0.3,3.2,1.4c3,3.8,6.3,7.4,9.4,11
			c3.9,4.5,7.7,8.9,11.6,13.4c6.3,7.3,12.6,14.6,18.9,21.9c12,13.9,23.9,27.7,35.9,41.6c0.2,0.2,0.3,0.4,0.7,0.8c0-30.2,0-60.1,0-90
			c10.1,0,20,0,30,0C534.7,291.6,534.7,339.9,534.7,388.4z"/>
		<path class="st1" d="M197,242.8c9.9,0,19.6,0,29.4,0c0,48.5,0,96.9,0,145.5c-9.7,0-19.4,0-29.3,0c0-20.1,0-40.1,0-60.3
			c-25.1,0-50.1,0-75.2,0c0,20,0,40.1,0,60.3c-10.2,0-20.3,0-30.5,0c0-48.7,0-97.3,0-146c10.1,0,20.2,0,30.4,0c0,18.4,0,36.7,0,55.1
			c25.1,0,50.1,0,75.3,0C197,279.3,197,261.1,197,242.8z"/>
	</g>
</g>
<circle class="st2" cx="312.5" cy="309.1" r="297.9"/>
</svg>
