<?xml version="1.0" encoding="utf-8"?>
<!-- Generator: Adobe Illustrator 22.0.1, SVG Export Plug-In . SVG Version: 6.00 Build 0)  -->
<svg version="1.1" id="Layer_1" xmlns="http://www.w3.org/2000/svg" xmlns:xlink="http://www.w3.org/1999/xlink" x="0px" y="0px"
	 viewBox="0 0 345 345" style="enable-background:new 0 0 345 345;" xml:space="preserve">
<style type="text/css">
	.st0{fill:#D04E40;}
	.st1{fill:#F1CFCB;}
</style>
<path class="st0" d="M704.8-312.5c0-91.7,0-183.4,0-275.2c91.7,0,183.3,0,275,0c0,91.9,0,183.5,0,275.2
	C888-312.5,796.4-312.5,704.8-312.5z M744.9-386.8c-0.1,0.5-0.2,0.9-0.4,1.4c0,10.3,0,20.6,0,31c0.1,0.3,0.3,0.6,0.4,0.9
	c0.6,0,1.1,0.1,1.7,0.1c63.8,0,127.6,0,191.3,0c0.6,0,1.2,0,1.9,0c0-11.2,0-22.2,0-33.4c-26.9,0-53.6,0-80.4,0
	c-0.1-0.3-0.1-0.6-0.2-0.9c0-0.5,0-0.9,0-1.4c0-0.5,0.1-0.9,0.1-1.4c0-40.9,0-81.7,0-122.6l0,0c26,0,52,0,77.9,0
	c2.1,0,2.7-0.6,2.7-2.7c-0.1-9.6-0.1-19.2,0-28.8c0-2.3-0.7-2.9-3-2.9c-63.2,0.1-126.5,0-189.7,0.1c-0.8,0-1.6,0.3-2.4,0.5
	c-0.1,0.1-0.1,0.3-0.1,0.4c-0.1,0.6-0.3,1.2-0.3,1.8c0,9.6,0,19.2,0,28.8c0,0.6,0.2,1.2,0.3,1.8c0,0.1,0.1,0.3,0.1,0.4
	c1,0.2,1.9,0.5,2.9,0.5c25.6,0,51.1,0,76.7,0c0,0.5,0.1,0.9,0.1,1.4c0,0.2,0,0.3,0,0.5c0,1-0.1,1.9-0.1,2.9c0,39.3,0,78.5,0,117.8
	c0,1.1-0.1,2.2-0.1,3.3c-25.5,0-50.9,0-76.4,0c-1.1,0-2.2,0.2-3.3,0.4C744.8-386.9,744.9-386.8,744.9-386.8z"/>
<path class="st0" d="M322.4,322.4c-100,0-199.9,0-299.9,0c0-100,0-199.9,0-299.9c98.8,0,197.6,0,296.4,0c1.1,0,2.3,0,3.4,0
	c0.1,0.2,0.1,0.3,0.2,0.5c0,0.9-0.1,1.7-0.1,2.6c0,97.9,0,195.7,0,293.6c0,0.9,0,1.7,0.1,2.6C322.5,322.1,322.4,322.3,322.4,322.4z
	 M278.7,241.9c-0.2-0.1-0.3-0.3-0.5-0.4c-0.5,0-1,0-1.5,0c-0.8,0-1.5-0.1-2.3-0.1c-55.5,0-110.9,0-166.4,0c-0.8,0-1.5,0.1-2.3,0.1
	c-0.5,0-1,0-1.5,0c-0.3-0.1-0.7-0.1-1-0.2c0-16.6,0-33.1,0-49.8c6.8,0,13.3,0,19.8,0c39.5,0,78.9,0,118.4,0c0.2-0.8,0.6-1.6,0.6-2.4
	c0-10.8,0-21.7,0-32.5c0-0.8-0.3-1.6-0.5-2.4l0,0c-1.2-0.2-2.3-0.5-3.5-0.5c-44.9,0-89.8,0-134.7,0c0-16.6,0-33.2,0-49.9
	c1.3,0,2.3,0,3.3,0c40.1,0,80.2,0,120.2,0c17.3,0,34.6,0,51.9,0c0.2-0.8,0.6-1.6,0.6-2.4c0-10.6,0-21.3,0-31.9
	c0-0.8-0.4-1.6-0.6-2.4c-1,0-1.9,0-2.9,0c-49.9,0-99.7,0-149.6,0c-1.1,0-2.2-0.1-3.4-0.1c-0.9-0.1-1.9-0.4-2.8-0.4
	c-16.5,0-33.1,0-49.6,0c-0.9,0-1.9,0.2-2.8,0.4c-0.3,0.1-0.7,0.1-1,0.2c-0.1,0.5-0.3,1-0.4,1.5c0,0.3,0,0.7,0,1
	c0,0.8-0.1,1.5-0.1,2.3c0,41.9,0,83.7,0,125.6c0,0.7,0.1,1.4,0.1,2.1c0,0.4-0.1,0.9-0.1,1.3c0,25.4,0,50.7,0,76.1
	c0,0.5,0.1,1,0.2,1.6c4.5,0,8.8,0,13.1,0c13.2,0,26.5,0.1,39.7,0.1c0.9,0.1,1.9,0.4,2.8,0.4c51.3,0,102.5,0,153.8,0c1,0,2-0.3,3-0.5
	c0,0,0,0,0,0c0.2-0.8,0.5-1.6,0.5-2.5c0-10.5,0-21,0-31.4c0-0.8-0.3-1.7-0.4-2.5L278.7,241.9z"/>
<path class="st0" d="M-139.5,811.5c-100,0-200,0-300,0c0-99.9,0-199.9,0-299.8c100.2,0,200,0,300,0
	C-139.5,611.7-139.5,711.6-139.5,811.5z M-408.9,656.5c0,3.7,0,7.4,0,11c0.8,6.1,1.1,12.3,2.4,18.3c5.1,24.1,16.4,44.9,34.4,61.8
	c23.9,22.5,52.3,34,85.3,33.1c7-0.2,14.1-0.8,21-2.2c27.4-5.6,50.2-19.2,68.1-40.7c17.7-21.2,26.8-45.8,27.6-73.5
	c0.2-5.1-0.1-10.3-0.6-15.5c-1.5-14.5-5.2-28.4-12.2-41.2c-21.7-40.2-55.3-62.3-101-65.4c-7.9-0.5-16.1,0-23.9,1.2
	c-27.2,4.2-50.5,16.5-69.2,36.7c-19.5,21.1-30.2,46-31.8,74.8c-0.1,0.1-0.2,0.1-0.2,0.2c0,0.1,0.1,0.3,0.1,0.4
	C-408.9,655.9-408.9,656.2-408.9,656.5z"/>
<path class="st1" d="M-295.1,667.7c0,0,0.1,0.1,0.1,0.1c0,0,0,0.1,0,0.1C-295,667.9-295.1,667.8-295.1,667.7z"/>
<path class="st0" d="M680.8-245.9c91.7,0,183.3,0,275,0c0,91.7,0,183.3,0,275.1c-91.6,0-183.2,0-275,0
	C680.8-62.4,680.8-154.1,680.8-245.9z M746.4-205.9c-8.2,0-16.3,0-24.5,0c-0.6,0-1.1,0.3-1.7,0.5l-0.1,0c-0.1,0.9-0.4,1.8-0.4,2.8
	c0,62.8,0,125.6,0,188.5c0,1,0.3,2,0.5,2.9c33.5,0,66.9,0.1,100.4,0c5.3,0,10.8-0.5,16-1.5c9.9-1.9,19.5-4.9,28.4-9.9
	c32.9-18.4,50.2-46.4,51.2-84.2c0.2-6.3-1-12.7-1.8-19c-1.2-9.3-4.4-18-8.8-26.2c-18-33-45.8-50.7-83.2-53.3
	c-0.9-0.1-1.9-0.4-2.8-0.4c-23,0-45.9,0-68.9,0c-0.9,0-1.9,0.2-2.8,0.3c-0.3,0-0.6,0-0.9,0C746.8-205.7,746.6-205.8,746.4-205.9z"/>
<path class="st0" d="M-282.2,739.8c-47.5,0.4-81.7-30.4-85.5-70.8c-2.2-24,5.3-45,22.1-62.2c14.3-14.8,32-22.7,52.6-23.4
	c47.3-1.6,78.3,35.1,81.2,70.5c1.9,22.9-4.4,43.1-19.7,60.1C-246.8,730.9-266.3,739.3-282.2,739.8z"/>
<path class="st0" d="M820.9-171.6c28.8,0.4,54.9,21.7,60.4,51.4c6.9,37.5-18.4,68.9-52.5,74.1c-3.6,0.5-7.2,0.9-10.8,0.9
	c-20.4,0.1-40.9,0-61.3,0c-0.9,0-1.7,0-2.6-0.1c0-1,0-2.1,0-3.1c0-41.1,0-82.2,0-123.3l0-0.1c17.3,0,34.7,0,52,0
	C811-171.6,816-171.6,820.9-171.6z"/>
</svg>
