<?xml version="1.0" encoding="utf-8"?>
<!-- Generator: Adobe Illustrator 22.0.1, SVG Export Plug-In . SVG Version: 6.00 Build 0)  -->
<svg version="1.1" id="Layer_1" xmlns="http://www.w3.org/2000/svg" xmlns:xlink="http://www.w3.org/1999/xlink" x="0px" y="0px"
	 viewBox="0 0 200 250" style="enable-background:new 0 0 200 250;" xml:space="preserve">
<style type="text/css">
	.st0{fill:url(#SVGID_1_);}
</style>
<linearGradient id="SVGID_1_" gradientUnits="userSpaceOnUse" x1="50.3195" y1="23.8383" x2="150.5635" y2="197.466">
	<stop  offset="0" style="stop-color:#FFFF00"/>
	<stop  offset="0.2705" style="stop-color:#E19516"/>
	<stop  offset="1" style="stop-color:#C1272D"/>
</linearGradient>
<path class="st0" d="M155.7,76.9c3.1,9.9,1.4,20.5-5,28.7c1.4,0.6,2.8,1.2,4.3,1.8c0.9-15.1-4.4-27.8-13.4-39.6
	c-5-6.6-8.9-13.2-8.9-21.8c0-8.9,3.4-17.6,7-25.6c0.9-2-1.1-5-3.4-3.4c-22.8,15.8-19.6,46.5-32.2,68.6c1.6,0.4,3.1,0.8,4.7,1.3
	c-1.1-13.3-11.2-22.3-22-28.9c-12.6-7.7-30.9-16.6-28.6-34.4c0.3-2.3-2.9-3.1-4.3-1.8c-8.9,8.7-7,21.7-2.3,32
	c3.3,7.4,7.8,14.1,10.2,21.9c2.5,8.3,2.9,16.9,1.5,25.4c1.5-0.2,3-0.4,4.6-0.6c-3.4-6.1-9-9.7-15-13c-7.2-4-16.6-9.1-15.7-18.7
	c0.2-2.7-3.4-3.1-4.7-1.3c-9.6,13.5-4.7,30.7,2,44.3c4.1,8.4,9,16.5,11.5,25.7c2.5,9.3,1.8,19.1,1.2,28.6c-0.1,1.3,1.2,2.5,2.5,2.5
	c0,0,0,0,0.1,0c-0.8-0.8-1.7-1.7-2.5-2.5c0.7,22.3,14.9,42.3,36.3,49.5c21.2,7.1,45.1-0.3,58.7-17.9c7.7-10,11.5-22.4,11-35
	c-0.8,0.8-1.7,1.7-2.5,2.5c0,0,0,0,0.1,0c1.3,0,2.6-1.1,2.5-2.5c-0.8-10.1,3.1-20.1,8-28.7c3.8-6.8,8.5-13.2,10.4-20.9
	c3.3-13.8-1.3-28.8-11.7-38.5c-2.3-2.2-5.9,1.3-3.5,3.5c11.5,10.8,14.4,27.7,7.3,41.8c-7,13.8-16.8,26.5-15.5,42.9
	c0.8-0.8,1.7-1.7,2.5-2.5c0,0,0,0-0.1,0c-1.3,0-2.6,1.1-2.5,2.5c1,26.3-19.2,49.5-45.9,50.6c-26.9,1.1-49.3-20.4-50.1-47.1
	c0-1.3-1.1-2.5-2.5-2.5c0,0,0,0-0.1,0c0.8,0.8,1.7,1.7,2.5,2.5c0.5-8.2,1-16.4-0.3-24.6c-1.3-8.2-4.7-15.8-8.4-23.1
	c-7.3-14.4-17.6-33-6.6-48.3c-1.6-0.4-3.1-0.8-4.7-1.3c-1.8,19.4,23.9,20.7,31.4,34.2c1,1.8,4.2,1.6,4.6-0.6
	c2.2-13.3,0.3-26.3-5.7-38.5C57,53,46.1,36.6,57.6,25.5c-1.4-0.6-2.8-1.2-4.3-1.8c-1.8,14,8.7,24.8,19.5,31.7
	c12.1,7.8,29.6,15,31,31.5c0.2,2.4,3.3,3.5,4.7,1.3c12-20.8,9.1-52,30.4-66.8c-1.1-1.1-2.3-2.3-3.4-3.4c-6.2,13.7-11.5,29.7-3.8,44
	c3.7,6.9,9.6,12.5,13.2,19.5c4.2,8,5.8,17,5.2,26c-0.1,2,2.9,3.5,4.3,1.8c7.5-9.6,9.9-21.9,6.3-33.6
	C159.6,72.5,154.7,73.8,155.7,76.9z"/>
</svg>
