<?xml version="1.0" encoding="utf-8"?>
<!-- Generator: Adobe Illustrator 22.0.1, SVG Export Plug-In . SVG Version: 6.00 Build 0)  -->
<svg version="1.1" id="Layer_1" xmlns="http://www.w3.org/2000/svg" xmlns:xlink="http://www.w3.org/1999/xlink" x="0px" y="0px"
	 viewBox="0 0 200 200" style="enable-background:new 0 0 200 200;" xml:space="preserve">
<style type="text/css">
	.st0{fill:#FFFFFF;}
	.st1{fill:#6CAC45;}
</style>
<g>
	
		<image style="overflow:visible;opacity:0.79;" width="779" height="780" xlink:href="CA54BB3DEA0C794.png"  transform="matrix(0.24 0 0 0.24 8.5668 8.3639)">
	</image>
	<g>
		<rect x="12.5" y="12.5" class="st0" width="175" height="175"/>
	</g>
</g>
<g id="aG0rJB.tif">
	<g>
		<path class="st1" d="M143.8,40.3c-2.7,17.1-5.7,30.9-6.8,44.9c-2.7,34.5-15.6,49.5-49.4,58.3c-6.1,1.6-10.8,8.1-16.3,12.2
			c-4.9,3.6-9.9,7.3-15.1-1.1c3-1.5,5.9-2.7,8.6-4.2c8.3-4.7,13.9-8.7,9.8-21.2c-7.8-23.3-1.8-45.2,18.7-59.8
			C108.9,58.2,126.6,50.1,143.8,40.3z"/>
	</g>
</g>
</svg>
