<?xml version="1.0" encoding="utf-8"?>
<!-- Generator: Adobe Illustrator 22.0.1, SVG Export Plug-In . SVG Version: 6.00 Build 0)  -->
<svg version="1.1" id="Layer_1" xmlns="http://www.w3.org/2000/svg" xmlns:xlink="http://www.w3.org/1999/xlink" x="0px" y="0px"
	 viewBox="0 0 200 200" style="enable-background:new 0 0 200 200;" xml:space="preserve">
<style type="text/css">
	.st0{fill:#4B9060;}
	.st1{fill:#498F5E;}
</style>
<g id="G04OTk.tif">
	<g>
		<g>
			<path class="st0" d="M67.6,102.6c0,6.1,0,12.2,0,18.3c0,1,0.1,2,0,3c-0.4,2.4-1.7,3.7-3.5,3.5c-1.4-0.1-3.1-2.1-3.2-3.8
				c-0.1-1.7,0-3.4,0-5.1c0-7.1,0-14.2,0-21.3c0-0.6-0.3-1.2-0.4-1.8c-0.4,0.5-0.9,1-1.2,1.6c-3.9,7.5-7.9,15-11.8,22.6
				c-1.1,2.1-2.2,4.5-4.8,4.5s-3.7-2.3-4.8-4.4C34,112,30,104.4,26,96.7c-0.2-0.5-0.7-0.8-1-1.2c-0.2,0.6-0.5,1.1-0.5,1.7
				c0,8.4,0,16.8,0,25.2c0,1.5,0.2,2.9-1.4,4.1c-2,1.5-3.7,1.5-4.7-0.7c-0.5-1.1-0.6-2.5-0.6-3.7c0-12.9,0-25.9,0-38.8
				c0-0.8,0-1.7,0.2-2.5c0.8-3,2.9-3.5,5.1-1.2c0.9,1,1.8,2.1,2.4,3.3c5.4,10.3,10.8,20.6,16.1,30.8c0.3,0.6,0.8,1.1,1.2,1.7
				c0.4-0.6,0.8-1.1,1.1-1.8c4.3-8.2,8.5-16.5,12.9-24.7c1.7-3.2,3.8-6.2,5.7-9.3c1.2-2,2.3-2.1,3.9-0.5c1.2,1.2,1.5,2.5,1.5,4.2
				C67.6,89.6,67.6,96.1,67.6,102.6z"/>
			<path class="st1" d="M156.4,77.1c14.5-0.1,25.4,11.8,25.7,25.2c0.3,14-11.2,25.7-25.1,25.8c-14.1,0.1-26.1-11.5-25.9-25.5
				C131.2,88.6,142.8,77.2,156.4,77.1z M175.5,102.7c0.6-11.2-9-19.1-18.8-19.1s-19.4,7.8-19,19.2c0.4,11.8,6.9,18.3,19,18.8
				C166.5,122.1,176.2,112.8,175.5,102.7z"/>
			<path class="st1" d="M125,102.8c-0.1,14-11.5,25.1-25.6,25.4C86.6,128.5,73.6,115,74,102.5c0.4-13.4,11.7-25.7,25.9-25.4
				C115.4,77.3,125.5,90.6,125,102.8z M99.5,121.6c8.7,0.4,19.3-6.4,19.3-19c0-10.7-7.8-19-18.9-19c-11.2,0.1-19.1,6.5-19.2,19
				C80.6,114.3,88,121.1,99.5,121.6z"/>
		</g>
	</g>
</g>
</svg>
