<?xml version="1.0" encoding="utf-8"?>
<!-- Generator: Adobe Illustrator 22.0.1, SVG Export Plug-In . SVG Version: 6.00 Build 0)  -->
<svg version="1.1"
	 id="svg2985" inkscape:version="0.48.5 r10040" sodipodi:docname="NBC-News-Radio-Logo-Stacked.png" xmlns:cc="http://creativecommons.org/ns#" xmlns:dc="http://purl.org/dc/elements/1.1/" xmlns:inkscape="http://www.inkscape.org/namespaces/inkscape" xmlns:rdf="http://www.w3.org/1999/02/22-rdf-syntax-ns#" xmlns:sodipodi="http://sodipodi.sourceforge.net/DTD/sodipodi-0.dtd" xmlns:svg="http://www.w3.org/2000/svg"
	 xmlns="http://www.w3.org/2000/svg" xmlns:xlink="http://www.w3.org/1999/xlink" x="0px" y="0px" viewBox="0 0 1026.5 598.9"
	 style="enable-background:new 0 0 1026.5 598.9;" xml:space="preserve">
<style type="text/css">
	.st0{fill:#E0E0E0;}
	.st1{fill:#F37022;}
	.st2{fill:#C8234B;}
	.st3{fill:#6361AC;}
	.st4{fill:#0089D1;}
	.st5{fill:#21B24B;}
	.st6{fill:#FDB813;}
</style>
<sodipodi:namedview  bordercolor="#666666" borderopacity="1" fit-margin-bottom="0" fit-margin-left="0" fit-margin-right="0" fit-margin-top="0" gridtolerance="10" guidetolerance="10" id="namedview2987" inkscape:current-layer="svg2985" inkscape:cx="-1000.2538" inkscape:cy="161.35517" inkscape:pageopacity="0" inkscape:pageshadow="2" inkscape:window-height="706" inkscape:window-maximized="1" inkscape:window-width="1366" inkscape:window-x="-8" inkscape:window-y="-8" inkscape:zoom="0.42314995" objecttolerance="10" pagecolor="#ffffff" showgrid="false">
	</sodipodi:namedview>
<path id="path3212" inkscape:connector-curvature="0" class="st0" d="M510,77.5C494.1,37.9,455.4-4.7,382.8,1.1
	c-92.4,10-121.2,98.2-107.3,150.8c-36.8-24.8-99.4-35.7-154.1,10.9c-70.5,70.4-32.8,165.6,6,188.4C84.7,347.2,17.2,376,2.2,451.2
	c-15.9,93.4,55.6,147.8,125.2,147.8h772.1c80.5,0,125.2-69.3,120.2-134.7c-7.9-85.3-86.4-118.1-129.1-111.1
	c35.8-19.9,83.5-113.1,10.9-186.4c-57.6-54.6-131.1-34.7-156.9-10.9C758.5,110.2,735.7,16,642.2,1.1C635.7,0.4,629.5,0,623.6,0
	C552.2,0,520.1,51.9,510,77.5"/>
<path id="path3214" inkscape:connector-curvature="0" class="st1" d="M134.4,177.6c-40.8,36.7-55.6,120,17.9,168.6l293.2,200.2
	L303.3,222.3C273.5,145.8,192,129.1,134.4,177.6"/>
<path id="path3216" inkscape:connector-curvature="0" class="st2" d="M386.7,20c-47.7,1-119.2,57.4-87.4,143.7l147,345.1l51.7-363
	C510,55.6,441.4,14,386.7,20"/>
<path id="path3218" inkscape:connector-curvature="0" class="st3" d="M521,132h27.8c0,0,14.8,0,16.9,7c-10.9,8.9-40.7,10-36.8,57.5
	l46.7,312.3l146-346C751.5,85.5,688.8,21,633.2,19c-2.6-0.2-5.2-0.3-7.9-0.3C575.4,18.7,518.2,54.8,521,132"/>
<path id="path3220" inkscape:connector-curvature="0" class="st4" d="M715.7,225.2L577.6,545.4l293.1-201.2
	c67.6-47.7,56.7-123.9,18.8-161.6c-15.9-17.7-45-31.4-75.8-31.4C777.3,151.1,738.3,170.3,715.7,225.2"/>
<path id="path3222" inkscape:connector-curvature="0" class="st5" d="M837.9,389.8L562.7,581.1h338.9c69.5,0,114.2-71.4,94.3-136.8
	c-13.3-41.2-52.7-73.5-98.3-73.5C878.3,370.8,857.9,376.5,837.9,389.8"/>
<path id="path3224" inkscape:connector-curvature="0" class="st6" d="M126.5,581.1h333.9L185.1,389.8
	c-63.6-40.7-135.1-16.9-160.9,50.6C2.2,517.7,56.9,581.1,126.5,581.1"/>
</svg>
