<?xml version="1.0" encoding="utf-8"?>
<!-- Generator: Adobe Illustrator 22.0.1, SVG Export Plug-In . SVG Version: 6.00 Build 0)  -->
<svg version="1.1"
	 id="svg2985" inkscape:version="0.48.5 r10040" sodipodi:docname="NBC-News-Radio-Logo-Stacked.png" xmlns:cc="http://creativecommons.org/ns#" xmlns:dc="http://purl.org/dc/elements/1.1/" xmlns:inkscape="http://www.inkscape.org/namespaces/inkscape" xmlns:rdf="http://www.w3.org/1999/02/22-rdf-syntax-ns#" xmlns:sodipodi="http://sodipodi.sourceforge.net/DTD/sodipodi-0.dtd" xmlns:svg="http://www.w3.org/2000/svg"
	 xmlns="http://www.w3.org/2000/svg" xmlns:xlink="http://www.w3.org/1999/xlink" x="0px" y="0px" viewBox="0 0 1027.1 598.9"
	 style="enable-background:new 0 0 1027.1 598.9;" xml:space="preserve">
<style type="text/css">
	.st0{fill:#F37022;}
	.st1{fill:#C8234B;}
	.st2{fill:#6361AC;}
	.st3{fill:#0089D1;}
	.st4{fill:#21B24B;}
	.st5{fill:#FDB813;}
</style>
<sodipodi:namedview  bordercolor="#666666" borderopacity="1" fit-margin-bottom="0" fit-margin-left="0" fit-margin-right="0" fit-margin-top="0" gridtolerance="10" guidetolerance="10" id="namedview2987" inkscape:current-layer="svg2985" inkscape:cx="-1000.2538" inkscape:cy="161.35517" inkscape:pageopacity="0" inkscape:pageshadow="2" inkscape:window-height="706" inkscape:window-maximized="1" inkscape:window-width="1366" inkscape:window-x="-8" inkscape:window-y="-8" inkscape:zoom="0.42314995" objecttolerance="10" pagecolor="#ffffff" showgrid="false">
	</sodipodi:namedview>
<path id="path3214" inkscape:connector-curvature="0" class="st0" d="M138,177.2c-40.8,36.7-55.6,120,17.9,168.6L449,546
	L306.9,221.9C277.1,145.4,195.6,128.7,138,177.2"/>
<path id="path3216" inkscape:connector-curvature="0" class="st1" d="M390.3,19.6c-47.7,1-119.2,57.5-87.4,143.7l147,345.1l51.7-363
	C513.6,55.2,445,13.6,390.3,19.6"/>
<path id="path3218" inkscape:connector-curvature="0" class="st2" d="M524.6,131.6h27.8c0,0,14.8,0,16.9,7
	c-10.9,8.9-40.7,10-36.8,57.5l46.7,312.3l146-346c29.9-77.3-32.8-141.8-88.4-143.7c-2.6-0.2-5.2-0.3-7.9-0.3
	C579,18.2,521.8,54.4,524.6,131.6"/>
<path id="path3220" inkscape:connector-curvature="0" class="st3" d="M719.4,224.8L581.3,545l293.1-201.2
	c67.6-47.7,56.7-123.9,18.8-161.6c-15.9-17.7-45-31.4-75.8-31.4C781,150.7,742,169.9,719.4,224.8"/>
<path id="path3222" inkscape:connector-curvature="0" class="st4" d="M841.5,389.4L566.3,580.7h338.9c69.5,0,114.2-71.4,94.3-136.8
	c-13.3-41.2-52.7-73.5-98.3-73.5C882,370.4,861.6,376.1,841.5,389.4"/>
<path id="path3224" inkscape:connector-curvature="0" class="st5" d="M130.1,580.7H464L188.7,389.4C125.1,348.7,53.6,372.5,27.7,440
	C5.9,517.2,60.5,580.7,130.1,580.7"/>
</svg>
