<svg id="Layer_1" data-name="Layer 1" xmlns="http://www.w3.org/2000/svg" viewBox="0 0 492.41 217.5"><defs><style>.cls-1{fill:#fbd13d;}.cls-2{fill:#fad13d;}.cls-3{fill:#fefefe;}.cls-4{fill:#fcfcfc;}.cls-5{fill:#25140e;}.cls-6{fill:#24150c;}.cls-7{fill:#fefdfd;}.cls-8{fill:#25150e;}</style></defs><title>nerf-words</title><path class="cls-1" d="M37.54,91.7c.37-2.46.43-2.51,2.65-3,11.3-2.37,22.59-4.77,33.9-7.12A43.49,43.49,0,0,1,78.65,81a5.29,5.29,0,0,1,5.13,2.48C85,85.16,86,86.93,87.09,88.73q13.29,22.71,26.54,45.45l.59,1c.16-.37.3-.64.39-.92q8.58-26.07,17.12-52.17a24.05,24.05,0,0,0,1.1-6.08c.11-2.13-.93-3-3.11-3.25l-1.47-.19c.39-2.38.39-2.41,2.61-2.87,10.81-2.28,21.62-4.57,32.44-6.8a22.2,22.2,0,0,1,4.46-.37c2.24,0,3.29,1.28,2.69,3.43-1,3.67-2.2,7.3-3.39,10.92q-18.57,56.8-37.14,113.61a1.81,1.81,0,0,1-1.57,1.43c-6.6,1.29-13.19,2.67-19.79,4a6.81,6.81,0,0,1-7.39-3c-1.36-2-2.62-4.05-3.83-6.13q-15.56-26.81-31.09-53.62c-.2-.34-.44-.67-.76-1.18-1.55,4.71-3,9.23-4.51,13.74q-8.64,26.32-17.27,52.65a17.11,17.11,0,0,0-.83,4.25c-.14,2.52.64,3.37,3.09,3.82.53.1,1.06.14,1.6.21-.42,2.44-.42,2.44-2.52,2.88-10.2,2.14-20.4,4.32-30.61,6.39a34.26,34.26,0,0,1-6.31.63c-2.37,0-3.65-1.42-3.13-3.73.73-3.27,1.7-6.5,2.74-9.69Q24.41,152,41.12,100.9a29.7,29.7,0,0,0,1.07-4.35c.5-3.1-.71-4.57-3.81-4.81Z" transform="translate(-1.33 -6.65)"/><path class="cls-2" d="M337.11,97.49l11.1,19.34,1.31,2.26c1.25,2.15,2.77,2.92,5.19,2.52,2.74-.46,5.47-1,8.32-1.53-.07.29-.11.59-.21.88-1.14,3.46-2.42,6.89-3.41,10.4a10.39,10.39,0,0,1-8.45,7.85c-6.71,1.42-13.41,2.83-20.13,4.16a11.8,11.8,0,0,1-3.61.06,5.67,5.67,0,0,1-4.61-3.75c-1.69-3.75-3.34-7.51-5-11.27-3.45-7.83-6.91-15.65-10.32-23.49a1.24,1.24,0,0,0-1.69-.87q-4.49,1-9,1.91a1.47,1.47,0,0,0-1.27,1.12q-6.06,18.58-12.17,37.15a17,17,0,0,0-.69,3.16c-.27,2.35.56,3.32,2.9,3.56.28,0,.58,0,.87.06a2.55,2.55,0,0,1-2.38,2.48c-9.81,2-19.59,4.08-29.39,6.1a19.39,19.39,0,0,1-3.72.37c-1.71,0-2.65-1-2.23-2.64,1-3.73,2-7.44,3.19-11.1q13.06-40,26.21-80a18.63,18.63,0,0,0,.93-4.36c.17-2.22-.48-2.88-2.66-3.28l-1.08-.19a2.19,2.19,0,0,1,2.07-2.29c23.13-4.83,46.24-9.75,69.37-14.59,5.54-1.16,11.13-2.17,16.82-1.78a21.81,21.81,0,0,1,5.72,1.12c4.92,1.7,7.53,5.52,7.77,10.79.44,9.35-2.83,17.5-7.93,25.1-6.45,9.62-15.61,15.46-26.44,19Zm-36.49-7a5.78,5.78,0,0,0,.85-.07q6.46-1.35,12.91-2.73c6.61-1.4,13.21-2.83,19.17-6.23,4-2.29,7.35-5.25,8.89-9.69a27,27,0,0,0,1.31-7.15c.2-3-1.05-4.73-3.44-5.32a8.05,8.05,0,0,0-2.7-.31c-3.41.36-6.84.68-10.2,1.33-5.69,1.08-11.33,2.43-17,3.57a1.74,1.74,0,0,0-1.55,1.38C306.14,73.67,303.4,82,300.62,90.52Z" transform="translate(-1.33 -6.65)"/><path class="cls-2" d="M177,78.94c0-1.62.86-2.12,2.28-2.41q26.31-5.36,52.59-10.82l28.31-5.87a2.6,2.6,0,0,1,.5,0c-1.43,4.4-2.39,8.88-4.85,12.79a9.57,9.57,0,0,1-6.32,4.12c-5.38,1.23-10.79,2.37-16.2,3.48-7.12,1.46-14.25,2.85-21.37,4.31a1.46,1.46,0,0,0-1,.75c-2.47,7.43-4.89,14.88-7.38,22.49l42.9-9.31c-.18.59-.29,1-.45,1.48-1.11,3.17-2.42,6.29-3.32,9.52-1.17,4.26-4,6.39-8.11,7.3q-13.92,3.08-27.83,6.23c-1.09.25-2.16.61-3.23,1a11.41,11.41,0,0,0-7.78,7.78c-2.69,8.28-5.42,16.56-8.19,25,.41-.07.7-.1,1-.16Q210,152,231.43,147.47a76.33,76.33,0,0,0,7.43-2.05,12,12,0,0,0,6.12-4.34,4.22,4.22,0,0,1,3.53-1.66c-.12.44-.2.82-.32,1.19-1.36,4.27-3,8.48-4,12.82-1.51,6.2-5.43,9.31-11.48,10.56-19.45,4-38.86,8.16-58.28,12.26q-9.75,2.06-19.51,4.08a7.84,7.84,0,0,1-1.36.14c-2.74,0-3.78-1.08-3-3.72,1.37-4.83,2.93-9.6,4.49-14.37q12.36-37.8,24.76-75.6a26.08,26.08,0,0,0,1-4c.34-2.24-.54-3.36-2.76-3.73C177.65,79,177.32,79,177,78.94Z" transform="translate(-1.33 -6.65)"/><path class="cls-2" d="M485.72,12.23c-1.35,4.08-2.54,8-4,11.91a6.77,6.77,0,0,1-4.63,4.08c-3.82,1.12-7.68,2.14-11.56,3-13,2.82-26.09,5.52-39.13,8.31a1.4,1.4,0,0,0-.92.79q-3.63,11-7.19,22a3.37,3.37,0,0,0-.05.55l50.65-10.67c-.24.82-.42,1.48-.63,2.13-1,3.08-2,6.14-2.93,9.26a8.12,8.12,0,0,1-6.23,6.14c-4.81,1.16-9.64,2.21-14.46,3.26-8.08,1.75-16.17,3.46-24.24,5.24a19.79,19.79,0,0,0-3.63,1.27,11.28,11.28,0,0,0-6.52,7.14q-5.34,16.53-10.7,33.05a24.87,24.87,0,0,0-.88,3.11c-.38,2,.44,3.17,2.46,3.57.45.08.9.12,1.28.17,0,1.56-.79,2.12-2.23,2.41-9.88,2-19.75,4.16-29.64,6.19a11.34,11.34,0,0,1-3.81.11c-1.64-.22-2.25-1.16-1.81-2.77q1.28-4.68,2.79-9.29Q381,82.51,394.3,41.86a19.3,19.3,0,0,0,1-4.35c.21-2.36-.56-3.16-2.89-3.49-.28-.05-.57-.07-.85-.1a2.15,2.15,0,0,1,2-2.34C410,28.17,426.49,24.68,443,21.21q21-4.42,42.06-8.88Z" transform="translate(-1.33 -6.65)"/><path class="cls-3" d="M377.21,66.46v.69l-.24-.06c.09-.2.18-.41.26-.61Z" transform="translate(-1.33 -6.65)"/><path class="cls-4" d="M372.66,79.91l.12-.41.15,0,0,.58Z" transform="translate(-1.33 -6.65)"/><path class="cls-5" d="M484.75,45l-.26-.26Z" transform="translate(-1.33 -6.65)"/><path class="cls-5" d="M484.5,44.72l-.26-.38Z" transform="translate(-1.33 -6.65)"/><path class="cls-6" d="M300.62,90.52c2.78-8.5,5.52-16.85,8.23-25.22a1.74,1.74,0,0,1,1.55-1.38c5.68-1.14,11.32-2.49,17-3.57,3.36-.65,6.79-1,10.2-1.33a8.05,8.05,0,0,1,2.7.31c2.39.59,3.64,2.28,3.44,5.32a27,27,0,0,1-1.31,7.15c-1.54,4.44-4.87,7.4-8.89,9.69-6,3.4-12.56,4.83-19.17,6.23q-6.45,1.38-12.91,2.73A5.78,5.78,0,0,1,300.62,90.52Zm9.58-6.2c.5-.17.72-.27.95-.32,4.79-1.18,9.66-2.12,14.36-3.59,4.54-1.42,8.81-3.53,11.68-7.63a12,12,0,0,0,2.17-6.39c-1.89.25-3.64.4-5.35.73-5.55,1.09-11.08,2.33-16.64,3.33-2.15.38-3.59,1.14-3.79,3.48a5.13,5.13,0,0,1-.36,1Z" transform="translate(-1.33 -6.65)"/><path class="cls-7" d="M310.2,84.32l3-9.35a5.13,5.13,0,0,0,.36-1c.2-2.34,1.64-3.1,3.79-3.48,5.56-1,11.09-2.24,16.64-3.33,1.71-.33,3.46-.48,5.35-.73a12,12,0,0,1-2.17,6.39c-2.87,4.1-7.14,6.21-11.68,7.63-4.7,1.47-9.57,2.41-14.36,3.59C310.92,84.05,310.7,84.15,310.2,84.32Z" transform="translate(-1.33 -6.65)"/><path class="cls-8" d="M386.17,36.41l2.17-7A1.74,1.74,0,0,1,389.85,28c3.09-.62,6.18-1.28,9.27-1.93l43-9.08c3.44-.73,6.88-1.52,10.32-2.27a4.53,4.53,0,0,0,.74,0q12-2.52,24-5.07,6.9-1.45,13.8-2.89c.3-.06.81-.15.91,0a17.07,17.07,0,0,1,1.79,3c.18.42-.17,1.1-.34,1.64-1.26,4.1-2.56,8.19-3.78,12.3-1.15,3.85-2.31,7.68-5.75,10.23-2.49,1-4.93,2.2-7.49,3a69.43,69.43,0,0,1-6.92,1.58q-18.65,3.94-37.32,7.84a1.8,1.8,0,0,0-1.55,1.46c-.74,2.47-1.59,4.9-2.39,7.35-.13.4-.23.82-.39,1.37l47.43-10a18.57,18.57,0,0,0,1.08,1.71,3.23,3.23,0,0,1,.4,3.35q-2.78,8.28-5.31,16.63A12,12,0,0,1,462.75,77c-3.87,1.09-7.82,1.92-11.76,2.77-7.1,1.55-14.21,3-21.33,4.55-2,.43-4.06.83-6.07,1.3a9.84,9.84,0,0,0-7.9,7.34c-2.74,9.25-5.88,18.39-8.85,27.58-.18.56-.25,1.16-.38,1.74,1.61-.1,2.39.86,3.1,2.14a3.06,3.06,0,0,1,.32,2.77c-.86,2.42-1.58,4.9-2.32,7.36a1.55,1.55,0,0,1-1.34,1.23c-7.31,1.51-14.61,3.07-21.92,4.61-3.65.78-7.29,1.62-11,2.31s-7.07.82-9.7-2.54c-2.3,4-6.05,5.71-10.27,6.67-3.2.72-6.39,1.47-9.61,2.09-4.11.8-8.22,1.68-12.38,2.17a9.31,9.31,0,0,1-9.35-4,44.1,44.1,0,0,1-3.66-6.35c-4.11-9.11-8.1-18.27-12.11-27.42-.35-.8-.69-1.21-1.65-.86a10.18,10.18,0,0,1-2.67.57c-.89.06-1.16.53-1.4,1.27-2.29,7-4.61,14-6.91,21q-1.87,5.72-3.73,11.45c2.87.29,2.84.31,4.24,2.57a1.76,1.76,0,0,1,.16,1.83c-1.16,2.71-2.24,5.45-3.42,8.14a2,2,0,0,1-1.17,1c-2.5.61-5,1.12-7.54,1.65-8.78,1.84-17.54,3.73-26.33,5.46-3.19.63-6.35.52-8.68-2.48-2.45,3.56-6,5.24-10,6.12-10.86,2.41-21.74,4.71-32.61,7-14.82,3.15-29.63,6.3-44.47,9.36a21.47,21.47,0,0,1-6.53.45,5.93,5.93,0,0,1-3.9-2.1c-1.4-2-3.21-3.94-3.56-6.56a5,5,0,0,1,0-1.49,29,29,0,0,1,.84-4.27Q159,136.2,171.25,99.06c1.36-4.16,2.71-8.33,4.12-12.63-1.48.16-2.77.07-3.26-1.67a3.54,3.54,0,0,0-.25.46q-12.41,37.94-24.8,75.87-6,18.25-12,36.5c-.14.43-.56,1-.93,1.09-7.68,1.6-15.35,3.24-23.06,4.64a10.44,10.44,0,0,1-10.86-4,57.09,57.09,0,0,1-3.88-5.65q-13.55-23.25-27-46.54c-.23-.41-.49-.8-.83-1.35L49.54,203.42a2.13,2.13,0,0,0,.36.14c1,.05,2.07.12,3.12.16a2.24,2.24,0,0,1,2.11,2.93c-.85,2.73-1.74,5.45-2.55,8.19A1.78,1.78,0,0,1,51,216.26c-8.13,1.67-16.23,3.45-24.37,5.1-4.83,1-9.68,2-14.56,2.67-3.2.45-6.29-.17-8.27-3.16-.92-1.4-1.66-2.92-2.48-4.38v-4c1.37-4.32,2.72-8.66,4.13-13q16.08-49.21,32.2-98.42c.19-.59.35-1.18.57-2-1.15,0-2.15,0-3.15,0-2.14-.1-3-1.4-2.34-3.46.82-2.61,1.67-5.21,2.43-7.84a1.61,1.61,0,0,1,1.42-1.27C45,84.82,53.48,83,61.93,81.26c4.59-1,9.17-2,13.78-2.83a21.32,21.32,0,0,1,5.58-.31,9,9,0,0,1,6.84,4.53c3.21,5,6.31,10.16,9.34,15.31,5.28,8.94,10.48,17.93,15.71,26.9.18.31.39.62.72,1.16L129,80c-1.43,0-2.65,0-3.87,0a2.36,2.36,0,0,1-2-2.7c.91-2.93,1.82-5.86,2.8-8.76a1.69,1.69,0,0,1,1-1q17.71-3.78,35.45-7.46a18.16,18.16,0,0,1,7.8-.35,6.36,6.36,0,0,1,4.39,3.2c.63,1.15,1.65,2.25,1.81,3.47a42.22,42.22,0,0,1-.05,6.35c1.18-.23,2.71-.5,4.22-.82l61.57-12.73Q254,56.78,265.75,54.3a1.4,1.4,0,0,1,1.61.69,4.88,4.88,0,0,1,.66,5.15c-1.56,4.41-2.89,8.9-4.35,13.35-2,6.07-6.19,9.69-12.4,11q-11.45,2.4-22.91,4.75c-3.78.78-7.57,1.5-11.35,2.29a1.21,1.21,0,0,0-.79.63c-1,3-2,6-3,9.12,3-.63,5.8-1.22,8.62-1.83l30.27-6.63a1.28,1.28,0,0,1,1.5.65,4.71,4.71,0,0,1,.58,5.11c-2,5.24-3.9,10.57-5.61,15.94-1.79,5.62-5.75,8.5-11.26,9.72q-13.91,3.1-27.8,6.25c-.89.2-1.76.48-2.63.75a7.32,7.32,0,0,0-5.14,5.12c-1.39,4.47-2.91,8.9-4.37,13.35a4.3,4.3,0,0,0-.08.65l5.28-1.1q14.67-3.12,29.34-6.25c1.25-.27,2.48-.66,3.73-1a11.37,11.37,0,0,0,7.09-4.92,3,3,0,0,1,2.21-1.39c1.71-.28,3.41-.71,5.12-1.05a1.51,1.51,0,0,0,1.32-1.18q7.17-22,14.42-43.94,3.7-11.3,7.38-22.58c.09-.27.15-.55.23-.81-.1-.07-.16-.15-.22-.16-.69-.08-1.65.1-2-.28a12.66,12.66,0,0,1-1.82-2.95c-.14-.26,0-.72.14-1.07.81-2.61,1.67-5.21,2.43-7.84a1.6,1.6,0,0,1,1.4-1.29q12.14-2.51,24.25-5.07,21.62-4.56,43.24-9.12c6.75-1.42,13.49-2.89,20.44-3,4.93,0,9.61.78,13.67,3.78a12.77,12.77,0,0,1,2.38,2.2c4.6,5.7,6.75,12.13,5.61,19.5a14.24,14.24,0,0,0-.08,1.85c-.09.2-.18.4-.26.6l.23.06v-.69c.62-1.72,1.28-3.43,1.85-5.16,1.76-5.31,3.49-10.62,5.2-15.84Zm-7.91,39.77a4,4,0,0,0-.28.4,51.66,51.66,0,0,1-29.63,25.61c-1,.33-1.91.69-2.93,1.07,2.65,4.6,5.19,9.08,7.81,13.51a1.5,1.5,0,0,0,1.27.53q5.38-1,10.74-2.12a1.47,1.47,0,0,0,.85-.89q6.24-19,12.42-37.93l0-.57-.14,0ZM37.54,91.71l.83,0c3.1.24,4.32,1.72,3.81,4.82a27,27,0,0,1-1.07,4.34Q24.43,152,7.73,203c-1,3.19-2,6.42-2.73,9.69-.52,2.32.76,3.77,3.13,3.73a35,35,0,0,0,6.3-.62c10.22-2.08,20.42-4.25,30.62-6.39,2.1-.44,2.1-.44,2.51-2.89-.53-.07-1.06-.11-1.59-.21-2.45-.45-3.23-1.3-3.09-3.81a16.74,16.74,0,0,1,.83-4.26Q52.3,171.94,61,145.63c1.48-4.51,3-9,4.5-13.73.33.5.56.83.76,1.18q15.56,26.8,31.1,53.61c1.21,2.09,2.46,4.15,3.82,6.14a6.82,6.82,0,0,0,7.4,3c6.6-1.28,13.19-2.66,19.79-4a1.78,1.78,0,0,0,1.56-1.43q18.56-56.81,37.15-113.6c1.18-3.63,2.35-7.26,3.38-10.93.6-2.14-.45-3.42-2.68-3.42a22.14,22.14,0,0,0-4.46.37c-10.82,2.22-21.63,4.51-32.44,6.79-2.22.47-2.22.49-2.61,2.87.49.07,1,.14,1.47.19,2.17.24,3.22,1.12,3.1,3.26a23.76,23.76,0,0,1-1.09,6.08q-8.49,26.1-17.12,52.16c-.1.29-.23.55-.39.92-.25-.4-.43-.68-.59-1q-13.27-22.72-26.54-45.45C86,87,85,85.17,83.78,83.46A5.35,5.35,0,0,0,78.64,81a43.87,43.87,0,0,0-4.56.64q-16.95,3.54-33.89,7.12C38,89.21,37.91,89.25,37.54,91.71Zm299.56,5.8c1.84-.61,3.6-1.19,5.37-1.76,10.83-3.51,20-9.34,26.44-19,5.1-7.6,8.36-15.75,7.93-25.09-.24-5.27-2.86-9.09-7.77-10.8a22.21,22.21,0,0,0-5.72-1.11c-5.7-.4-11.29.62-16.82,1.77-23.13,4.84-46.24,9.77-69.38,14.59a2.19,2.19,0,0,0-2.06,2.29l1.08.2c2.17.39,2.82,1,2.66,3.28a18.74,18.74,0,0,1-.93,4.36q-13.09,40-26.22,80c-1.19,3.65-2.22,7.37-3.18,11.09-.43,1.63.51,2.66,2.23,2.64a19.2,19.2,0,0,0,3.71-.36c9.8-2,19.59-4.12,29.4-6.11a2.52,2.52,0,0,0,2.37-2.48c-.29,0-.58,0-.87-.05-2.33-.24-3.17-1.22-2.89-3.57a15.65,15.65,0,0,1,.69-3.16q6.06-18.57,12.17-37.14a1.46,1.46,0,0,1,1.27-1.13c3-.59,6-1.22,9-1.91a1.24,1.24,0,0,1,1.69.87q5.11,11.76,10.31,23.49,2.49,5.64,5,11.27a5.67,5.67,0,0,0,4.61,3.75,12.12,12.12,0,0,0,3.61-.05c6.72-1.34,13.43-2.75,20.13-4.17a10.35,10.35,0,0,0,8.45-7.84c1-3.51,2.27-6.94,3.42-10.41.09-.28.13-.58.2-.88-2.84.53-5.57,1.07-8.31,1.53-2.43.41-3.94-.37-5.19-2.51-.44-.76-.88-1.51-1.31-2.27C344.52,110.43,340.84,104,337.1,97.51ZM177,79c.35,0,.68.05,1,.11,2.22.37,3.1,1.49,2.75,3.74a25,25,0,0,1-1,4Q167.39,124.6,155,162.4c-1.56,4.77-3.12,9.54-4.5,14.36-.75,2.64.29,3.76,3,3.72a7,7,0,0,0,1.37-.14q9.75-2,19.51-4.08c19.42-4.09,38.83-8.25,58.27-12.26,6.06-1.24,10-4.35,11.49-10.55,1.06-4.35,2.67-8.56,4-12.83.11-.36.2-.74.32-1.19a4.25,4.25,0,0,0-3.54,1.66,12.13,12.13,0,0,1-6.11,4.35c-2.45.78-4.93,1.5-7.44,2q-21.43,4.59-42.9,9.08c-.29.06-.59.1-1,.16,2.77-8.45,5.5-16.72,8.2-25a11.38,11.38,0,0,1,7.78-7.77c1.07-.34,2.13-.7,3.22-1q13.92-3.15,27.84-6.24c4.11-.9,6.93-3,8.11-7.3.89-3.23,2.2-6.34,3.32-9.51.16-.44.27-.9.45-1.49l-42.9,9.31c2.48-7.61,4.91-15.06,7.38-22.49a1.47,1.47,0,0,1,1-.75c7.13-1.45,14.26-2.84,21.38-4.3,5.41-1.11,10.81-2.26,16.19-3.49a9.61,9.61,0,0,0,6.33-4.11c2.46-3.92,3.41-8.39,4.85-12.79a4.89,4.89,0,0,0-.51,0l-28.3,5.87q-26.29,5.43-52.6,10.82C177.82,76.83,176.94,77.34,177,79ZM485.71,12.25c-.39.05-.55.06-.7.09L443,21.23c-16.46,3.47-32.92,7-49.39,10.36a2.17,2.17,0,0,0-2,2.34l.86.1c2.32.33,3.09,1.14,2.89,3.49a19.86,19.86,0,0,1-1,4.35Q381,82.54,367.73,123.19c-1,3.07-1.94,6.17-2.78,9.3-.44,1.6.17,2.54,1.8,2.76a11.39,11.39,0,0,0,3.82-.1c9.89-2,19.75-4.17,29.64-6.19,1.44-.3,2.26-.86,2.23-2.41-.39,0-.84-.09-1.28-.18-2-.39-2.85-1.52-2.47-3.56a25.68,25.68,0,0,1,.89-3.11q5.34-16.53,10.7-33a11.31,11.31,0,0,1,6.51-7.15,20.67,20.67,0,0,1,3.64-1.27c8.07-1.78,16.16-3.48,24.23-5.24,4.83-1,9.66-2.1,14.46-3.25a8.16,8.16,0,0,0,6.24-6.15c.88-3.11,1.95-6.17,2.93-9.26.21-.65.39-1.31.62-2.12L418.27,62.87a2.37,2.37,0,0,1,.05-.54c2.38-7.35,4.76-14.69,7.19-22a1.43,1.43,0,0,1,.91-.79c13-2.78,26.1-5.49,39.13-8.3,3.89-.84,7.75-1.86,11.56-3a6.81,6.81,0,0,0,4.64-4.09C483.18,20.28,484.37,16.32,485.71,12.25Z" transform="translate(-1.33 -6.65)"/></svg>