<?xml version="1.0" encoding="utf-8"?>
<!-- Generator: Adobe Illustrator 22.0.1, SVG Export Plug-In . SVG Version: 6.00 Build 0)  -->
<svg version="1.1" id="Layer_1" xmlns="http://www.w3.org/2000/svg" xmlns:xlink="http://www.w3.org/1999/xlink" x="0px" y="0px"
	 viewBox="0 0 350 350" style="enable-background:new 0 0 350 350;" xml:space="preserve">
<style type="text/css">
	.st0{fill:#FFFFFF;}
</style>
<rect width="350" height="350"/>
<g id="cfUzLp.tif">
	<g>
		<path class="st0" d="M315.6,142.5c-13.5,6.1-27,12.1-40.5,18.2c-34.3,15.3-68.6,30.7-103.1,45.8c-22.5,9.9-45.2,19.5-67.9,29
			c-10.6,4.4-21.5,8.1-33,9.6c-5.1,0.7-10.4,0.9-15.4,0.1c-11.6-1.8-20.1-11.9-21.2-23.9c-1.2-12.6,2.9-23.7,9.4-34
			c8.2-13,18.4-24.4,29-35.5c0.4-0.4,1-0.8,1.8-1.5c-1.6,5.2-3.2,9.9-4.5,14.6c-1.4,5.3-1.7,10.7-0.9,16.3
			c1.2,8.8,8.9,18.2,21.3,17.9c5.6-0.2,11.4-0.6,16.8-1.9c31.6-7.7,63.2-15.7,94.8-23.6c1.4-0.4,2.8-0.8,4-2c-7.8,0-15.5,0-23.8,0
			c-0.8-8.2-1.6-16.1-2.4-24c-0.2-0.1-0.5-0.2-0.7-0.3c-3.2,8-6.4,16.1-9.6,24.1c-5.6,0-10.9,0-16.9,0c9.1-22.3,17.9-44.1,27-66.3
			c5.4,0,10.6,0,16.5,0c-2.3,5.6-4.4,11-6.5,16.3c0.1,0.1,0.3,0.2,0.4,0.4c4.6-4.8,9.2-9.6,13.8-14.5c1.6-1.7,3.2-2.6,5.6-2.6
			c14.6,0.1,29.3,0,43.9,0.1c0.9,0,1.9,0.2,3.6,0.5c-1.7,4-3.2,7.6-4.9,11.6c-5.2,0-10.3,0-15.4,0c-1.2,2.6-2.3,4.8-3.3,7.1
			c-0.9,2.1-1.6,4.2-2.7,7.1c5.3,0,9.9,0,15.3,0c-1.8,4.6-3.3,8.4-4.9,12.4c-5.2,0-10.2,0-15.5,0c-1.9,4.9-3.7,9.6-5.8,15
			c6.5,0,12.4,0,18.6,0c-0.2,1.3-0.2,2.1-0.3,2.9c-0.1,0.8-0.4,1.5-0.7,2.8c3.1-0.7,5.6-1.2,8.1-2c21.5-6.2,43.1-12.4,64.6-18.6
			C312,142.9,313.8,142.8,315.6,142.5C315.6,142.6,315.6,142.5,315.6,142.5z M223.7,107.1c-0.3-0.2-0.5-0.3-0.8-0.5
			c-9,9.9-18,19.8-26.9,29.8c-0.6,0.7-0.7,2.1-0.6,3.2c0.4,5.1,0.9,10.3,1.4,15.4c0.4,4,1,8.1,1.5,12.1c0.3,0,0.6,0.1,1,0.1
			C207.4,147.1,215.5,127.1,223.7,107.1z"/>
		<path class="st0" d="M103.4,105.1c5.6,0,11.3,0,17.4,0c0,8,0,15.8,0,23.6c0.3,0.1,0.7,0.2,1,0.3c3.3-7.9,6.6-15.8,10-23.9
			c5.3,0,10.4,0,16.4,0c-9,22.4-17.8,44.2-26.6,66.1c-5.6,0-11,0-17.1,0c-0.5-8.8,0.1-17.7-1-26.9c-3.7,9-7.4,18-11.2,27.1
			c-5.3,0-10.4,0-15.5,0C77.1,167.5,98.9,113.2,103.4,105.1z"/>
		<path class="st0" d="M155.7,105.1c5.8,0,11.1,0,16.9,0c-9.1,22.4-18,44.3-26.9,66.3c-5.5,0-10.6,0-16.5,0
			c3.9-11.6,8.8-22.4,13.2-33.3C146.7,127.1,151.2,116.3,155.7,105.1z"/>
		<polygon class="st0" points="315.6,142.6 315.7,142.3 315.6,142.5 		"/>
	</g>
</g>
</svg>
