<?xml version="1.0" encoding="utf-8"?>
<!-- Generator: Adobe Illustrator 22.0.1, SVG Export Plug-In . SVG Version: 6.00 Build 0)  -->
<svg version="1.1" id="Layer_1" xmlns="http://www.w3.org/2000/svg" xmlns:xlink="http://www.w3.org/1999/xlink" x="0px" y="0px"
	 viewBox="0 0 300 150" style="enable-background:new 0 0 300 150;" xml:space="preserve">
<style type="text/css">
	.st0{fill:#1EC0DC;}
	.st1{fill:#22C1DC;}
	.st2{fill:#20C1DC;}
</style>
<g>
	<path class="st0" d="M15,74.5C14.9,46.2,37.6,24,66.4,24C95.6,24,118,46.3,118,75.5c0,28.2-22.8,50.5-51.5,50.5
		C37.2,126,15,103.7,15,74.5z M90,75.5c0-14-10.1-24.4-23.6-24.3c-13.3,0.1-23.4,10.2-23.4,23.4c0,14.2,9.7,24.3,23.5,24.2
		C79.7,98.7,90,88.5,90,75.5z"/>
	<path class="st1" d="M224.2,111.5c-1.2,3.9-2.4,7.8-3.7,12c-9.8,0-19.5,0-30,0c10.4-32.6,20.6-64.6,30.9-96.9c10.8,0,21.4,0,32.7,0
		c10.2,31.9,20.5,64.1,30.9,96.8c-10.1,0-19.8,0-29.9,0c-1.2-3.8-2.4-7.7-3.7-11.9C242.4,111.5,233.5,111.5,224.2,111.5z
		 M245.8,88.7c-2.6-9.5-5-18.4-7.5-27.4c-0.4,0.1-0.7,0.1-1.1,0.2c-2.4,8.9-4.8,17.9-7.3,27.2C235.2,88.7,240.2,88.7,245.8,88.7z"/>
	<path class="st2" d="M198.8,26.6c0,8.8,0,17.3,0,26.4c-13.9,0-27.5,0-41.5,0c0,4.4,0,8.2,0,12.6c10.7,0,21.4,0,32.4,0
		c0,9.4,0,18.1,0,27.2c-10.8,0-21.4,0-32.5,0c0,10.3,0,20.2,0,30.6c-9.6,0-18.6,0-27.9,0c0-32.2,0-64.3,0-96.8
		C152.3,26.6,175.3,26.6,198.8,26.6z"/>
</g>
</svg>
