<?xml version="1.0" encoding="utf-8"?>
<!-- Generator: Adobe Illustrator 22.0.1, SVG Export Plug-In . SVG Version: 6.00 Build 0)  -->
<svg version="1.1" id="Layer_1" xmlns="http://www.w3.org/2000/svg" xmlns:xlink="http://www.w3.org/1999/xlink" x="0px" y="0px"
	 viewBox="0 0 612 212.3" style="enable-background:new 0 0 612 212.3;" xml:space="preserve">
<style type="text/css">
	.st0{fill:#1357A1;}
	.st1{fill:#FFFFFF;stroke:#1357A1;stroke-width:3;stroke-miterlimit:10;}
</style>
<path class="st0" d="M-371.1-970.5c-0.3-0.3-0.7-0.5-1-0.8C-371.8-971-371.5-970.8-371.1-970.5
	C-371.2-970.5-371.1-970.5-371.1-970.5z"/>
<path class="st0" d="M529.7,93.6c-0.5-1-1.4-1.9-2.5-2.4c-0.3-0.9-1-1.7-1.8-2.2c2.7-5.7,1.5-12-2.8-16.8c-1.8-2.1-5.2-1.8-7.1,0
	c-0.5,0.5-1,0.9-1.5,1.4c-0.4,0-0.9,0-1.3,0c-2.1,0.3-4.1,0.6-6.2,0.9c0.7-3-1.5-5.8-4.8-6.1c-3.7-0.3-7.2,0-10.7,1
	c-0.6-1.9-2.2-3.5-4.7-3.7c-2.4-0.2-4.8-0.3-7.2-0.5c1.2-2.7,0.3-6.4-3.1-6.9c-9.3-1.4-18.7-2.3-28-2.7c-0.5-1.2-1.5-2.1-3.1-2.4
	c-3.3-0.7-6.7-1.2-10.1-1.6c-0.4-5.2-7.8-5.4-9.6-0.9c-5.8-0.3-11.7-0.3-17.5,0.1c-1.5-0.7-3.4-0.9-4.9,0.1
	c-0.1,0.1-0.3,0.2-0.4,0.3c-0.1,0-0.1,0.1-0.2,0.1c-7,0.8-13.9,2.1-20.7,3.9c-0.1,0-0.1,0-0.2,0c-17,0-34,0.9-50.9,2.7
	c-8.2,0.9-16.3,1.9-24.4,3.2c-0.1-2.4-1.7-4.7-4.8-4.7c-4.4-0.1-8.7,0-13.1,0.3l-25.1,0.6c-2.1-0.9-4.4-1.4-6.9-1.5
	c-10.1-0.3-20.6,2-30,5.3c-5.1,1.8-10,4-14.7,6.7c-1.3,0.7-2.7,1.5-3.9,2.4c-2.8,0.2-5.6,0.4-8.3,0.6c-1.1-0.8-2.5-1.1-4-0.9
	c-0.5-1.9-2.4-3-4.4-3.2c1.5-4.6-4.6-9.6-8.2-5.3c-1.9,2.3-3.8,4.6-5.6,6.9c-0.7-0.2-1.5-0.2-2.2-0.1c-4.7,0.9-8.9,2.8-12.5,5.4
	c-0.2-0.2-0.3-0.5-0.5-0.7c-1.1-3.4-6.6-5.2-9.2-1.2c-0.3,0.4-0.5,0.9-0.8,1.3c-1.8-1-4.2-1.1-5.9,0.7c-0.8,0.8-1.6,1.6-2.4,2.5
	c-0.7-0.3-1.5-0.5-2.4-0.5c1.4-2.3,2.8-4.5,4.2-6.8c3-4.7-4.3-10.6-7.9-6.1c-0.3,0.3-0.5,0.7-0.8,1c0,0,0,0,0,0
	c0,0.1-0.1,0.1-0.1,0.2c-1.5,2-3,4-4.3,6c-0.1-0.1-0.2-0.3-0.3-0.4c-1.2-3.4-6.4-4.9-9.1-1c0,0,0,0.1-0.1,0.1
	c-5.3,0.5-10.6,1.3-15.6,2.9c-4.2,1.3-7.3,2.5-14.4,6.2c-2.6,1.4-1.4,3.8-3,6.5c-4.6,7.3-5.5,16.5-6.3,24.8
	c-1,10.2-0.9,20.5,0.3,30.7c0.5,4.2,4.7,6.1,7.8,4c1.4,3.6,7.7,4.1,9.7-0.6c0-0.1,0.1-0.2,0.1-0.3c1,0.5,2.1,0.6,3.2,0.4
	c0.4,3,4.2,4.9,7.1,3.8c-1.5,4.7,5.3,7.6,8.5,4.5c4.2-4,8-8.3,11.6-12.8c1.2-1.2,2.2-2.4,3.2-3.7c0.4,0.1,0.8,0.2,1.3,0.2
	c-1,2.1-1.9,4.2-2.8,6.4c-1.7,4.2,3.9,7.7,7.3,5.6c0.4-0.2,0.7-0.5,1.1-0.7c0.8-0.1,1.7-0.5,2.5-1.1c-0.2,0.9-0.4,1.8-0.6,2.7
	c-1,6.3,7.3,8.7,9.6,2.7c0.2-0.5,0.4-1.1,0.6-1.6c0.5-0.3,0.9-0.8,1.3-1.3c1.3-1.8,2.5-3.7,3.8-5.6c-0.2,4.7,6.8,7.8,9.3,2.8
	c0-0.1,0.1-0.1,0.1-0.2c0.6,0.4,1.2,0.6,1.9,0.8c1.4,3.3,6.9,4.5,9,0.7c1.2-2.1,2.4-4.3,3.6-6.4c0.8,0,1.7-0.2,2.5-0.6
	c0,0.2,0.1,0.5,0.1,0.7c-1,5.3-1.7,10.7-1.8,16.2c-0.1,5.3,6.7,6.4,9.3,2.5c4-5.8,7.4-11.9,10.3-18.2c0.9,0.4,1.8,0.5,2.8,0.4
	c-0.4,1.5-0.8,3-1.1,4.5c-1.5,6.3,6.9,8.4,9.5,3c1.2-0.5,2.3-1.4,2.9-3c0.3-0.8,0.6-1.6,1-2.4c0.2,0.2,0.3,0.4,0.5,0.6
	c2.2,2.5,6.5,1.6,8-1.1c0.7,0.4,1.4,0.7,2.2,1.1c2.5,1.2,5.6,0.4,6.9-1.8c0.4,0.2,0.7,0.3,1.1,0.4c-0.2,1.1-0.4,2.3-0.6,3.4
	c-0.7,5,6.6,9.6,9.1,3.9c1.2-2.6,2.3-5.2,3.4-7.9c0.9-0.3,1.8-0.8,2.6-1.6c3.4-0.1,6.9-0.1,10.3,0c0.6,0.1,1.3,0.1,1.9,0
	c2.9,0.1,5.9,0.2,8.8,0.3l1.8,9.2c0.8,3.9,4.5,4.3,7.2,2.7c-0.3,1.4-0.7,2.8-1,4.2c-1.5,6.2,8.1,8.9,9.6,2.7
	c1.4-5.6,2.7-11.2,4.1-16.7c2.3,2,6.1,2.2,7.5-0.6c2.7,1.3,6.5,0.5,7.2-3c0.1-0.4,0.1-0.7,0.2-1.1c0.1,0,0.1,0,0.2,0
	c0,1.2-0.1,2.4-0.1,3.6c-0.2,6.6,9.2,6.2,10,0c0.1-0.4,0.1-0.8,0.2-1.2c1.4,3.8,4.8,6.5,8,9c2.4,1.8,6.9,0,7.3-3
	c0.5-3.3,1-6.7,1.4-10c1.6,1.2,3.8,1.4,5.5,0.6c1.9,2,5.1,2.4,7.1,0.6c1.9,2.2,5.6,2.9,7.5,1c0.3,2,0.8,4,1.3,5.9
	c0.1,0.5,0.3,0.9,0.5,1.3c0.2,5.4,0.4,10.8,0.6,16.3c0.2,6.6,9.2,6.2,10,0c0.7-5.4,1.4-10.8,2.1-16.2c0.8-0.6,1.4-1.4,1.7-2.5
	c1.9,0.8,4.3,0.4,6.1-2c0.3-0.4,0.6-0.8,0.9-1.3c0.2,0,0.4,0,0.7-0.1c4-0.8,7.4-2.4,10.4-4.7c0.1,1.5,0.3,3,0.4,4.6
	c0.3,3.1,3.1,5,5.7,4.9c2.4,1.4,6,1,7.3-1.7c1.7,0.1,3.5,0.1,5.3,0c2,4.2,7.6,3.7,9.4-0.6c0.1-0.2,0.1-0.3,0.2-0.5
	c1-0.2,2-0.4,3-0.6c0.5,2.2,2.1,4.2,4.8,4c1.2-0.1,2.4-0.2,3.6-0.3c1.3,0.8,2.6,1.3,4.1,1.6c-0.1,1.1-0.2,2.2-0.3,3.3
	c-0.3,3.6,2.6,5.1,5.3,4.7c3,1.9,8.5,0.2,8.1-4.1c-0.2-2.3-0.5-4.6-0.7-6.9c0,0,0,0,0.1,0c0.6-0.1,1.3-0.1,1.9-0.2
	c0.4,2,2.1,3.8,4.8,4.1c3.4,0.3,5.8-0.9,7.4-3c0.6-0.1,1.2-0.3,1.9-0.4c2.1-0.3,3.7-2.8,3.7-4.8c0-0.6,0-1.1,0-1.7
	c0.2,0,0.4-0.1,0.6-0.2c2.6-0.9,5.3-2.1,8-3.6c0.6,0.9,1.5,1.6,2.7,1.8c1,0.2,2,0.5,3.1,0.7c5.4,6.2,9.7,9.6,17.7,7.1
	c0.6,0.3,8.9-2.3,8.9-2.3s14.2-6.1,16-7.3c2.6-1.7,3.9-5.4,2.8-7.4c2.7-5,4.5-10.7,5.8-16c0.9-3.6-1.9-6-4.8-6.2
	c0.9-0.3,1.9-0.7,2.8-1C534.6,101.4,533.8,94.7,529.7,93.6z"/>
<path class="st1" d="M431.7,7.2c12.1,0,24.2,0,36.3,0c0.4,0.1,0.7,0.3,1.1,0.3c19,0.5,38,1.9,56.8,4.8c14.2,2.2,28.2,5.1,41.7,10
	c9.5,3.4,18.7,7.6,26.5,14.2c5.3,4.5,9.4,9.7,11.1,16.6c0.3,1.2,0.5,2.4,0.8,3.6c0,1.6,0,3.2,0,4.8c-0.1,0.1-0.2,0.2-0.2,0.4
	c-0.6,5.2-2.5,9.9-5.2,14.4c-4.9,8.2-11.6,14.9-18.9,20.9c-18.6,15.4-39.8,26.5-61.6,36.5c-0.1-0.1-0.1-0.2-0.2-0.2
	c3-3.1,4.6-6.8,4.6-11c0.1-6.5,0.1-13,0.1-19.5c0-0.1-0.1-0.2-0.2-0.2c-7.2,0-14.5,0-21.7,0c0,3,0,5.9,0,9c2.1,0,4.2,0,6.1,0
	c0,3.9,0.1,7.5,0,11.2c0,0.8-0.5,1.7-1.1,2.4c-1.5,2-5,2.7-7.9,1.8c-2.4-0.8-3.7-2.6-3.7-5.5c0-10.1,0-20.3,0-30.4
	c0-4,2.5-6.3,6.4-6.3c3.9,0,6.1,2.3,6.2,6.3c0,1.3,0,2.6,0,4c5.4,0,10.5,0,15.6,0c0-1.9,0.1-3.7,0-5.5c-0.4-7-3.9-11.9-10.6-14.2
	C507,73.2,500,73.2,493,75c-7.3,2-11.9,6.7-12.1,14.4c-0.4,11.2-0.4,22.5-0.1,33.7c0.2,7.4,4.6,11.9,11.6,14.2
	c4.1,1.3,8.2,1.6,12.4,1.4c1.4-0.1,2.9-0.2,4.3-0.3c-0.7,0.5-1.4,0.9-2.1,1.2c-28.9,12.2-58.5,22-88.7,30.3
	c-23,6.4-46.3,12-69.7,16.5c-13.6,2.6-27.2,5.2-40.8,7.4c-15.2,2.4-30.5,4.5-45.8,6.4c-12.8,1.6-25.6,2.8-38.5,3.8
	c-14,1-27.9,1.5-41.9,2.2c-0.3,0-0.6,0.2-0.9,0.3c-12.1,0-24.2,0-36.3,0c-0.4-0.1-0.7-0.3-1.1-0.3c-19-0.5-37.9-1.9-56.7-4.8
	c-14.8-2.3-29.4-5.4-43.5-10.5c-9.1-3.3-17.8-7.4-25.2-13.8c-5.2-4.4-9.3-9.7-11-16.5c-0.3-1.1-0.5-2.2-0.8-3.3c0-1.7,0-3.4,0-5.1
	c0.1-0.1,0.2-0.2,0.2-0.4c0.7-6.2,3.3-11.6,6.6-16.7c5.4-8.1,12.4-14.7,20-20.7c19-15,40.3-26,62.2-35.9c0.3-0.1,0.8-0.1,1.2-0.1
	l0,0c-0.4,0.3-0.8,0.5-1.1,0.9c-2.8,2.8-3.8,6.4-4.1,10.2c-0.4,5.2,0.8,9.9,4.8,13.5c1.8,1.6,3.7,3.1,5.7,4.4c3.9,2.4,8.1,4.6,12,7
	c1.9,1.2,3.8,2.7,5.1,4.5c2.7,3.6,0.7,9-3.4,9.8c-3.9,0.7-8.3-0.6-8-6.4c0.1-1.7,0-3.3,0-5c-5.7,0-11.1,0-16.6,0c0,2,0,4,0,5.9
	c0.1,7.1,4,12.6,10.7,14.9c7.6,2.7,15.4,2.7,23.1,0.2c5.5-1.8,9.3-5.4,10.4-11.3c0.4-1.8,0.4-3.8,0.6-5.7c0.5-6.5-1.9-11.7-7.3-15.3
	c-3.8-2.5-7.8-4.6-11.7-7c-2.4-1.5-4.9-2.9-7.2-4.6c-2.3-1.7-2.9-4.4-2-7c0.9-2.5,3.3-3.8,6.3-3.4c3,0.4,4.7,2.2,4.9,5.3
	c0.1,1.3,0,2.7,0,4c5.2,0,10.3,0,15.3,0c0-2.5,0.2-4.8-0.1-7.1c-0.6-4.9-3.2-8.5-7.8-10.4c-2.4-1-5-1.8-7.6-2
	c-4.1-0.3-8.3-0.1-12.4-0.1c0.8-0.3,1.8-0.8,2.8-1.2c28.4-11.7,57.6-21.3,87.3-29.4c23.1-6.3,46.3-11.8,69.8-16.4
	c13.9-2.7,27.9-5.3,41.9-7.5c15-2.3,30.2-4.3,45.3-6.1c11.9-1.4,23.8-2.6,35.8-3.5c14-1,28-1.5,42.1-2.2
	C431.1,7.5,431.4,7.3,431.7,7.2z M209.8,75.6c-0.5,20.7-0.9,41.2-1.4,61.9c5.3,0,10.3,0,15.8,0c0-18.5,0-36.9,0-55.3
	c0.2,0,0.4,0,0.5,0c3.4,18.4,6.9,36.9,10.3,55.4c5.3,0,10.5,0,15.8,0c3.4-18.4,6.9-36.9,10.3-55.3c0.2,0,0.4,0,0.6,0
	c0,18.4,0,36.8,0,55.2c5.5,0,10.5,0,15.7,0c-0.4-20.7-0.9-41.2-1.3-61.7c-0.3-0.1-0.4-0.2-0.5-0.2c-7.9,0-15.9,0-23.8,0
	c-0.9,0-1.1,0.4-1.2,1.2c-2.2,13.8-4.4,27.7-6.7,41.5c-0.2,1.5-0.5,3-0.8,4.6c-0.1,0-0.2,0-0.3,0c-2.5-15.7-5.1-31.4-7.6-47.1
	C226.6,75.6,218.2,75.6,209.8,75.6z M449,75.6c0.3,16.2,0.5,32.3,0.8,48.3c-0.1,0-0.2,0-0.4,0c-4.7-16.1-9.5-32.3-14.2-48.4
	c-7.8,0-15.4,0-23,0c0,20.5,0,40.8,0,61.2c5.1,0,10.1,0,15.2,0c-0.3-16.7-0.6-33.4-0.9-50c0.1,0,0.2,0,0.4,0
	c5.1,16.7,10.2,33.4,15.2,50c7.5,0,14.8,0,22.1,0c0-20.5,0-40.8,0-61.2C459.2,75.6,454.2,75.6,449,75.6z M351.3,75.5
	c0,0.6,0,1.1,0,1.7c0,12.4,0,24.9,0,37.3c0,2.7-0.1,5.5,0.1,8.2c0.4,8.1,4.1,13,11.8,15.2c7,2,14.1,2,21.1-0.3
	c5.4-1.8,8.9-5.4,10.1-11c0.4-1.7,0.5-3.5,0.5-5.2c0.1-14.9,0-29.9,0.1-44.8c0-0.3-0.1-0.7-0.1-1.1c-5.2,0-10.4,0-15.6,0
	c0,0.7,0,1.2,0,1.8c0,14.3,0,28.7,0,43c0,0.8,0,1.7,0,2.5c-0.2,2.6-1.8,4.5-4.3,5.1c-4.3,1-7.5-1.4-7.8-5.7c-0.1-0.8,0-1.6,0-2.4
	c0-14.2,0-28.4,0-42.6c0-0.6,0-1.2,0-1.8C361.7,75.5,356.6,75.5,351.3,75.5z M170.7,81.4c0.1,0,0.2,0,0.4,0
	c2.7,18.7,5.5,37.3,8.2,56c5.7,0,11.1,0,16.6,0c-0.1-0.5-0.1-1-0.2-1.4c-3.6-19.7-7.3-39.4-10.9-59.2c-0.2-1.2-0.6-1.4-1.7-1.4
	c-8.2,0-16.5,0-24.7,0c-0.4,0-0.9,0-1.4,0c-3.8,20.7-7.6,41.3-11.5,62c5.6,0,11.2,0,16.8,0C165.1,118.7,167.9,100.1,170.7,81.4z
	 M292.5,117.1c0,2.2-0.1,4.2,0,6.3c0.5,7.1,3.9,12,10.7,14.4c7,2.5,14.2,2.5,21.4,0.6c5.7-1.5,10-4.8,11.5-10.8
	c0.6-2.7,0.7-5.5,0.8-8.3c0.1-4.4-1.6-8.2-4.8-11.2c-1.3-1.2-2.7-2.4-4.2-3.3c-3.8-2.3-7.8-4.3-11.5-6.6c-2.2-1.3-4.4-2.8-6.3-4.6
	c-1.8-1.7-1.8-5-0.4-7.1c1.3-1.9,4.1-2.6,6.8-1.9c2.3,0.7,3.6,2.5,3.7,5.2c0,1.2,0,2.5,0,3.8c0.6,0,1,0,1.4,0c4.6,0,9.2,0,13.9,0
	c0-1.9,0-3.6,0-5.3c-0.2-6.1-3.3-10.6-9.1-12.6c-7.6-2.6-15.3-2.6-22.9-0.1c-5.7,1.9-9.2,6-10.2,12c-1.2,7.1,0.8,13,6.8,17.4
	c1.2,0.9,2.3,1.7,3.6,2.5c3.9,2.3,7.9,4.4,11.8,6.9c1.8,1.1,3.5,2.5,4.8,4.2c2.3,2.9,1.4,7.8-1.5,9.3c-4.8,2.5-9.6-0.4-9.6-5.7
	c0-1.7,0-3.3,0-5C303.4,117.1,298.1,117.1,292.5,117.1z"/>
<path class="st0" d="M1041.5-786.3c-0.5,0-1,0-1.5,0c0.3-0.3,0.6-0.5,0.9-0.8C1041-786.8,1041.3-786.5,1041.5-786.3z"/>
</svg>
