<?xml version="1.0" encoding="utf-8"?>
<!-- Generator: Adobe Illustrator 22.0.1, SVG Export Plug-In . SVG Version: 6.00 Build 0)  -->
<svg version="1.1" id="Layer_1" xmlns="http://www.w3.org/2000/svg" xmlns:xlink="http://www.w3.org/1999/xlink" x="0px" y="0px"
	 viewBox="0 0 354.2 177.8" style="enable-background:new 0 0 354.2 177.8;" xml:space="preserve">
<style type="text/css">
	.st0{fill:#6CC8CD;}
	.st1{fill:#91D2C0;}
	.st2{fill:#2A4EA1;}
	.st3{fill:#264FA2;}
	.st4{fill:#F6F6F9;}
	.st5{fill:#F8F9FA;}
	.st6{fill:#F8FCFC;}
	.st7{fill:#FAFCFC;}
	.st8{fill:#F6F7FB;}
	.st9{fill:#F3F3F9;}
	.st10{fill:#6AC5D0;}
</style>
<path class="st0" d="M304.2,136.8c-0.3,0.8-0.5,1.3-0.8,1.9c-1.3,2.5-2.6,4.9-6.1,5.1c-1.8,0.1-3.6,0.9-5.4,1.4
	c-1.3,0.4-2.2,0.1-3.1-0.9c-1.2-1.3-2.7-2.4-4-3.7c-1.8-1.9-3.6-3.6-3.3-6.7c0.9-9,1.4-18.1,2.1-27.1c0.6-7.8,1-15.6,2.1-23.3
	c1.2-8.6,1.5-17.4,4-25.9c0.9-3,1-6.3,1.4-9.5c0.2-1.2,0.7-1.9,2-2c2.8-0.1,5.5-0.2,8.3-0.3c0.6,0,1.2,0.1,1.8,0
	c4.3-0.9,7.2,1.3,9.8,4.2c1.8,2,3.7,4,5.5,6c0.3,0.3,0.5,0.8,0.6,1.3c0.6,5.7,1.2,11.4,1.7,17.1c0.5,6.8,1,13.6,1.3,20.4
	c0.2,4.5-0.1,9,0,13.5c0.3,7,0.9,14,1.3,20.9c0.2,4.1,0.3,8.3,0.5,12.5c0,1,0.2,2,0.3,3c0,0.3-0.2,0.9-0.3,1
	c-0.4,0.1-0.8-0.1-1.2-0.3c-0.4-0.2-0.9-0.5-1.3-0.5c-3.1,0-6.3,0-9.4-0.1c-0.7,0-1.5-0.4-1.9-0.9c-1.7-2-3.2-4.1-4.8-6.1
	C304.8,137.3,304.6,137.1,304.2,136.8z M305.2,111.2c0.5,5.4,0.9,10.7,1.3,15.9c0.3,4,0.2,4,4.3,4c3.1,0,3.1,0,2.8-3.1
	c-0.8-10.2-1.6-20.4-2.4-30.7c-1.1-13.4-2.2-26.7-3.3-40.1c-0.2-2.4-0.5-4.8-0.7-7.3c-4,0-7.8,0-11.6,0.1c-0.3,0-0.9,0.8-1,1.3
	c-0.7,7.5-1.4,15-2.1,22.5c-1.6,17.7-3.3,35.3-4.9,53c-0.1,1.4-0.2,2.8-0.4,4.4c2,0,3.8,0,5.5,0c1.1,0,1.5-0.3,1.6-1.5
	c0.5-5.7,1-11.4,1.5-17.1c0.1-0.8,0.1-1.5,1.2-1.5C299.8,111.3,302.4,111.2,305.2,111.2z"/>
<path class="st1" d="M144.3,132.2c0,0.2,0,0.5,0,0.7c-0.4,3.1,1.2,5.6,2.3,8.3c-0.3,0.8-0.6,1.7-0.9,2.6c-3.5,1-7,1.1-10.3-0.7
	c-0.1-0.1-0.2-0.2-0.3-0.1c-2.8,0.6-3.4-1.9-4.7-3.3c-1-1.1-1.8-2.2-2.9-3.6c-0.4,1.5-0.8,2.7-1.1,4c-0.2,1.1-0.8,1.6-1.9,1.8
	c-2,0.3-4,0.9-6,1.2c-0.9,0.1-1.8-0.4-2.8-0.6c-0.1-1.2-0.8-1.3-1.8-1.2l0.1-0.1c0,0-0.1,0.1-0.1,0.1c-0.6-0.7-1.2-1.3-1.8-2
	c-1.2-1.4-2.1-3.2-3.5-4.1c-1.8-1-1.6-2.2-1.6-3.7c0-4.3,0-8.6,0-12.9c0-3.9,0-7.8,0-11.6c0-1.7,0-3.5,0-5.2c0-1.1,0.1-2.2,0-3.2
	c-0.1-0.8-0.6-1.6-0.8-2.4c0-0.6,0-1.1,0-1.7c0.2-0.2,0.4-0.4,0.6-0.6c-0.2-0.1-0.4-0.3-0.6-0.4c0-0.2,0-0.4,0-0.7c0-0.3,0-0.7,0-1
	c0.2-4.8,0.3-9.5,0.5-14.3c0.1-2.7,0.2-5.4,0.4-8.1c0.3-6.9,0.7-13.8,1-20.7c0.1-1.7,1.1-2.7,2.6-2.7c6.4-0.1,12.9-0.4,19.2,1
	c2.7,0.6,4.5,2.7,6.5,4.5c1.7,1.5,3.4,3,4.9,4.7c1,1.2,2,2.6,2.5,4.1c0.4,1.5,0.2,3.2,0.2,4.8c0.1,4.7,0.3,9.4,0.2,14.1
	c-0.1,4.1-0.3,8.3-0.8,12.4c-0.3,2.8-2,4.9-4.7,6.2c2.4,1.1,3.2,3.1,3.6,5.4c-0.2,0.6-1.4,1.4,0.3,1.7c0,0.1,0.1,0.2,0,0.3
	c-0.1,0.8-0.3,1.7-0.1,2.4c0.9,3.9,0.9,7.8,0.6,11.7c-0.1,0.7,0.5,1.5,0.8,2.2c0,1.7,0,3.3,0,5c-0.2,0.1-0.5,0.2-0.5,0.3
	c0.3,1.3,0.6,2.7,0.8,4c0,0.3,0,0.6,0,1C144.2,132,144.2,132.1,144.3,132.2z M132,93.7c-0.1-0.1-0.2-0.3-0.3-0.4l0,0
	c-0.8-1.1-1.7-2.3-2.5-3.4c-0.4-0.7,1.6,0.3,0.8-1c1-1.2,2-2.4,3-3.5c0.3-0.3,0.7-0.5,0.7-0.8c0-2.4-0.1-4.8-0.2-7.3
	c0-4.4,0-8.9,0-13.3c0.1-2,0.3-4,0.3-6c0-0.6-0.5-1.2-0.8-1.7c-1.5-4.5-4.7-6.5-9.3-6.5c-2.6,0-5.2-0.1-7.8,0
	c-1.8,0-3.6,0.2-5.4,0.3c-0.1,0.5-0.3,0.9-0.3,1.4c0,26.4,0,52.7,0,79.1c0,0.5,0.3,1,0.4,1.5c2.4,0,4.7,0,7.1,0
	c0.2-0.6,0.7-1.1,0.7-1.7c0-11,0-22,0-33.1c0-0.7,0-1.3,0-1.9c0.7-0.3,1.2-0.4,1.7-0.6c4-0.1,5.6,1.4,5.9,5.3
	c-0.1,0.2-0.3,0.4-0.3,0.6c0,9.2,0,18.4,0,27.6c0,0.4,0.5,0.7,0.7,1.1c0.7,2,2.3,2.6,4.3,2.8c0.1,0.3,0.1,0.7,0.2,1
	c0.1,0,0.2,0,0.3,0c0.1-0.3,0.2-0.6,0.2-0.9c0.3,0,0.7,0,1,0c0.4,0.4,0.7,1.2,1.1,1.3c1.1,0.1,2.6-2.5,2.3-3.9
	c-0.2,0.4-0.4,0.7-0.7,1.5c-0.3-1.3-0.5-2.1-0.6-3c-0.2-2.8-0.2-5.6-0.4-8.4c0-0.3-0.4-0.7-0.6-1c0-6.2,0-12.4,0-18.7
	c0-0.2,0-0.4,0-0.7c0-0.3,0-0.7,0-1C134.1,96.4,133.4,94.3,132,93.7L132,93.7z M143.2,133.1c-0.1,0-0.3,0-0.4,0
	c0.1,0.3,0.1,0.7,0.2,1c0.1,0,0.2,0,0.3,0C143.2,133.7,143.2,133.4,143.2,133.1z"/>
<path class="st1" d="M46,98.6c-2-4.7-5.6-8.3-8.6-12.4c-2.4-3.2-4.9-6.4-5.5-10.4c-0.6-4-0.8-8.2-1-12.2c-0.1-1.8,0.1-3.7,0.1-5.5
	c0-3.7,1.8-6.8,3.6-9.8c0.4-0.7,1.3-1.3,2-1.7c4.1-2.1,8.4-2.7,12.9-2.3c0.9,0.1,2,0.5,2.7,1.2c3.2,2.8,6.2,5.8,9.5,8.5
	c4.1,3.3,5.5,7.6,5.5,12.6c0,4.7,0.1,9.3,0.1,14c0,0.8-0.3,1.7-0.4,2.1c-1.5,0-2.7-0.2-3.7,0c-2.3,0.4-4.3-0.1-6.2-1.3
	c-1.6-1-3.2-2-5.3-3.4c0.5,1.7,0.6,3.2,1.3,4.4c1.9,3.5,3.9,6.9,5.9,10.4c2.1,3.8,4.1,7.6,6.1,11.4c0.3,0.7,0.4,1.5,0.4,2.3
	c0,6.2,0.1,12.4-0.1,18.6c-0.1,2.5-0.5,5-1.1,7.4c-0.4,1.5-1.1,3.1-2.2,4.2c-3.8,3.7-8.4,5.9-13.8,4.9c-2.1-0.4-4.1-2-5.7-3.5
	c-3.7-3.3-7.1-7-9.8-11.3c-2.5-4.1-2.9-8.7-2.9-13.3c0-3.9,0.2-7.8,0.4-11.6c0.2-0.7,0.6-1.3,0.6-2c0-2.2,0.6-2.5,2.8-2.5
	c2.9,0,9.7,0.3,10.3,0.8c0,0,0,0,0,0c-0.2,1.1,0.2,1.8,1.6,1.9c-0.1-0.3-0.2-0.6-0.3-0.8c0.4,0.2,0.8,0.3,1.2,0.5
	C46.2,99.5,46.1,99,46,98.6z M34.9,123.2c0.1,0.2,0.2,0.5,0.3,0.7c2.9,5.9,7.6,8.2,14,7c4.7-0.9,7.9-3.9,8.3-8.7
	c0.4-4.8,0.4-9.6,0.3-14.5c-0.1-3.6-0.2-7.4-0.9-10.9c-0.9-4.8-4.1-8.4-7.3-11.9c-1.4-1.5-2.8-3.1-3.8-4.8c-4.4-7.1-4.6-15-3.6-23
	c0.3-2.3,2.2-3.4,4.7-3.3c2,0.1,3.3,1.5,3.6,3.7c0.1,1,0.2,2.1,0.2,3.1c0,2.9,0,5.9,0.1,8.8c0,0.9,0.4,2,1,2.7c0.9,1,4.9,0.4,6-0.6
	c0.1-0.3,0.3-0.7,0.3-1c0-4,0-7.9,0-11.9c0-0.3-0.2-0.7-0.3-1c0-0.1,0-0.2,0-0.3c0-0.4-0.1-0.9-0.1-1.3c-1.2-5.7-5.3-9.4-10.7-9.5
	c-6.3-0.1-11.7,4.9-12.1,11.3c-0.2,3.5,0.1,7.1-0.1,10.6c-0.4,6.8,2,12.5,6.4,17.6c2.6,3.1,4.9,6.4,7.2,9.7c0.9,1.3,1.7,3,1.8,4.6
	c0.3,6.5,0.4,13.1,0.4,19.6c0,2.1-2.4,3.9-4.2,3.6c-2.3-0.4-4.1-2.4-4.1-4.7c-0.1-5.7-0.1-11.4-0.1-17.1c0-0.5,0-1-0.1-1.5
	c-1.9,0-3.6,0-5.3,0c-0.7,0-1.3,0.3-2,0.4c-0.2,0.3-0.4,0.7-0.6,1c0.1,0,0.2,0.1,0.2,0.1c0.1-0.1,0.2-0.3,0.3-0.4c0,0.4,0,0.9,0,1.3
	c-0.2,0.4-0.5,0.8-0.5,1.3c0,4.8,0,9.6,0,14.4c0,0.4,0.3,0.9,0.4,1.3c0.1,0.8,0.1,1.5,0.2,2.3C34.8,122.3,34.9,122.8,34.9,123.2
	L34.9,123.2z"/>
<path class="st0" d="M105.4,141.6c-2.5-0.2-4.8-0.3-7.1-0.6c-1.5-0.2-3-0.7-4.6-0.8c-2-0.2-3.2-1.3-4.1-2.9
	c-0.8-1.3-1.6-2.6-2.7-4.4c-0.4,1.8-0.8,3.2-1.1,4.5c-1.3,4.7,0.2,4.5-5.4,4.6c-2.1,0-4.3,0.4-6.4,0.5c-0.6,0-1.5-0.2-1.7-0.6
	c-1.7-2.8-3.5-5.7-4.8-8.7c-1.3-3-0.8-6.2-0.5-9.3c0.5-5.2,1-10.5,1.6-15.7c1-10,2-19.9,3.1-29.9c1-9.5,2.1-19,3.3-28.5
	c0.3-2.9,1.2-3.7,4-3.7c3.8-0.1,7.7-0.4,11.4,0.1c2.3,0.3,4.5,2,6.6,3.2c2.4,1.3,3.6,3.1,3.6,6.1c0.1,4.3,0.9,8.6,1.4,12.9
	c0.3,2.8,0.5,5.5,0.6,8.3c0.2,5.9,0.3,11.9,0.3,17.8c0.1,5.9-0.2,11.7,0.1,17.6c0.3,6.2,0.9,12.4,1.4,18.5
	C104.6,134.1,105,137.7,105.4,141.6z M90.7,131.1c2.1,0,4,0,5.9,0c0.9,0,1.2-0.4,1.1-1.2c-0.6-6.9-1.1-13.8-1.7-20.7
	c-1-11.7-1.9-23.3-2.9-35c-0.6-7.6-1.3-15.3-1.9-22.9c-0.1-1-0.4-1.4-1.5-1.4c-3.3,0.1-6.7,0.1-10,0c-1,0-1.3,0.3-1.4,1.3
	c-0.3,3.9-0.7,7.7-1,11.6c-1,10.8-2,21.6-3,32.5c-0.6,6.7-1.2,13.5-1.9,20.2c-0.4,4.8-0.9,9.6-1.3,14.4c0,0.4,0.5,1.2,0.8,1.2
	c2,0.1,4,0.1,6.1,0.1c0.6-6.7,1.3-13.3,1.9-20c2.9,0,5.6,0,8.3,0.1c0.3,0,0.9,0.8,0.9,1.2c0.3,2.3,0.4,4.5,0.6,6.8
	C90.1,123.2,90.4,127,90.7,131.1z"/>
<path class="st2" d="M185.1,88.2c0,4.4,0,8.8,0,13.1c0,3.5,0.1,7.1-0.1,10.6c-0.2,5.5-0.5,11.1-1.1,16.6c-0.3,2.7-0.9,5.5-2.1,7.8
	c-1.1,1.9-3.2,3.6-5.2,4.7c-3.6,2-7.6,2.8-11.8,2.6c-1.5-0.1-3-0.1-4.5,0.2c-1.8,0.4-3.2,0.6-4.7-0.8c-2.1-2-4.7-3.6-6.6-5.7
	c-1.1-1.2-1.9-3.2-1.9-4.8c-0.1-10.7,0.1-21.4,0.2-32.1c0-3.6,0-7.2,0-10.8c0-7.3-0.1-14.6,0-21.9c0-3.2,0.2-6.3,0.3-9.5
	c0.1-3,0-6,0-8.9c0-1,0.1-1.6,1.5-1.4c1.6,0.2,3.3-0.1,5-0.3c4-0.6,8-0.6,11.8,0.5c5.4,1.5,10,4.4,13.5,9c3.8,5.1,5.1,10.9,5.5,16.9
	C185.2,78.7,185,83.5,185.1,88.2C185,88.2,185.1,88.2,185.1,88.2z M151.1,92.3C151.1,92.3,151.1,92.3,151.1,92.3
	c0,13.2,0,26.3,0,39.5c0,1.1,0.1,1.8,1.5,1.8c3.9-0.1,7.9,0,11.8-0.1c3.3-0.1,6.5-0.9,7.8-4.3c1-2.6,1.6-5.3,1.8-8.1
	c0.4-5,0.3-10.1,0.3-15.1c0-14.3-0.1-28.6-0.3-42.9c0-1.6-0.3-3.3-0.8-4.9c-1.1-3.6-3.7-5.8-7.5-6.2c-4.2-0.4-8.5-0.4-12.8-0.7
	c-1.5-0.1-2,0.4-2,1.9C151.1,66.2,151.1,79.3,151.1,92.3z"/>
<path class="st2" d="M220,49.2c2.5-0.5,4.7-1.1,7-1.5c2.2-0.4,4.1-0.2,5.6,1.7c1.8,2.3,3.7,4.6,5.6,6.7c1.9,2,2,4.5,2,7
	c0.1,11.2,0,22.3,0.1,33.5c0,6.9,0.2,13.8,0.3,20.6c0,2.4,0,4.9,0,7.3c0,1,0.1,1.8,1.4,1.8c2.1,0,3.1,1.6,4.1,3
	c1.4,2.1,2.8,4.4,4,6.7c0.4,0.7,0.3,1.6,0.2,2.4c-0.2,2-0.4,3.9-0.7,5.9c0,0.3-0.6,0.8-1,0.8c-4.1-0.3-8.1-0.8-12.2-1
	c-2.2-0.1-4.3,0.4-6.5,0.5c-0.5,0-1.2-0.2-1.5-0.6c-1.8-1.8-3.4-4-5.4-5.6c-2.3-1.8-2.5-4.1-2.6-6.6c-0.1-7.3-0.3-14.5-0.4-21.8
	c-0.1-6.4-0.4-12.8-0.3-19.1c0.1-5.9,0.8-11.8,1-17.7c0.2-5.4,0.1-10.8,0-16.2C220.6,54.5,220.2,51.9,220,49.2z M223.4,135
	c0.3,0.1,0.4,0.2,0.5,0.2c3.9,0,7.8,0,11.7,0c1.6,0,3.9,0.4,4.7-0.4c0.9-0.9,0.3-3.1,0.4-4.8c0.1-1.1-0.3-1.5-1.4-1.4
	c-2.3,0.1-4.7-0.1-7,0.1c-1.4,0.1-1.8-0.5-1.6-1.7c0.1-0.5,0-1,0-1.5c0-24.2,0-48.4,0-72.6c0-0.7,0-1.4,0-2c-2.6,0-4.9,0-7.2,0
	C223.4,79,223.4,107,223.4,135z"/>
<path class="st1" d="M270.4,112.6c0,0.2,0,0.4,0,0.6c-0.2,0.5-0.7,1-0.7,1.5c-0.1,2.6-0.1,5.2,0,7.9c0,0.4,0.3,0.9,0.4,1.3
	c0.3,1.2,1.3,1.8,2.4,1.9c1.7,0.2,2.8,1.1,3.6,2.6c1,1.9,2.2,3.7,3.4,5.5c1.9,3,1.4,6.2,1.5,9.6c-2.8,0-5.6-0.1-8.3,0
	c-4,0.1-8,0.3-11.9,0.6c-2,0.1-3.6-0.6-4.7-2.2c-1.1-1.6-2.3-3.2-3.6-4.6c-2.1-2.2-3-4.8-3-7.8c0-5.8-0.1-11.6-0.1-17.4
	c0-8.2,0.1-16.4,0.1-24.6c0-4.5-0.1-9,0.1-13.5c0.2-6.4,0.7-12.8,0.9-19.2c0.1-2.3-0.1-4.5-0.2-6.8c0-0.4,0.1-0.7,0.1-1.2
	c3,1.1,5.9,0.2,8.8-0.1c1.3-0.1,2.3,0,3.1,1c1.4,1.6,2.8,3.3,4.1,5c0.9,1.1,1.5,2.4,2.5,3.3c1.9,1.6,2.2,3.6,2.1,5.8
	c0,3.4-0.2,6.8-0.3,10.1c-0.1,6.5-0.1,13.1-0.1,19.6c-0.2,0.5-0.6,1-0.6,1.5c0,6,0,12,0,18C270,111.6,270.2,112.1,270.4,112.6z
	 M252.7,135.2c5.8,0,11.6,0,17.5,0c0-2.3,0-4.4,0-6.7c-2.7,0-5.3,0-7.8,0c-0.7,0-1.3-0.2-2-0.3c0.1-0.5,0.3-1,0.3-1.6
	c0-24.7,0-49.4,0-74c0-0.6-0.2-1.1-0.4-1.7c-2.6,0-5.1,0-7.7,0c-0.1,0.5-0.3,0.9-0.3,1.4c0,27.1,0,54.2,0,81.3
	C252.3,134.2,252.6,134.7,252.7,135.2z"/>
<path class="st1" d="M214.6,62c-0.1,0.2-0.1,0.5-0.2,0.7c-0.1,0.8-0.3,1.6-0.4,2.3c-2.6,0.6-5.1,1.3-7.9,1.9
	c0.1,0.7,0.3,1.8,0.2,2.8c-0.2,4.5-0.4,8.9-0.6,13.4c0,0.6,0.3,1.4,0.7,1.8c2.2,2,4.4,3.9,6.6,5.9c0.7,0.6,1.2,1.3,1.9,1.9
	c1.1,1.1,1.7,2.2,1.6,3.8c-0.2,1.9-0.2,3.8-0.2,5.7c0,0.9-0.3,1.2-1.1,1.7c-2.3,1.3-4.8,0.2-7.2,0.7c-0.4,0.1-0.8,0.1-1.2,0.1
	c0,2.1,0.1,4.1,0,6.1c-0.2,3.4-0.6,6.8-0.8,10.3c0,0.7,0.4,1.6,1,2.2c2.3,2.4,4.7,4.6,7.1,7c0.5,0.5,0.9,1.2,1,1.9
	c0.4,2.7,0.6,5.5,0.9,8.3c0.1,0.7,0.5,1.7-0.9,1.9c-0.2,0-0.4,0.8-0.6,1.3c-4.7,0-9.3,0-14,0c-1.6,0-3.2,0.3-4.8,0.5
	c-0.4,0-1.1,0-1.3-0.3c-1.7-2.1-3.4-4.2-4.9-6.4c-0.7-1-0.9-2.3-1.3-3.5c0-1.6,0-3.1,0-4.7c-0.1-5.4-0.2-10.9-0.3-16.3
	c0.4,0,0.9,0,1.3,0c0,5.7,0,11.4,0,17.1c0,0.5,0.4,1.1,0.7,1.6c0,0.2,0,0.4,0,0.6c0.2,0.2,0.4,0.7,0.6,0.7
	c5.2,0.1,10.5,0.2,15.7,0.2c0.2,0,0.3-0.5,0.5-0.8c0-2.1,0-4.2,0-6.4c-2.4,0-4.5,0-6.6,0c-0.2-0.3-0.4-0.6-0.6-0.9
	c-0.2,0.3-0.5,0.6-0.7,0.9c-0.2,0-0.5,0-0.7,0c-0.1-1.6-0.3-3.3-0.3-4.9c0-8,0-15.9,0-23.9c0-1.1,0.1-2.1,1-2.8c0.2,0,0.4,0,0.7,0
	c0.1,0.1,0.2,0.2,0.2,0.2c2.2,0.1,4.4,0.3,6.6,0.4c0.1,0,0.3-0.5,0.4-0.8c0-2.1,0-4.1,0.1-6.2c-0.4-0.3-0.8-0.8-1.2-0.8
	c-2.1-0.1-4.2-0.1-6.3,0c-1.1,0-1.4-0.4-1.4-1.5c0-9,0-18.1,0-27.1c0-1.1,0.3-1.5,1.4-1.4c2.1,0.1,4.2,0.1,6.3,0
	c0.4,0,0.8-0.6,1.2-0.9c0-2,0-4,0-5.9c-0.4-0.8-2.6-1.3-3.2-0.8c-0.1,0.1,0,0.3-0.1,0.5c-0.2,0-0.5,0-0.7,0
	c-0.2-0.3-0.4-0.6-0.7-0.9c-0.2,0.3-0.4,0.6-0.7,0.9c-0.4,0-0.9,0-1.3,0c0.2-0.6,0.4-1.2,0.7-1.9c0.3,0,0.7,0,1,0
	c0.9,0.1,1.8,0.4,2.7,0.2c1.3-0.3,2,0,2.8,1c0.5,0.7,1.5,1,2.2,1.4c0,0,0,0,0,0c0.2,0.2,0.5,0.5,0.7,0.7c0.1,0.1,0.2,0.2,0.3,0.3
	c0.4,0.8,0.6,1.7,1.2,2.2c1.2,1.2,2.2,2.5,2.2,4.4c0,0.6,0.5,1.2,0.8,1.8c0,0.2,0,0.5,0,0.7C213.6,61.1,213.8,61.6,214.6,62z"/>
<path class="st1" d="M189,112.9c-0.4,0-0.9,0-1.3,0c0-5.4,0-10.8,0-16.3c0-0.6-0.2-1.1-0.3-1.7c0-0.9,0-1.8,0-2.7
	c0.1-0.6,0.3-1.1,0.3-1.7c0-3.9,0-7.9,0-11.8c0-0.9-0.1-1.8-0.1-2.6c-0.2-4.4-0.5-8.8-0.5-13.2c0-3.9,0.2-7.9,0.3-11.8
	c0-0.9,0-1.8,0-2.5c1-0.3,1.7-0.4,2.3-0.6c0.4,0.1,0.9,0.2,1.3,0.4c-0.3,0.5-0.7,1-1,1.6c-0.1,0.1-0.2,0.1-0.3,0.2
	c-0.2,0.1-0.7,0.2-0.7,0.3c0,2.8-0.1,5.5-0.1,8.3c0.1,11.7,0.2,23.5,0.2,35.2c0,4.8-0.1,9.6-0.2,14.4c-0.2,0.1-0.4,0.3-0.6,0.4
	c0.2,0.2,0.4,0.4,0.6,0.6C189,110.5,189,111.7,189,112.9z"/>
<path class="st1" d="M106.1,96.3c0.3,0.8,0.7,1.6,0.8,2.4c0.1,1.1,0,2.2,0,3.2c0,1.7,0,3.5,0,5.2c0,3.9,0,7.8,0,11.6
	c0,4.3,0,8.6,0,12.9c0,1.5-0.2,2.7,1.6,3.7c1.5,0.8,2.4,2.7,3.5,4.1c0.6,0.7,1.2,1.3,1.8,2c-1.7-1.5-3.5-3-5.2-4.6
	c-0.5-0.4-1-0.8-1.4-1.3c-0.4-0.7-0.8-1.4-0.8-2.2c-0.1-6.8-0.2-13.5-0.3-20.3C106.3,107.4,106.2,101.9,106.1,96.3z"/>
<path class="st1" d="M189.7,48c-0.7,0.2-1.3,0.3-2.3,0.6c0,0.7,0,1.6,0,2.5c-0.1,3.9-0.3,7.9-0.3,11.8c0,4.4,0.3,8.8,0.5,13.2
	c0,0.9,0.1,1.8,0.1,2.6c0,3.9,0,7.9,0,11.8c0,0.6-0.2,1.1-0.3,1.7c-0.1-1.7-0.2-3.4-0.3-5.1c-0.2-4.6-0.4-9.3-0.5-13.9
	c0-4.3,0.2-8.6,0.3-12.9c0.1-4.1,0-8.2,0-12.6C187.7,47.7,188.7,47.9,189.7,48z"/>
<path class="st1" d="M187.4,94.9c0.1,0.6,0.3,1.1,0.3,1.7c0,5.4,0,10.8,0,16.3c0.1,5.4,0.2,10.9,0.3,16.3c0,1.6,0,3.1,0,4.7
	c-0.2-2-0.6-3.9-0.7-5.9c-0.2-7-0.3-14.1-0.4-21.1C187,102.9,187.2,98.9,187.4,94.9z"/>
<path class="st1" d="M190,49.9c0.3-0.5,0.7-1,1-1.6c3.2-0.1,6.4-0.2,9.7-0.3c-0.2,0.6-0.4,1.2-0.7,1.9
	C196.7,49.9,193.3,49.9,190,49.9z"/>
<path class="st1" d="M270.4,112.6c-0.1-0.5-0.4-1-0.4-1.5c0-6,0-12,0-18c0-0.5,0.4-1,0.6-1.5C270.5,98.6,270.4,105.6,270.4,112.6z"
	/>
<path class="st1" d="M143.7,121.6c-0.3-0.7-0.8-1.5-0.8-2.2c0.3-3.9,0.3-7.9-0.6-11.7c-0.2-0.8,0.1-1.6,0.1-2.4
	c0.3,1.1,0.8,2.3,0.9,3.4c0.3,4.1,0.4,8.3,0.6,12.5C143.8,121.3,143.7,121.4,143.7,121.6z"/>
<path class="st1" d="M145.7,143.8c0.3-0.9,0.6-1.8,0.9-2.6c-1-2.7-2.7-5.2-2.3-8.3c1,2.9,2.1,5.9,3.2,9
	C147.1,142.4,146.4,143.1,145.7,143.8z"/>
<path class="st1" d="M214.6,59.9c-0.3-0.6-0.8-1.2-0.8-1.8c0-1.9-1-3.1-2.2-4.4c-0.6-0.6-0.8-1.5-1.2-2.2
	C213,53.8,214.7,56.4,214.6,59.9z"/>
<path class="st1" d="M270.1,124c-0.1-0.4-0.4-0.9-0.4-1.3c0-2.6-0.1-5.2,0-7.9c0-0.5,0.4-1,0.7-1.5c0,0.6,0,1.3,0,1.9
	c0,0.3,0,0.5,0,0.8C270.2,118.6,270.1,121.3,270.1,124z"/>
<path class="st1" d="M209.4,50.6c-0.7-0.5-1.7-0.8-2.2-1.4c-0.8-1-1.6-1.3-2.8-1c-0.8,0.2-1.8-0.1-2.7-0.2c1.2-0.2,2.4-0.6,3.6-0.4
	c1,0.1,1.9,0.9,2.7,1.5C208.5,49.4,208.9,50.1,209.4,50.6z"/>
<path class="st1" d="M144,130.9c-0.3-1.3-0.6-2.7-0.8-4c0-0.1,0.3-0.2,0.5-0.3C143.8,128,143.9,129.5,144,130.9z"/>
<path class="st1" d="M45.1,99.4c0.1,0.2,0.2,0.5,0.3,0.8c-1.4-0.1-1.8-0.8-1.6-1.9C44.2,98.6,44.7,99,45.1,99.4z"/>
<path class="st1" d="M214,65.1c0.1-0.8,0.3-1.6,0.4-2.3C214.6,63.6,215.5,64.5,214,65.1z"/>
<path class="st1" d="M114,141.4c1-0.2,1.7-0.1,1.8,1.2C115.1,142.1,114.5,141.7,114,141.4z"/>
<path class="st1" d="M142.4,104.9c-1.7-0.2-0.5-1.1-0.3-1.7C142.1,103.8,142.3,104.4,142.4,104.9z"/>
<path class="st1" d="M214.6,62c-0.7-0.5-1-0.9,0-1.4C214.6,61.1,214.6,61.6,214.6,62z"/>
<path class="st1" d="M46,98.6c0.1,0.4,0.2,0.8,0.3,1.2C46.2,99.5,46.1,99,46,98.6z"/>
<path class="st1" d="M106.1,93.6c0.2,0.1,0.4,0.3,0.6,0.4c-0.2,0.2-0.4,0.4-0.6,0.6C106.1,94.3,106.1,93.9,106.1,93.6z"/>
<path class="st1" d="M210,51.3c-0.2-0.2-0.5-0.5-0.7-0.7C209.6,50.8,209.8,51,210,51.3z"/>
<path class="st1" d="M106.1,91.9c0,0.3,0,0.7,0,1C106.1,92.6,106.1,92.3,106.1,91.9z"/>
<path class="st1" d="M270.3,116c0-0.3,0-0.5,0-0.8C270.3,115.4,270.3,115.7,270.3,116z"/>
<path class="st1" d="M144.3,132.2c-0.1-0.1-0.2-0.3-0.3-0.4C144.2,132,144.2,132.1,144.3,132.2z"/>
<path class="st3" d="M305.2,111.2c-2.8,0-5.4,0-8,0c-1.2,0-1.2,0.7-1.2,1.5c-0.5,5.7-1.1,11.4-1.5,17.1c-0.1,1.2-0.5,1.5-1.6,1.5
	c-1.8-0.1-3.5,0-5.5,0c0.1-1.6,0.2-3,0.4-4.4c1.6-17.7,3.3-35.3,4.9-53c0.7-7.5,1.3-15,2.1-22.5c0-0.5,0.6-1.2,1-1.3
	c3.8-0.1,7.6-0.1,11.6-0.1c0.2,2.5,0.5,4.9,0.7,7.3c1.1,13.4,2.2,26.7,3.3,40.1c0.8,10.2,1.6,20.4,2.4,30.7c0.2,3.1,0.2,3.1-2.8,3.1
	c-4.1,0-4,0-4.3-4C306.2,121.9,305.7,116.7,305.2,111.2z M300.7,61.4c-1.1,1.1-4.7,39.8-4.3,42.5c2.3,0,4.6,0,6.9-0.1
	c0.3,0,0.7-0.7,0.7-1.1c-0.1-2-0.3-4-0.5-6c-0.8-10.4-1.6-20.9-2.4-31.3C301.1,64.1,300.9,62.9,300.7,61.4z"/>
<path class="st4" d="M133.4,98.3c0,0.3,0,0.7,0,1c0,0.2,0,0.4,0,0.7c0,6.2,0,12.4,0,18.7c0.2,4.5,0.5,8.9,0.8,13.5
	c-0.6,0.1-1.2,0.1-1.8,0.2c-0.3,0-0.7,0-1,0c-0.2,0-0.5-0.1-0.7-0.1c-1.9-0.2-3.6-0.8-4.3-2.8c-0.1-2.9-0.3-5.7-0.3-8.6
	c-0.1-6.9-0.1-13.8-0.1-20.7c-0.3-4-2-5.4-5.9-5.3c-0.7,0-1.5-0.1-2.3-0.1c0,0.8,0,1.3,0,1.8c0,11.9,0,23.7-0.1,35.6
	c-2.4,0-4.7,0-7.1,0c0-0.7-0.1-1.3-0.1-2c0-16.2,0-32.4,0-48.6c0-10.4,0-20.9,0-31.3c1.8-0.1,3.6-0.3,5.4-0.3c2.6,0,5.2,0,7.8,0
	c4.6,0.1,7.8,2,9.3,6.5c0.2,2.6,0.3,5.2,0.5,7.7c0,4.4,0,8.9,0,13.3c-0.2,2.7-0.3,5.4-0.5,8.1c-1,1.2-2,2.4-3,3.5
	c-1,0.4-2,0.8-2.8,1.1c1.5,1.1,3,2.2,4.5,3.4c0,0,0,0,0,0c0.1,0.1,0.2,0.3,0.3,0.4c0,0,0,0,0,0C132.4,95.2,132.9,96.7,133.4,98.3z
	 M124.5,56.5c-0.2-0.1-0.5-0.2-0.7-0.3c-0.3-0.1-0.7-0.2-1-0.2c-1.2-0.1-2.4-0.3-3.6-0.3c-0.2,0-0.5,0.6-0.7,1c0,0.2,0,0.4,0,0.7
	c0,7.5-0.1,15-0.1,22.5c0,1.9,0.1,3.9,0.1,5.8c2.3,0.6,4.4,0.1,6.3-1.3c1.5-1.1,1.8-2.6,1.8-4.4c0-0.2,0.1-0.4,0.1-0.6
	c0-6.5,0.1-12.9,0-19.4C126.6,58.5,126.1,57.1,124.5,56.5L124.5,56.5z"/>
<path class="st1" d="M110.4,50c0,10.4,0,20.9,0,31.3c0,16.2,0,32.4,0,48.6c0,0.7,0,1.3,0.1,2c-0.2-0.5-0.4-1-0.4-1.5
	c0-26.4,0-52.7,0-79.1C110.1,50.9,110.3,50.4,110.4,50z"/>
<path class="st1" d="M117.7,131.9c0-11.9,0-23.7,0.1-35.6c0-0.5,0-1.1,0-1.8c0.9,0,1.6,0.1,2.3,0.1c-0.5,0.2-1,0.4-1.7,0.6
	c0,0.6,0,1.2,0,1.9c0,11,0,22,0,33.1C118.4,130.8,117.9,131.3,117.7,131.9z"/>
<path class="st1" d="M132.4,132.2c0.6-0.1,1.2-0.1,1.8-0.2c-0.3-4.5-0.5-9-0.8-13.5c0.2,0.3,0.6,0.6,0.6,1c0.2,2.8,0.2,5.6,0.4,8.4
	c0.1,0.9,0.3,1.8,0.6,3c0.4-0.7,0.5-1,0.7-1.5c0.3,1.4-1.1,4-2.3,3.9C133.1,133.5,132.7,132.7,132.4,132.2z"/>
<path class="st1" d="M126,99.9c0,6.9,0,13.8,0.1,20.7c0,2.9,0.2,5.7,0.3,8.6c-0.2-0.4-0.7-0.7-0.7-1.1c0-9.2,0-18.4,0-27.6
	C125.7,100.3,125.9,100.1,126,99.9z"/>
<path class="st1" d="M131.7,93.3c-1.5-1.1-3-2.2-4.5-3.4c0.8-0.3,1.8-0.7,2.8-1.1c0.8,1.3-1.2,0.3-0.8,1
	C130,91,130.8,92.2,131.7,93.3z"/>
<path class="st1" d="M132.9,85.3c0.2-2.7,0.3-5.4,0.5-8.1c0.1,2.4,0.2,4.8,0.2,7.3C133.6,84.8,133.2,85.1,132.9,85.3z"/>
<path class="st1" d="M133.4,63.9c-0.2-2.6-0.3-5.2-0.5-7.7c0.3,0.6,0.8,1.1,0.8,1.7C133.7,59.9,133.5,61.9,133.4,63.9z"/>
<path class="st1" d="M133.4,98.3c-0.5-1.5-1-3-1.5-4.6C133.4,94.3,134.1,96.4,133.4,98.3z"/>
<path class="st1" d="M130.7,132.1c0.2,0,0.5,0.1,0.7,0.1c-0.1,0.3-0.2,0.6-0.2,0.9c-0.1,0-0.2,0-0.3,0
	C130.8,132.8,130.8,132.4,130.7,132.1z"/>
<path class="st1" d="M143.2,133.1c0,0.3,0,0.6,0,1c-0.1,0-0.2,0-0.3,0c-0.1-0.3-0.1-0.7-0.2-1C142.9,133.1,143.1,133.1,143.2,133.1z
	"/>
<path class="st1" d="M133.4,99.9c0-0.2,0-0.4,0-0.7C133.4,99.5,133.4,99.7,133.4,99.9z"/>
<path class="st1" d="M132,93.7c-0.1-0.1-0.2-0.3-0.3-0.4C131.8,93.4,131.9,93.6,132,93.7z"/>
<path class="st5" d="M57.8,57.3c0,0.1,0,0.2,0,0.3c0,4.7,0,9.3,0,14c-1.1,1.1-5.1,1.6-6,0.6c-0.6-0.6-0.9-1.8-1-2.7
	c-0.1-2.9,0-5.9-0.1-8.8c0-1.1-0.1-2.1-0.2-3.1c-0.3-2.2-1.6-3.6-3.6-3.7c-2.4-0.2-4.4,1-4.7,3.3c-1,8-0.8,15.9,3.6,23
	c1.1,1.7,2.4,3.3,3.8,4.8c3.2,3.5,6.4,7.1,7.3,11.9c0.7,3.6,0.8,7.3,0.9,10.9c0.1,4.8,0.1,9.7-0.3,14.5c-0.4,4.7-3.6,7.8-8.3,8.7
	c-6.5,1.2-11.1-1.1-14-7c-0.1-0.2-0.2-0.5-0.3-0.7c0,0,0.1,0,0.1,0c-0.1-0.4-0.1-0.8-0.2-1.3c-0.1-0.8-0.1-1.5-0.2-2.3
	c0.1-0.1,0-0.2,0-0.2c0-0.3,0-0.5,0-0.8c0-5.3,0-10.7,0-16c0-0.4,0-0.9,0-1.3c0-0.2,0-0.5,0-0.7c0.7-0.1,1.3-0.4,2-0.4
	c1.7-0.1,3.4,0,5.3,0c0,0.6,0.1,1.1,0.1,1.5c0,5.7,0,11.4,0.1,17.1c0,2.4,1.9,4.3,4.1,4.7c1.8,0.4,4.2-1.5,4.2-3.6
	c0-6.5-0.1-13.1-0.4-19.6c-0.1-1.6-0.9-3.2-1.8-4.6c-2.3-3.3-4.6-6.7-7.2-9.7c-4.4-5.1-6.8-10.8-6.4-17.6c0.2-3.5-0.1-7.1,0.1-10.6
	c0.4-6.4,5.8-11.4,12.1-11.3c5.4,0.1,9.5,3.7,10.7,9.5C57.7,56.4,57.7,56.9,57.8,57.3z"/>
<path class="st1" d="M34.6,102.6c0,5.3,0,10.7,0,16c0,0.3,0,0.5,0,0.8c0.1,0.1,0.1,0.1,0,0.2c-0.1-0.4-0.4-0.9-0.4-1.3
	c0-4.8,0-9.6,0-14.4C34.1,103.5,34.4,103,34.6,102.6z"/>
<path class="st1" d="M57.8,71.6c0-4.7,0-9.3,0-14c0.1,0.3,0.3,0.7,0.3,1c0,4,0,7.9,0,11.9C58.1,70.9,57.9,71.3,57.8,71.6z"/>
<path class="st1" d="M34.6,100.6c0,0.2,0,0.5,0,0.7c-0.1,0.1-0.2,0.3-0.3,0.4c-0.1,0-0.2-0.1-0.2-0.1
	C34.2,101.3,34.4,100.9,34.6,100.6z"/>
<path class="st1" d="M57.8,57.3c0-0.4-0.1-0.9-0.1-1.3C57.7,56.4,57.7,56.9,57.8,57.3z"/>
<path class="st1" d="M34.8,121.9c0.1,0.4,0.1,0.8,0.2,1.3C34.9,122.8,34.8,122.3,34.8,121.9z"/>
<path class="st1" d="M34.9,123.2c0.1,0.2,0.2,0.5,0.3,0.7C35.1,123.6,35,123.4,34.9,123.2z"/>
<path class="st3" d="M90.7,131.1c-0.3-4.1-0.6-8-1-11.8c-0.2-2.3-0.3-4.5-0.6-6.8c-0.1-0.5-0.6-1.2-0.9-1.2
	c-2.7-0.1-5.4-0.1-8.3-0.1c-0.6,6.7-1.2,13.2-1.9,20c-2.1,0-4.1,0.1-6.1-0.1c-0.3,0-0.8-0.8-0.8-1.2c0.4-4.8,0.8-9.6,1.3-14.4
	c0.6-6.7,1.2-13.5,1.9-20.2c1-10.8,2-21.6,3-32.5c0.4-3.9,0.7-7.7,1-11.6c0.1-1,0.4-1.3,1.4-1.3c3.3,0,6.7,0.1,10,0
	c1.1,0,1.4,0.4,1.5,1.4c0.6,7.6,1.2,15.3,1.9,22.9c1,11.7,1.9,23.3,2.9,35c0.6,6.9,1.1,13.8,1.7,20.7c0.1,0.9-0.2,1.2-1.1,1.2
	C94.7,131.1,92.8,131.1,90.7,131.1z M88,103.8c-1.1-14.1-2.1-28.2-3.4-42.2c-0.3,0-0.6,0-1,0c-1.2,14-2.5,28-3.7,42.2
	C82.8,103.8,85.3,103.8,88,103.8z"/>
<path class="st6" d="M151.1,92.3c0-13,0-26.1,0-39.1c0-1.6,0.4-2,2-1.9c4.3,0.3,8.5,0.3,12.8,0.7c3.8,0.3,6.3,2.6,7.5,6.2
	c0.5,1.6,0.8,3.3,0.8,4.9c0.1,14.3,0.2,28.6,0.3,42.9c0,5,0,10.1-0.3,15.1c-0.2,2.7-0.9,5.5-1.8,8.1c-1.3,3.4-4.5,4.2-7.8,4.3
	c-3.9,0.1-7.9,0-11.8,0.1c-1.4,0-1.5-0.7-1.5-1.8C151.1,118.6,151.1,105.5,151.1,92.3C151.1,92.3,151.1,92.3,151.1,92.3z
	 M158.3,57.2c0,0.9,0,1.4,0,1.9c0,21.6,0,43.2,0,64.8c0,0.4-0.1,0.9,0,1.3c0.1,0.4,0.5,0.9,0.8,1c1,0.2,2,0.3,3,0.3
	c2.6,0,4.3-1.3,4.7-3.9c0.3-1.6,0.5-3.3,0.5-4.9c0-17.2,0-34.4,0-51.6c0-1.5-0.1-3-0.3-4.5c-0.2-2.1-1.4-3.5-3.4-3.9
	C161.9,57.3,160.2,57.3,158.3,57.2z"/>
<path class="st7" d="M223.4,135c0-28.1,0-56.1,0-84.2c2.3,0,4.6,0,7.2,0c0,0.6,0,1.3,0,2c0,24.2,0,48.4,0,72.6c0,0.5,0.1,1,0,1.5
	c-0.2,1.3,0.2,1.8,1.6,1.7c2.3-0.1,4.7,0,7-0.1c1.1,0,1.5,0.3,1.4,1.4c-0.1,1.7,0.5,3.9-0.4,4.8c-0.8,0.9-3.1,0.4-4.7,0.4
	c-3.9,0-7.8,0-11.7,0C223.8,135.2,223.7,135.1,223.4,135z"/>
<path class="st8" d="M260.3,128.2c0.7,0.1,1.3,0.3,2,0.3c2.6,0,5.2,0,7.8,0c0,2.3,0,4.4,0,6.7c-5.9,0-11.7,0-17.5,0
	c0-0.6,0-1.1,0-1.7c0-22.5,0-45.1,0-67.6c0-5,0-10,0-15c2.6,0,5.1,0,7.7,0c0,0.4-0.1,0.9-0.1,1.3c0,24.6,0,49.1,0,73.7
	C260.2,126.7,260.3,127.5,260.3,128.2z"/>
<path class="st1" d="M260.3,128.2c0-0.8-0.1-1.5-0.1-2.3c0-24.6,0-49.1,0-73.7c0-0.4,0-0.9,0.1-1.3c0.1,0.6,0.4,1.1,0.4,1.7
	c0,24.7,0,49.4,0,74C260.6,127.2,260.4,127.7,260.3,128.2z"/>
<path class="st9" d="M190,49.9c3.3,0,6.7,0,10,0c0.4,0,0.9,0,1.3,0c0.4,0,0.9,0,1.3,0c0.2,0,0.5,0,0.7,0c1.1,0.1,2.2,0.2,3.3,0.3
	c0,2,0,4,0,5.9c-0.2,0.1-0.4,0.2-0.6,0.3c-0.1,0-0.2,0-0.3,0c-2.3,0-4.7,0-7,0c-0.4,0.1-0.9,0.2-1.3,0.2c0,0.6-0.1,1.2-0.1,1.8
	c0,8.6,0,17.1,0,25.7c0,1,0.1,2.1,0.1,3.1c0.2,0.1,0.4,0.2,0.7,0.2c0.7,0,1.3,0,2,0.1c2.2,0.1,4.4,0.2,6.7,0.2c0,2.1,0,4.1-0.1,6.2
	c-2.4,0.1-4.8,0.2-7.2,0.3c-0.2,0-0.4,0-0.7,0c-0.5,0-0.9,0-1.5,0c0,4.9,0,9.6,0,14.3c0,5.3,0,10.6,0,15.9c0,0.5-0.5,1.5,0.8,1.4
	c0.2,0,0.5,0,0.7,0c0.4,0,0.9,0,1.3,0c2.1,0,4.2,0,6.6,0c0,2.3,0,4.3,0,6.4c-0.3,0.1-0.6,0.2-1,0.2c-4.9,0-9.8,0-14.8,0
	c-0.4,0-0.7-0.2-1.1-0.3c0-0.2,0-0.4,0-0.6c0-0.3,0.1-0.5,0.1-0.8c0-26.9,0-53.8,0-80.7C189.9,50,189.9,50,190,49.9z"/>
<path class="st1" d="M189.8,50.1c0,26.9,0,53.8,0,80.7c0,0.3,0,0.5-0.1,0.8c-0.2-0.5-0.7-1.1-0.7-1.6c0-5.7,0-11.4,0-17.1
	c0-1.2,0-2.4,0-3.7c0-0.3,0-0.7,0-1c0.1-4.8,0.2-9.6,0.2-14.4c0-11.7-0.1-23.5-0.2-35.2c0-2.8,0-5.5,0.1-8.3
	C189.1,50.3,189.5,50.2,189.8,50.1z"/>
<path class="st1" d="M198.7,56.4c2.3,0,4.7,0,7,0c0.1,0,0.2,0,0.3,0c0.2-0.1,0.4-0.2,0.6-0.3c-0.4,0.3-0.8,0.8-1.2,0.9
	c-2.1,0.1-4.2,0.1-6.3,0c-1.1,0-1.4,0.4-1.4,1.4c0,9,0,18.1,0,27.1c0,1.1,0.3,1.5,1.4,1.5c2.1-0.1,4.2-0.1,6.3,0
	c0.4,0,0.8,0.5,1.2,0.8c-2.2-0.1-4.4-0.2-6.7-0.2c-0.7,0-1.3,0-2-0.1c-0.2-0.1-0.4-0.2-0.7-0.2c0-1-0.1-2.1-0.1-3.1
	c0-8.6,0-17.1,0-25.7c0-0.6,0.1-1.2,0.1-1.8C197.8,56.5,198.2,56.5,198.7,56.4z"/>
<path class="st1" d="M198,125.9c-1.3,0.1-0.8-0.9-0.8-1.4c0-5.3,0-10.6,0-15.9c0-4.7,0-9.4,0-14.3c0.5,0,1,0,1.5,0
	c-1,0.7-1,1.7-1,2.8c0,8,0,15.9,0,23.9C197.7,122.6,197.9,124.2,198,125.9z"/>
<path class="st1" d="M189.7,132.2c0.4,0.1,0.7,0.3,1.1,0.3c4.9,0,9.8,0,14.8,0c0.3,0,0.6-0.1,1-0.2c-0.2,0.3-0.3,0.8-0.5,0.8
	c-5.2,0-10.5-0.1-15.7-0.2C190.2,132.9,190,132.4,189.7,132.2z"/>
<path class="st1" d="M199.3,94.3c2.4-0.1,4.8-0.2,7.2-0.3c-0.1,0.3-0.3,0.8-0.4,0.8c-2.2-0.1-4.4-0.2-6.6-0.4
	C199.5,94.5,199.4,94.3,199.3,94.3z"/>
<path class="st1" d="M206.6,50.1c-1.1-0.1-2.2-0.2-3.3-0.3c0-0.2,0-0.4,0.1-0.5C204.1,48.8,206.2,49.3,206.6,50.1z"/>
<path class="st1" d="M202.7,49.9c-0.4,0-0.9,0-1.3,0c0.2-0.3,0.4-0.6,0.7-0.9C202.2,49.3,202.4,49.6,202.7,49.9z"/>
<path class="st1" d="M200,125.9c-0.4,0-0.9,0-1.3,0c0.2-0.3,0.5-0.6,0.7-0.9C199.6,125.2,199.8,125.6,200,125.9z"/>
<path class="st1" d="M189,108.3c0,0.3,0,0.7,0,1c-0.2-0.2-0.4-0.4-0.6-0.6C188.6,108.5,188.8,108.4,189,108.3z"/>
<path class="st10" d="M300.7,61.4c0.2,1.5,0.4,2.8,0.5,4c0.8,10.4,1.6,20.9,2.4,31.3c0.2,2,0.4,4,0.5,6c0,0.4-0.4,1.1-0.7,1.1
	c-2.3,0.1-4.6,0.1-6.9,0.1C296,101.1,299.6,62.5,300.7,61.4z"/>
<path class="st1" d="M118.4,57.3c0-0.2,0-0.4,0-0.7c1.5-0.2,2.9-0.4,4.4-0.7c0.3,0.1,0.7,0.2,1,0.2c0.2,0.1,0.5,0.2,0.7,0.3
	c0,0,0,0,0,0c0,0.3,0,0.6,0.1,0.8c1.4,1.2,1.5,2.9,1.4,4.5c0,5.2,0,10.5,0,15.7c0,0.6,0.3,1.2,0.5,1.8c0,0.2-0.1,0.4-0.1,0.6
	c-0.7,0.9-1.4,1.8-2.3,2.9c0.1,0.2,0.3,0.8,0.5,1.4c-1.9,1.5-4,2-6.3,1.3c0.3,0,0.6,0,0.9,0c-0.2-1-0.6-1.8-0.6-2.7
	c0-7.7,0.1-15.4,0.2-23.1C118.9,58.9,118.6,58.1,118.4,57.3z"/>
<path class="st1" d="M126.6,79.4c-0.2-0.6-0.5-1.2-0.5-1.8c0-5.2,0-10.5,0-15.7c0-1.7,0-3.3-1.4-4.5c-0.2-0.1-0.1-0.5-0.1-0.8
	c1.6,0.6,2.1,2,2.1,3.4C126.7,66.4,126.6,72.9,126.6,79.4z"/>
<path class="st1" d="M118.4,57.3c0.2,0.8,0.6,1.7,0.6,2.5c0,7.7-0.1,15.4-0.2,23.1c0,0.9,0.4,1.8,0.6,2.7c-0.3,0-0.6,0-0.9,0
	c0-1.9-0.1-3.9-0.1-5.8C118.3,72.3,118.3,64.8,118.4,57.3z"/>
<path class="st1" d="M124.7,84.3c-0.2-0.6-0.4-1.2-0.5-1.4c0.9-1.2,1.6-2.1,2.3-2.9C126.6,81.6,126.2,83.2,124.7,84.3z"/>
<path class="st1" d="M122.7,56c-1.5,0.2-2.9,0.4-4.4,0.7c0.2-0.3,0.5-1,0.7-1C120.3,55.7,121.5,55.8,122.7,56z"/>
<path class="st1" d="M124.5,56.5c-0.2-0.1-0.5-0.2-0.7-0.3C124,56.3,124.2,56.4,124.5,56.5z"/>
<path class="st1" d="M34.5,119.4c0-0.3,0-0.5,0-0.8C34.6,118.9,34.5,119.2,34.5,119.4z"/>
<path class="st10" d="M88,103.8c-2.7,0-5.2,0-8,0c1.2-14.1,2.5-28.1,3.7-42.2c0.3,0,0.6,0,1,0C85.9,75.6,86.8,89.6,88,103.8z"/>
<path class="st2" d="M158.3,57.2c1.9,0.2,3.6,0.1,5.3,0.5c2.1,0.4,3.2,1.8,3.4,3.9c0.2,1.5,0.3,3,0.3,4.5c0,17.2,0,34.4,0,51.6
	c0,1.7-0.2,3.3-0.5,4.9c-0.5,2.6-2.1,3.9-4.7,3.9c-1,0-2-0.1-3-0.3c-0.3-0.1-0.7-0.6-0.8-1c-0.1-0.4,0-0.9,0-1.3
	c0-21.6,0-43.2,0-64.8C158.3,58.6,158.3,58.1,158.3,57.2z"/>
<path class="st1" d="M198.7,56.4c-0.4,0.1-0.9,0.2-1.3,0.2C197.8,56.5,198.2,56.5,198.7,56.4z"/>
<path class="st1" d="M197.3,87.3c0.2,0.1,0.4,0.2,0.7,0.2C197.8,87.4,197.6,87.4,197.3,87.3z"/>
<path class="st1" d="M206,56.4c-0.1,0-0.2,0-0.3,0C205.8,56.4,205.9,56.4,206,56.4z"/>
</svg>
