<?xml version="1.0" encoding="utf-8"?>
<!-- Generator: Adobe Illustrator 22.0.1, SVG Export Plug-In . SVG Version: 6.00 Build 0)  -->
<svg version="1.1" id="Layer_1" xmlns="http://www.w3.org/2000/svg" xmlns:xlink="http://www.w3.org/1999/xlink" x="0px" y="0px"
	 viewBox="0 0 800 200" style="enable-background:new 0 0 800 200;" xml:space="preserve">
<style type="text/css">
	.st0{fill:#BE1E2D;}
</style>
<g id="_x37_ebpVz.tif">
	<g>
		<path class="st0" d="M354,138.4c4.9-8,9.5-14.7,16.7-18.9c1.7-1,4.1-1.2,6.2-1.3c17.3-0.1,34.6,0,52-0.1c1.9,0,3.9-0.2,6.1-0.3
			c0-4,0-7.6,0-11.9c-26.8,0-53.3,0-80.3,0c0-15.3,0-29.9,0-44.8c33,0,65.9,0,98.8,0c-1.9,9.6-14.6,20.5-23.7,20.5
			c-16.5,0.1-33,0-49.5,0.1c-1.6,0-3.2,0.5-4.8,0.7c0,0.6-0.1,1.2-0.1,1.9c1.7,0.3,3.4,0.9,5,0.9c23,0.1,46,0,68.9,0.1
			c1.9,0,3.9,0.2,6.2,0.4c0,17.8,0,35.1,0,52.9C421.9,138.4,388.6,138.4,354,138.4z"/>
		<path class="st0" d="M60.4,81.6c-6.7,0-12.5-0.7-18.2,0.1c-13.1,1.8-21-5-27.6-14.8c-1.1-1.6-2.2-3.2-3.7-5.6c40.2,0,79.7,0,120,0
			c-4.4,7.1-8.6,13.7-15.4,17.9c-2.4,1.5-5.6,2.2-8.4,2.3c-6.6,0.3-13.3,0.1-20,0.1c-1.6,0-3.2,0.2-5.6,0.4c0,18.8,0,37.2,0,56.2
			c-7.2,0-13.7,0-21.1,0C60.4,119.4,60.4,100.9,60.4,81.6z"/>
		<path class="st0" d="M517.1,138.5c0-26.1,0-51.5,0-77.4c6.8,0,13.3,0,20.4,0c0,18.9,0,37.4,0,56.8c25,0,49.5,0,74.2,0
			c-4.7,13.5-14.9,20.9-27.8,20.9c-20.1,0-40.3,0-60.4,0C521.6,138.8,519.7,138.6,517.1,138.5z"/>
		<path class="st0" d="M690.4,106.4c0,10.6,0,21,0,31.9c-7.1,0-13.5,0-20.4,0c0-15.7,0-31.2,0-47.3c31.8,0,63.8,0,96.1,0
			c0,15.7,0,31.3,0,47.4c-6.7,0-13,0-20.2,0c0-10.6,0-21,0-31.9C727.2,106.4,709.2,106.4,690.4,106.4z"/>
		<path class="st0" d="M300.7,89.6c-3.8,12.1-15.1,20.7-26.7,20.7c-18.5,0-37-0.3-55.5,0.1c-7.3,0.2-13-2.3-17.5-7.7
			c-3.2-3.9-6.2-8-10.3-13.1C228.4,89.6,264.4,89.6,300.7,89.6z"/>
		<path class="st0" d="M190.9,118.3c37.6,0,73.7,0,109.7,0c-2.2,10.2-14.7,20.5-24.6,20.5c-19.2,0-38.3-0.2-57.5,0.1
			c-7.6,0.1-13.2-2.4-17.8-8.1C197.7,127.1,194.8,123.3,190.9,118.3z"/>
		<path class="st0" d="M301.7,62.4c-4.4,5.1-8.4,10.7-13.4,15.1c-2.7,2.4-7.2,3.8-10.9,3.9c-20.5,0.4-41,0.1-61.5,0.2
			c-4.8,0-8.9-1.4-12.1-4.9c-4.3-4.7-8.3-9.7-12.4-14.5c0.3-0.4,0.6-0.8,0.9-1.2c36.1,0,72.3,0,108.4,0
			C301.1,61.5,301.4,62,301.7,62.4z"/>
		<path class="st0" d="M768.5,62.7c-4.9,5.3-9.4,11-14.8,15.7c-2.3,2.1-6.4,3-9.6,3c-17.3,0.3-34.6,0.1-51.9,0.2
			c-5,0-9.2-1.5-12.5-5.2c-4.1-4.7-8-9.5-12-14.2c0.3-0.4,0.6-0.8,0.9-1.1c33,0,65.9,0,98.9,0C767.8,61.6,768.1,62.1,768.5,62.7z"/>
	</g>
</g>
</svg>
