<?xml version="1.0" encoding="utf-8"?>
<!-- Generator: Adobe Illustrator 22.0.1, SVG Export Plug-In . SVG Version: 6.00 Build 0)  -->
<svg version="1.1" id="Layer_1" xmlns="http://www.w3.org/2000/svg" xmlns:xlink="http://www.w3.org/1999/xlink" x="0px" y="0px"
	 viewBox="0 0 200 200" style="enable-background:new 0 0 200 200;" xml:space="preserve">
<style type="text/css">
	.st0{fill:#488E5D;}
</style>
<path class="st0" d="M75.4,110.9c1.7-9.2,6.7-17.6,11.4-25.8c2.2-3.8,4.8-7.4,7.1-11.2c1.1-1.8,6.2-10.2,6.2-10.2s5.7,8.7,6.8,10.4
	c2.3,3.7,4.6,7.4,6.7,11.1c4.4,7.6,9.2,15.9,11,24.5c3.5,16.8-10.1,30.1-26.2,30.1c-6.3,0-13-3.8-17.2-8.7c-2.4-2.8-4.1-5.6-5.2-9
	C74.7,118.4,74.6,114.9,75.4,110.9z M99.9,133.5c11.6,0,20.6-10.3,18.8-21.8c-1.1-6.8-4.7-13.6-8-19.5c-1.9-3.5-4-6.9-6.2-10.3
	c-1.2-1.9-4.4-6.6-4.4-6.6s-5.1,7.9-6.1,9.6c-1.9,3.2-3.6,6.5-5.4,9.8c-3.2,5.8-6.8,12.2-7.1,19C80.8,124.8,88.9,133.3,99.9,133.5z"
	/>
</svg>
